GeoramaSemiCondensed-Medium.ufo
<glyph name="exclam" format="2">
  <advance width="192.628"/>
  <unicode hex="0021"/>
  <outline>
    <contour>
      <point x="53.634" y="261.85" type="line"/>
      <point x="138.908" y="261.85" type="line"/>
      <point x="146.13199999999998" y="740.0" type="line"/>
      <point x="47.44200000000001" y="740.0" type="line"/>
    </contour>
    <contour>
      <point x="41.982000000000006" y="55.356" type="curve" smooth="yes"/>
      <point x="41.982000000000006" y="12.953999999999999"/>
      <point x="56.168000000000006" y="-4.386"/>
      <point x="96.314" y="-4.386" type="curve" smooth="yes"/>
      <point x="137.03" y="-4.386"/>
      <point x="150.64600000000002" y="12.953999999999999"/>
      <point x="150.64600000000002" y="55.356" type="curve" smooth="yes"/>
      <point x="150.64600000000002" y="98.18799999999999"/>
      <point x="137.03" y="115.52799999999999"/>
      <point x="96.314" y="115.52799999999999" type="curve" smooth="yes"/>
      <point x="55.598" y="115.52799999999999"/>
      <point x="41.982000000000006" y="98.18799999999999"/>
    </contour>
  </outline>
</glyph>
<glyph name="numbersign" format="2">
  <advance width="466.656"/>
  <unicode hex="0023"/>
  <outline>
    <contour>
      <point x="56.412000000000006" y="444.162" type="line"/>
      <point x="121.73599999999999" y="444.162" type="line"/>
      <point x="94.83800000000001" y="251.00199999999998" type="line"/>
      <point x="32.153999999999996" y="251.00199999999998" type="line"/>
      <point x="32.153999999999996" y="171.202" type="line"/>
      <point x="87.22200000000001" y="171.202" type="line"/>
      <point x="65.44800000000001" y="0.0" type="line"/>
      <point x="146.50799999999998" y="0.0" type="line"/>
      <point x="168.282" y="171.202" type="line"/>
      <point x="257.21599999999995" y="171.202" type="line"/>
      <point x="235.442" y="0.0" type="line"/>
      <point x="316.502" y="0.0" type="line"/>
      <point x="338.276" y="171.202" type="line"/>
      <point x="410.33" y="171.202" type="line"/>
      <point x="410.33" y="251.00199999999998" type="line"/>
      <point x="345.892" y="251.00199999999998" type="line"/>
      <point x="372.78999999999996" y="444.162" type="line"/>
      <point x="434.588" y="444.162" type="line"/>
      <point x="434.588" y="524.4780000000001" type="line"/>
      <point x="380.66200000000003" y="524.4780000000001" type="line"/>
      <point x="403.378" y="700.0" type="line"/>
      <point x="322.318" y="700.0" type="line"/>
      <point x="299.602" y="524.4780000000001" type="line"/>
      <point x="210.668" y="524.4780000000001" type="line"/>
      <point x="233.384" y="700.0" type="line"/>
      <point x="152.324" y="700.0" type="line"/>
      <point x="129.608" y="524.4780000000001" type="line"/>
      <point x="56.412000000000006" y="524.4780000000001" type="line"/>
    </contour>
    <contour>
      <point x="202.796" y="444.162" type="line"/>
      <point x="291.72999999999996" y="444.162" type="line"/>
      <point x="264.83200000000005" y="251.00199999999998" type="line"/>
      <point x="175.898" y="251.00199999999998" type="line"/>
    </contour>
  </outline>
</glyph>
<glyph name="dollar" format="2">
  <advance width="466.656"/>
  <unicode hex="0024"/>
  <outline>
    <contour>
      <point x="210.98399999999998" y="-10.0" type="curve" smooth="yes"/>
      <point x="333.87600000000003" y="-11.032"/>
      <point x="424.50399999999996" y="42.88"/>
      <point x="424.50399999999996" y="168.024" type="curve" smooth="yes"/>
      <point x="424.50399999999996" y="281.08"/>
      <point x="357.46400000000006" y="337.572"/>
      <point x="276.676" y="386.64799999999997" type="curve" smooth="yes"/>
      <point x="204.876" y="430.82800000000003"/>
      <point x="153.23200000000003" y="470.148"/>
      <point x="153.23200000000003" y="537.732" type="curve" smooth="yes"/>
      <point x="153.23200000000003" y="591.512"/>
      <point x="189.168" y="621.0799999999999"/>
      <point x="255.61200000000002" y="621.0799999999999" type="curve" smooth="yes"/>
      <point x="298.21200000000005" y="621.0799999999999"/>
      <point x="345.1840000000001" y="612.536"/>
      <point x="381.52" y="599.1" type="curve"/>
      <point x="401.5040000000001" y="682.292" type="line"/>
      <point x="362.50800000000004" y="698.56"/>
      <point x="302.568" y="710.0"/>
      <point x="245.70000000000002" y="710.0" type="curve" smooth="yes"/>
      <point x="127.896" y="709.772"/>
      <point x="55.976" y="645.3960000000001"/>
      <point x="55.976" y="534.8079999999999" type="curve" smooth="yes"/>
      <point x="55.976" y="426.34"/>
      <point x="116.84400000000001" y="366.10400000000004"/>
      <point x="191.12400000000002" y="316.40000000000003" type="curve" smooth="yes"/>
      <point x="269.08799999999997" y="267.63599999999997"/>
      <point x="328.136" y="228.71200000000002"/>
      <point x="328.136" y="161.668" type="curve" smooth="yes"/>
      <point x="328.136" y="108.14400000000002"/>
      <point x="289.424" y="76.624"/>
      <point x="218.19600000000003" y="76.624" type="curve" smooth="yes"/>
      <point x="171.464" y="76.624"/>
      <point x="114.01599999999999" y="87.54400000000001"/>
      <point x="61.852" y="106.816" type="curve"/>
      <point x="42.324" y="23.915999999999997" type="line"/>
      <point x="88.352" y="4.272"/>
      <point x="154.936" y="-9.656"/>
    </contour>
    <contour>
      <point x="196.496" y="-105.0" type="line"/>
      <point x="280.652" y="-105.0" type="line"/>
      <point x="280.652" y="9.260000000000002" type="line"/>
      <point x="196.496" y="2.336" type="line"/>
    </contour>
    <contour>
      <point x="196.496" y="691.876" type="line"/>
      <point x="280.652" y="698.464" type="line"/>
      <point x="280.652" y="804.312" type="line"/>
      <point x="196.496" y="804.312" type="line"/>
    </contour>
  </outline>
</glyph>
<glyph name="ampersand" format="2">
  <advance width="545.6139999999999"/>
  <unicode hex="0026"/>
  <outline>
    <contour>
      <point x="435.866" y="-8.064000000000002" type="line"/>
      <point x="542.652" y="-1.598" type="line"/>
      <point x="224.79200000000003" y="417.994" type="line" smooth="yes"/>
      <point x="191.326" y="463.61799999999994"/>
      <point x="178.934" y="500.578"/>
      <point x="178.934" y="535.874" type="curve" smooth="yes"/>
      <point x="178.934" y="593.746"/>
      <point x="205.202" y="623.78"/>
      <point x="256.206" y="623.78" type="curve" smooth="yes"/>
      <point x="304.958" y="623.78"/>
      <point x="328.03" y="593.148"/>
      <point x="328.03" y="539.0319999999999" type="curve" smooth="yes"/>
      <point x="328.03" y="499.008"/>
      <point x="318.21799999999996" y="469.03"/>
      <point x="291.21200000000005" y="446.284" type="curve"/>
      <point x="329.666" y="396.47200000000004" type="line"/>
      <point x="388.19199999999995" y="432.472"/>
      <point x="413.82" y="487.14599999999996"/>
      <point x="413.82" y="557.3720000000001" type="curve" smooth="yes"/>
      <point x="413.82" y="657.486"/>
      <point x="358.6960000000001" y="710.0"/>
      <point x="254.05599999999998" y="710.0" type="curve" smooth="yes"/>
      <point x="136.62" y="710.0"/>
      <point x="80.67399999999999" y="645.9879999999999"/>
      <point x="80.67399999999999" y="536.7340000000002" type="curve" smooth="yes"/>
      <point x="80.67399999999999" y="481.26599999999996"/>
      <point x="99.99199999999999" y="426.78999999999996"/>
      <point x="141.048" y="369.744" type="curve" smooth="yes"/>
    </contour>
    <contour>
      <point x="226.004" y="-10.0" type="curve" smooth="yes"/>
      <point x="297.93800000000005" y="-10.0"/>
      <point x="352.134" y="17.802000000000003"/>
      <point x="393.12600000000003" y="71.846" type="curve"/>
      <point x="348.1" y="135.82799999999997" type="line"/>
      <point x="324.252" y="94.02"/>
      <point x="292.63800000000003" y="70.2"/>
      <point x="236.754" y="70.2" type="curve" smooth="yes"/>
      <point x="164.18" y="70.2"/>
      <point x="117.5" y="121.73800000000001"/>
      <point x="117.5" y="195.312" type="curve" smooth="yes"/>
      <point x="117.5" y="259.47400000000005"/>
      <point x="139.816" y="298.16200000000003"/>
      <point x="187.232" y="336.242" type="curve"/>
      <point x="143.318" y="398.43" type="line"/>
      <point x="61.008" y="347.44000000000005"/>
      <point x="24.83" y="280.234"/>
      <point x="24.83" y="185.42200000000003" type="curve" smooth="yes"/>
      <point x="24.83" y="68.74799999999999"/>
      <point x="100.758" y="-10.0"/>
    </contour>
    <contour>
      <point x="441.808" y="114.872" type="line"/>
      <point x="474.024" y="170.26399999999998"/>
      <point x="494.184" y="236.748"/>
      <point x="494.184" y="310.60599999999994" type="curve" smooth="yes"/>
      <point x="494.184" y="332.83000000000004"/>
      <point x="492.66999999999996" y="350.316"/>
      <point x="489.53000000000003" y="368.85799999999995" type="curve"/>
      <point x="411.19" y="367.03599999999994" type="line"/>
      <point x="413.9" y="351.504"/>
      <point x="414.956" y="337.626"/>
      <point x="414.526" y="320.066" type="curve" smooth="yes"/>
      <point x="414.096" y="268.698"/>
      <point x="404.16200000000003" y="224.66600000000003"/>
      <point x="387.64" y="192.118" type="curve"/>
    </contour>
  </outline>
</glyph>
<glyph name="quotesingle" format="2">
  <advance width="166.932"/>
  <unicode hex="0027"/>
  <outline>
    <contour>
      <point x="43.84" y="427.0" type="line"/>
      <point x="122.05999999999999" y="427.0" type="line"/>
      <point x="128.86599999999999" y="700.0" type="line"/>
      <point x="38.066" y="700.0" type="line"/>
    </contour>
  </outline>
</glyph>
<glyph name="parenleft" format="2">
  <advance width="256.31600000000003"/>
  <unicode hex="0028"/>
  <outline>
    <contour>
      <point x="49.00999999999999" y="265.0" type="curve" smooth="yes"/>
      <point x="49.00999999999999" y="-6.123999999999999"/>
      <point x="110.664" y="-194.15"/>
      <point x="244.14" y="-220.45600000000002" type="curve"/>
      <point x="244.14" y="-137.976" type="line"/>
      <point x="167.78" y="-103.77600000000001"/>
      <point x="130.29399999999998" y="19.492"/>
      <point x="130.29399999999998" y="265.0" type="curve" smooth="yes"/>
      <point x="130.29399999999998" y="510.50800000000004"/>
      <point x="167.78" y="633.7760000000001"/>
      <point x="244.14" y="667.976" type="curve"/>
      <point x="244.14" y="750.456" type="line"/>
      <point x="110.664" y="724.15"/>
      <point x="49.00999999999999" y="536.1240000000001"/>
    </contour>
  </outline>
</glyph>
<glyph name="parenright" format="2">
  <advance width="256.31600000000003"/>
  <unicode hex="0029"/>
  <outline>
    <contour>
      <point x="12.176" y="-137.976" type="curve"/>
      <point x="12.176" y="-220.45600000000002" type="line"/>
      <point x="145.652" y="-194.15"/>
      <point x="207.306" y="-6.123999999999999"/>
      <point x="207.306" y="265.0" type="curve" smooth="yes"/>
      <point x="207.306" y="536.1240000000001"/>
      <point x="145.652" y="724.15"/>
      <point x="12.176" y="750.456" type="curve"/>
      <point x="12.176" y="667.976" type="line"/>
      <point x="88.536" y="633.7760000000001"/>
      <point x="126.022" y="510.50800000000004"/>
      <point x="126.022" y="265.0" type="curve" smooth="yes"/>
      <point x="126.022" y="19.492"/>
      <point x="88.536" y="-103.77600000000001"/>
    </contour>
  </outline>
</glyph>
<glyph name="asterisk" format="2">
  <advance width="296.076"/>
  <unicode hex="002A"/>
  <outline>
    <contour>
      <point x="82.77799999999999" y="388.426" type="line"/>
      <point x="148.152" y="478.43399999999997" type="line"/>
      <point x="213.07" y="388.31199999999995" type="line"/>
      <point x="252.26600000000002" y="415.39799999999997" type="line"/>
      <point x="195.32200000000003" y="513.9639999999999" type="line"/>
      <point x="291.326" y="559.1000000000001" type="line"/>
      <point x="275.86800000000005" y="603.882" type="line"/>
      <point x="177.64800000000002" y="570.8939999999999" type="line"/>
      <point x="172.574" y="687.384" type="line"/>
      <point x="123.73000000000002" y="687.384" type="line"/>
      <point x="118.656" y="570.8939999999999" type="line"/>
      <point x="20.208" y="603.882" type="line"/>
      <point x="4.75" y="559.1000000000001" type="line"/>
      <point x="100.98200000000001" y="513.9639999999999" type="line"/>
      <point x="43.468" y="415.62600000000003" type="line"/>
    </contour>
  </outline>
</glyph>
<glyph name="plus" format="2">
  <advance width="444.29200000000003"/>
  <unicode hex="002B"/>
  <outline>
    <contour>
      <point x="178.348" y="104.594" type="line"/>
      <point x="265.858" y="104.594" type="line"/>
      <point x="265.858" y="263.95" type="line"/>
      <point x="399.71799999999996" y="263.95" type="line"/>
      <point x="399.71799999999996" y="348.02" type="line"/>
      <point x="265.858" y="348.02" type="line"/>
      <point x="265.858" y="507.29" type="line"/>
      <point x="178.348" y="507.29" type="line"/>
      <point x="178.348" y="348.02" type="line"/>
      <point x="44.574000000000005" y="348.02" type="line"/>
      <point x="44.574000000000005" y="263.95" type="line"/>
      <point x="178.348" y="263.95" type="line"/>
    </contour>
  </outline>
</glyph>
<glyph name="comma" format="2">
  <advance width="168.574"/>
  <unicode hex="002C"/>
  <outline>
    <contour>
      <point x="37.082" y="66.426" type="line"/>
      <point x="43.65" y="39.029999999999994"/>
      <point x="46.244" y="12.360000000000001"/>
      <point x="46.244" y="-4.378" type="curve" smooth="yes"/>
      <point x="46.244" y="-61.88"/>
      <point x="27.133999999999997" y="-126.7"/>
      <point x="-13.357999999999997" y="-170.316" type="curve"/>
      <point x="57.586000000000006" y="-193.91199999999998" type="line"/>
      <point x="115.13" y="-139.938"/>
      <point x="138.312" y="-68.39999999999999"/>
      <point x="138.312" y="-3.032000000000001" type="curve" smooth="yes"/>
      <point x="138.312" y="24.757999999999996"/>
      <point x="133.852" y="49.275999999999996"/>
      <point x="126.998" y="71.074" type="curve"/>
    </contour>
  </outline>
</glyph>
<glyph name="hyphen" format="2">
  <advance width="283.252"/>
  <unicode hex="002D"/>
  <outline>
    <contour>
      <point x="29.218000000000004" y="245.97" type="line"/>
      <point x="254.034" y="245.97" type="line"/>
      <point x="254.034" y="335.114" type="line"/>
      <point x="29.218000000000004" y="335.114" type="line"/>
    </contour>
  </outline>
</glyph>
<glyph name="period" format="2">
  <advance width="169.95"/>
  <unicode hex="002E"/>
  <outline>
    <contour>
      <point x="30.700000000000003" y="56.388000000000005" type="curve" smooth="yes"/>
      <point x="30.700000000000003" y="13.986"/>
      <point x="44.886" y="-3.3539999999999996"/>
      <point x="85.03200000000001" y="-3.3539999999999996" type="curve" smooth="yes"/>
      <point x="125.748" y="-3.3539999999999996"/>
      <point x="139.364" y="13.986"/>
      <point x="139.364" y="56.388000000000005" type="curve" smooth="yes"/>
      <point x="139.364" y="99.22"/>
      <point x="125.748" y="116.56"/>
      <point x="85.03200000000001" y="116.56" type="curve" smooth="yes"/>
      <point x="44.315999999999995" y="116.56"/>
      <point x="30.700000000000003" y="99.22"/>
    </contour>
  </outline>
</glyph>
<glyph name="slash" format="2">
  <advance width="326.65799999999996"/>
  <unicode hex="002F"/>
  <outline>
    <contour>
      <point x="-0.528" y="-210.0" type="line"/>
      <point x="81.25000000000001" y="-210.0" type="line"/>
      <point x="327.186" y="740.0" type="line"/>
      <point x="245.06399999999996" y="740.0" type="line"/>
    </contour>
  </outline>
</glyph>
<glyph name="zero" format="2">
  <advance width="466.656"/>
  <unicode hex="0030"/>
  <outline>
    <contour>
      <point x="21.568" y="350.0" type="curve" smooth="yes"/>
      <point x="21.568" y="74.616"/>
      <point x="97.988" y="-10.0"/>
      <point x="233.328" y="-10.0" type="curve" smooth="yes"/>
      <point x="367.80800000000005" y="-10.0"/>
      <point x="445.0880000000001" y="75.99199999999999"/>
      <point x="445.0880000000001" y="350.0" type="curve" smooth="yes"/>
      <point x="445.0880000000001" y="624.808"/>
      <point x="372.968" y="710.0"/>
      <point x="233.328" y="710.0" type="curve" smooth="yes"/>
      <point x="96.95599999999999" y="710.0"/>
      <point x="21.568" y="627.5600000000001"/>
    </contour>
    <contour>
      <point x="121.032" y="345.528" type="curve" smooth="yes"/>
      <point x="121.032" y="578.192"/>
      <point x="165.196" y="624.64"/>
      <point x="233.328" y="624.64" type="curve" smooth="yes"/>
      <point x="301.632" y="624.64"/>
      <point x="345.79600000000005" y="578.536"/>
      <point x="345.79600000000005" y="345.528" type="curve" smooth="yes"/>
      <point x="345.79600000000005" y="124.328"/>
      <point x="302.66400000000004" y="75.36"/>
      <point x="233.328" y="75.36" type="curve" smooth="yes"/>
      <point x="164.16400000000004" y="75.36"/>
      <point x="121.032" y="123.98400000000001"/>
    </contour>
  </outline>
</glyph>
<glyph name="one" format="2">
  <advance width="466.656"/>
  <unicode hex="0031"/>
  <outline>
    <contour>
      <point x="53.102000000000004" y="0.0" type="line"/>
      <point x="439.86800000000005" y="0.0" type="line"/>
      <point x="439.86800000000005" y="84.49999999999999" type="line"/>
      <point x="306.808" y="84.49999999999999" type="line"/>
      <point x="306.808" y="701.14" type="line"/>
      <point x="256.28" y="701.14" type="line"/>
      <point x="37.949999999999996" y="591.922" type="line"/>
      <point x="59.728" y="502.21600000000007" type="line"/>
      <point x="208.37600000000003" y="581.9680000000001" type="line"/>
      <point x="208.37600000000003" y="84.49999999999999" type="line"/>
      <point x="53.102000000000004" y="84.49999999999999" type="line"/>
    </contour>
  </outline>
</glyph>
<glyph name="two" format="2">
  <advance width="467.2"/>
  <unicode hex="0032"/>
  <outline>
    <contour>
      <point x="44.23" y="73.75999999999999" type="curve"/>
      <point x="47.295" y="0.0" type="line"/>
      <point x="430.60499999999996" y="0.0" type="line"/>
      <point x="430.60499999999996" y="84.92999999999999" type="line"/>
      <point x="169.41500000000002" y="84.92999999999999" type="line"/>
      <point x="355.005" y="313.285"/>
      <point x="391.445" y="402.885"/>
      <point x="391.445" y="511.52000000000004" type="curve" smooth="yes"/>
      <point x="391.445" y="639.445"/>
      <point x="326.835" y="710.0"/>
      <point x="213.24499999999998" y="710.0" type="curve" smooth="yes"/>
      <point x="149.415" y="710.0"/>
      <point x="89.155" y="690.4150000000001"/>
      <point x="38.480000000000004" y="649.985" type="curve"/>
      <point x="73.27" y="560.8749999999999" type="line"/>
      <point x="112.27499999999999" y="590.5000000000001"/>
      <point x="150.54999999999998" y="603.4950000000001"/>
      <point x="190.67000000000002" y="603.4950000000001" type="curve" smooth="yes"/>
      <point x="251.91500000000002" y="603.4950000000001"/>
      <point x="288.5950000000001" y="567.74"/>
      <point x="288.5950000000001" y="487.0" type="curve" smooth="yes"/>
      <point x="288.5950000000001" y="399.925"/>
      <point x="237.88500000000002" y="302.30499999999995"/>
    </contour>
  </outline>
</glyph>
<glyph name="three" format="2">
  <advance width="467.20000000000005"/>
  <unicode hex="0033"/>
  <outline>
    <contour>
      <point x="19.88" y="41.635" type="line"/>
      <point x="75.06499999999998" y="5.3500000000000005"/>
      <point x="126.86500000000001" y="-10.0"/>
      <point x="202.395" y="-10.0" type="curve" smooth="yes"/>
      <point x="338.52000000000004" y="-10.0"/>
      <point x="419.77" y="68.86"/>
      <point x="419.77" y="203.07999999999998" type="curve" smooth="yes"/>
      <point x="419.77" y="286.27000000000004"/>
      <point x="381.985" y="346.835"/>
      <point x="311.57" y="371.075" type="curve"/>
      <point x="367.92999999999995" y="399.17"/>
      <point x="399.71999999999997" y="458.52500000000003"/>
      <point x="399.71999999999997" y="531.9250000000001" type="curve" smooth="yes"/>
      <point x="399.71999999999997" y="641.5000000000001"/>
      <point x="327.36" y="710.0"/>
      <point x="208.545" y="710.0" type="curve" smooth="yes"/>
      <point x="139.695" y="710.0"/>
      <point x="79.08500000000001" y="693.1299999999999"/>
      <point x="34.99" y="662.5300000000001" type="curve"/>
      <point x="64.195" y="582.7399999999999" type="line"/>
      <point x="103.42" y="604.32"/>
      <point x="146.78" y="613.8900000000001"/>
      <point x="188.98" y="613.8900000000001" type="curve" smooth="yes"/>
      <point x="261.83000000000004" y="613.8900000000001"/>
      <point x="302.32" y="572.3100000000001"/>
      <point x="302.32" y="506.125" type="curve" smooth="yes"/>
      <point x="302.32" y="442.865"/>
      <point x="268.41999999999996" y="400.28499999999997"/>
      <point x="207.59" y="400.28499999999997" type="curve" smooth="yes"/>
      <point x="124.055" y="400.28499999999997" type="line"/>
      <point x="124.055" y="321.15999999999997" type="line"/>
      <point x="196.6" y="321.15999999999997" type="line" smooth="yes"/>
      <point x="276.96" y="321.15999999999997"/>
      <point x="320.865" y="284.21000000000004"/>
      <point x="320.865" y="209.95999999999998" type="curve" smooth="yes"/>
      <point x="320.865" y="128.51500000000001"/>
      <point x="274.34999999999997" y="81.38000000000001"/>
      <point x="191.93" y="81.38000000000001" type="curve" smooth="yes"/>
      <point x="136.38" y="81.38000000000001"/>
      <point x="94.375" y="93.585"/>
      <point x="53.375" y="118.705" type="curve"/>
    </contour>
  </outline>
</glyph>
<glyph name="four" format="2">
  <advance width="467.20000000000005"/>
  <unicode hex="0034"/>
  <outline>
    <contour>
      <point x="21.06" y="144.83" type="line"/>
      <point x="268.03" y="144.83" type="line"/>
      <point x="268.03" y="0.0" type="line"/>
      <point x="368.01" y="0.0" type="line"/>
      <point x="368.01" y="144.83" type="line"/>
      <point x="449.33" y="144.83" type="line"/>
      <point x="449.33" y="228.47" type="line"/>
      <point x="368.01" y="228.47" type="line"/>
      <point x="368.01" y="699.43" type="line"/>
      <point x="269.59" y="702.85" type="line"/>
      <point x="18.0" y="226.76" type="line"/>
    </contour>
    <contour>
      <point x="101.97999999999999" y="228.47" type="line"/>
      <point x="271.47" y="556.78" type="line"/>
      <point x="271.47" y="228.47" type="line"/>
    </contour>
  </outline>
</glyph>
<glyph name="five" format="2">
  <advance width="467.17199999999997"/>
  <unicode hex="0035"/>
  <outline>
    <contour>
      <point x="30.139999999999997" y="38.727000000000004" type="line"/>
      <point x="81.17999999999999" y="6.700000000000001"/>
      <point x="131.742" y="-9.972000000000001"/>
      <point x="203.808" y="-9.972000000000001" type="curve" smooth="yes"/>
      <point x="339.49299999999994" y="-9.972000000000001"/>
      <point x="430.639" y="68.178"/>
      <point x="430.639" y="214.76999999999998" type="curve" smooth="yes"/>
      <point x="430.639" y="343.818"/>
      <point x="366.69199999999995" y="406.827"/>
      <point x="248.08100000000002" y="408.33200000000005" type="curve" smooth="yes"/>
      <point x="159.176" y="408.762" type="line"/>
      <point x="174.801" y="610.125" type="line"/>
      <point x="402.957" y="610.125" type="line"/>
      <point x="402.957" y="700.0" type="line"/>
      <point x="97.405" y="700.0" type="line"/>
      <point x="64.72999999999999" y="340.422" type="line"/>
      <point x="74.30000000000001" y="328.992" type="line"/>
      <point x="200.894" y="328.992" type="line" smooth="yes"/>
      <point x="293.754" y="328.992"/>
      <point x="330.659" y="289.566"/>
      <point x="330.659" y="211.33" type="curve" smooth="yes"/>
      <point x="330.659" y="130.43200000000002"/>
      <point x="287.185" y="82.698"/>
      <point x="194.563" y="82.698" type="curve" smooth="yes"/>
      <point x="132.181" y="82.698"/>
      <point x="93.919" y="98.94899999999998"/>
      <point x="57.797" y="119.265" type="curve"/>
    </contour>
  </outline>
</glyph>
<glyph name="six" format="2">
  <advance width="467.172"/>
  <unicode hex="0036"/>
  <outline>
    <contour>
      <point x="238.697" y="-10.0" type="curve" smooth="yes"/>
      <point x="369.80600000000004" y="-10.0"/>
      <point x="440.12500000000006" y="73.11200000000001"/>
      <point x="440.12500000000006" y="222.74200000000002" type="curve" smooth="yes"/>
      <point x="440.12500000000006" y="353.6400000000001"/>
      <point x="379.639" y="430.127"/>
      <point x="273.301" y="430.127" type="curve" smooth="yes"/>
      <point x="206.995" y="430.127"/>
      <point x="146.30700000000002" y="398.19599999999997"/>
      <point x="114.465" y="349.153" type="curve"/>
      <point x="117.53" y="269.60900000000004" type="line"/>
      <point x="145.78199999999998" y="319.379"/>
      <point x="191.197" y="352.404"/>
      <point x="241.79900000000004" y="352.404" type="curve" smooth="yes"/>
      <point x="304.96200000000005" y="352.404"/>
      <point x="343.58500000000004" y="304.763"/>
      <point x="343.58500000000004" y="219.18099999999998" type="curve" smooth="yes"/>
      <point x="343.58500000000004" y="125.308"/>
      <point x="304.83199999999994" y="74.061"/>
      <point x="242.23999999999998" y="74.061" type="curve" smooth="yes"/>
      <point x="167.604" y="74.061"/>
      <point x="126.943" y="133.858"/>
      <point x="126.943" y="341.872" type="curve" smooth="yes"/>
      <point x="126.943" y="530.5600000000001"/>
      <point x="164.265" y="621.2090000000001"/>
      <point x="281.105" y="621.2090000000001" type="curve" smooth="yes"/>
      <point x="323.66499999999996" y="621.2090000000001"/>
      <point x="359.899" y="610.0130000000001"/>
      <point x="398.693" y="592.9200000000001" type="curve"/>
      <point x="427.56600000000003" y="673.523" type="line"/>
      <point x="385.94" y="696.467"/>
      <point x="327.96400000000006" y="710.0"/>
      <point x="267.5690000000001" y="710.0" type="curve" smooth="yes"/>
      <point x="106.975" y="710.0"/>
      <point x="25.243000000000002" y="592.156"/>
      <point x="25.243000000000002" y="328.934" type="curve" smooth="yes"/>
      <point x="25.243000000000002" y="88.36599999999999"/>
      <point x="97.36800000000001" y="-10.0"/>
    </contour>
  </outline>
</glyph>
<glyph name="seven" format="2">
  <advance width="467.17199999999997"/>
  <unicode hex="0037"/>
  <outline>
    <contour>
      <point x="140.829" y="0.0" type="curve"/>
      <point x="241.884" y="0.0" type="line"/>
      <point x="243.071" y="129.79200000000003"/>
      <point x="266.42599999999993" y="229.144"/>
      <point x="318.04400000000004" y="354.782" type="curve" smooth="yes"/>
      <point x="431.555" y="631.185" type="line"/>
      <point x="431.555" y="700.0" type="line"/>
      <point x="35.346999999999994" y="700.0" type="line"/>
      <point x="35.346999999999994" y="607.115" type="line"/>
      <point x="320.75100000000003" y="607.115" type="line"/>
      <point x="227.856" y="392.722" type="line" smooth="yes"/>
      <point x="163.96" y="245.30700000000004"/>
      <point x="140.829" y="137.046"/>
    </contour>
  </outline>
</glyph>
<glyph name="eight" format="2">
  <advance width="467.2"/>
  <unicode hex="0038"/>
  <outline>
    <contour>
      <point x="258.37500000000006" y="385.005" type="curve"/>
      <point x="317.66" y="351.065" type="line"/>
      <point x="398.49499999999995" y="404.005"/>
      <point x="429.705" y="466.21999999999997"/>
      <point x="429.705" y="539.34" type="curve" smooth="yes"/>
      <point x="429.705" y="646.9799999999999"/>
      <point x="360.305" y="710.0"/>
      <point x="238.25" y="710.0" type="curve" smooth="yes"/>
      <point x="112.60999999999999" y="710.0"/>
      <point x="41.364999999999995" y="645.34"/>
      <point x="41.364999999999995" y="529.2299999999999" type="curve" smooth="yes"/>
      <point x="41.364999999999995" y="295.46"/>
      <point x="348.865" y="356.24"/>
      <point x="348.865" y="176.025" type="curve" smooth="yes"/>
      <point x="348.865" y="107.71000000000001"/>
      <point x="309.57500000000005" y="70.62999999999998"/>
      <point x="236.685" y="70.62999999999998" type="curve" smooth="yes"/>
      <point x="158.92" y="70.62999999999998"/>
      <point x="116.61499999999998" y="111.565"/>
      <point x="116.61499999999998" y="187.39" type="curve" smooth="yes"/>
      <point x="116.61499999999998" y="256.745"/>
      <point x="143.285" y="302.46"/>
      <point x="202.90499999999997" y="340.445" type="curve"/>
      <point x="143.625" y="380.4" type="line"/>
      <point x="58.15" y="331.26499999999993"/>
      <point x="19.215" y="264.13500000000005"/>
      <point x="19.215" y="179.87499999999997" type="curve" smooth="yes"/>
      <point x="19.215" y="58.29"/>
      <point x="94.25" y="-10.0"/>
      <point x="230.38" y="-10.0" type="curve" smooth="yes"/>
      <point x="373.39" y="-10.0"/>
      <point x="448.415" y="56.794999999999995"/>
      <point x="448.415" y="181.615" type="curve" smooth="yes"/>
      <point x="448.415" y="427.35999999999996"/>
      <point x="135.32500000000002" y="364.70500000000004"/>
      <point x="135.32500000000002" y="531.8" type="curve" smooth="yes"/>
      <point x="135.32500000000002" y="591.9150000000001"/>
      <point x="170.69" y="627.145"/>
      <point x="234.16500000000002" y="627.145" type="curve" smooth="yes"/>
      <point x="302.295" y="627.145"/>
      <point x="338.75500000000005" y="591.4050000000001"/>
      <point x="338.75500000000005" y="524.58" type="curve" smooth="yes"/>
      <point x="338.75500000000005" y="465.71"/>
      <point x="320.645" y="425.62"/>
    </contour>
  </outline>
</glyph>
<glyph name="nine" format="2">
  <advance width="467.172"/>
  <unicode hex="0039"/>
  <outline>
    <contour>
      <point x="198.45299999999997" y="-10.0" type="curve" smooth="yes"/>
      <point x="359.047" y="-10.0"/>
      <point x="439.041" y="107.414"/>
      <point x="439.041" y="369.776" type="curve" smooth="yes"/>
      <point x="439.041" y="610.7739999999999"/>
      <point x="372.506" y="710.0"/>
      <point x="229.28699999999998" y="710.0" type="curve" smooth="yes"/>
      <point x="97.3" y="710.0"/>
      <point x="24.159000000000002" y="627.0559999999999"/>
      <point x="24.159000000000002" y="477.286" type="curve" smooth="yes"/>
      <point x="24.159000000000002" y="345.668"/>
      <point x="85.18700000000001" y="269.87299999999993"/>
      <point x="193.13299999999998" y="269.87299999999993" type="curve" smooth="yes"/>
      <point x="256.859" y="269.87299999999993"/>
      <point x="317.117" y="300.738"/>
      <point x="349.819" y="349.78099999999995" type="curve"/>
      <point x="351.296" y="434.74500000000006" type="line"/>
      <point x="320.34299999999996" y="378.14400000000006"/>
      <point x="272.6569999999999" y="347.59599999999995"/>
      <point x="222.48499999999999" y="347.59599999999995" type="curve" smooth="yes"/>
      <point x="160.57399999999998" y="347.59599999999995"/>
      <point x="120.26899999999999" y="394.97499999999997"/>
      <point x="120.26899999999999" y="481.27700000000004" type="curve" smooth="yes"/>
      <point x="120.26899999999999" y="575.29"/>
      <point x="162.27399999999997" y="625.9389999999999"/>
      <point x="226.17400000000004" y="625.9389999999999" type="curve" smooth="yes"/>
      <point x="302.27000000000004" y="625.9389999999999"/>
      <point x="337.341" y="566.1419999999999"/>
      <point x="337.341" y="358.12799999999993" type="curve" smooth="yes"/>
      <point x="337.341" y="169.43999999999997"/>
      <point x="301.327" y="78.79100000000003"/>
      <point x="184.917" y="78.79100000000003" type="curve" smooth="yes"/>
      <point x="141.927" y="78.79100000000003"/>
      <point x="104.385" y="89.98699999999998"/>
      <point x="65.591" y="107.08" type="curve"/>
      <point x="36.717999999999996" y="27.337" type="line"/>
      <point x="78.34399999999998" y="4.393"/>
      <point x="138.05800000000002" y="-10.0"/>
    </contour>
  </outline>
</glyph>
<glyph name="less" format="2">
  <advance width="444.29200000000003"/>
  <unicode hex="003C"/>
  <outline>
    <contour>
      <point x="406.486" y="87.408" type="line"/>
      <point x="406.486" y="168.02599999999998" type="line"/>
      <point x="127.006" y="299.86199999999997" type="line"/>
      <point x="406.486" y="432.64" type="line"/>
      <point x="406.486" y="512.0600000000001" type="line"/>
      <point x="37.806" y="341.42400000000004" type="line"/>
      <point x="37.806" y="258.04200000000003" type="line"/>
    </contour>
  </outline>
</glyph>
<glyph name="equal" format="2">
  <advance width="437.412"/>
  <unicode hex="003D"/>
  <outline>
    <contour>
      <point x="392.838" y="234.324" type="line"/>
      <point x="44.574000000000005" y="234.324" type="line"/>
      <point x="44.574000000000005" y="150.25400000000002" type="line"/>
      <point x="392.838" y="150.25400000000002" type="line"/>
    </contour>
    <contour>
      <point x="392.838" y="450.698" type="line"/>
      <point x="44.574000000000005" y="450.698" type="line"/>
      <point x="44.574000000000005" y="366.628" type="line"/>
      <point x="392.838" y="366.628" type="line"/>
    </contour>
  </outline>
</glyph>
<glyph name="greater" format="2">
  <advance width="444.29200000000003"/>
  <unicode hex="003E"/>
  <outline>
    <contour>
      <point x="406.486" y="257.586" type="line"/>
      <point x="406.486" y="340.968" type="line"/>
      <point x="37.806" y="512.0600000000001" type="line"/>
      <point x="37.806" y="431.614" type="line"/>
      <point x="317.286" y="299.406" type="line"/>
      <point x="37.806" y="167.11399999999998" type="line"/>
      <point x="37.806" y="87.408" type="line"/>
    </contour>
  </outline>
</glyph>
<glyph name="question" format="2">
  <advance width="371.088"/>
  <unicode hex="003F"/>
  <outline>
    <contour>
      <point x="127.80799999999999" y="261.508" type="line"/>
      <point x="213.426" y="261.508" type="line"/>
      <point x="213.59799999999998" y="333.496" type="line"/>
      <point x="311.20599999999996" y="391.904"/>
      <point x="354.73199999999997" y="453.23999999999995"/>
      <point x="354.73199999999997" y="558.93" type="curve" smooth="yes"/>
      <point x="354.73199999999997" y="689.83"/>
      <point x="274.366" y="749.6560000000001"/>
      <point x="172.23999999999998" y="749.6560000000001" type="curve" smooth="yes"/>
      <point x="113.55799999999999" y="749.6560000000001"/>
      <point x="51.839999999999996" y="727.2819999999999"/>
      <point x="8.972" y="692.1160000000001" type="curve"/>
      <point x="43.018" y="610.2620000000001" type="line"/>
      <point x="83.67200000000001" y="641.614"/>
      <point x="122.10000000000001" y="653.228"/>
      <point x="157.878" y="653.228" type="curve" smooth="yes"/>
      <point x="211.46800000000002" y="653.228"/>
      <point x="253.436" y="614.282"/>
      <point x="253.436" y="545.652" type="curve" smooth="yes"/>
      <point x="253.436" y="481.802"/>
      <point x="228.328" y="433.752"/>
      <point x="125.83" y="377.608" type="curve"/>
    </contour>
    <contour>
      <point x="116.67" y="55.356" type="curve" smooth="yes"/>
      <point x="116.67" y="12.953999999999999"/>
      <point x="131.424" y="-4.386"/>
      <point x="171.458" y="-4.386" type="curve" smooth="yes"/>
      <point x="211.374" y="-4.386"/>
      <point x="225.79" y="12.953999999999999"/>
      <point x="225.79" y="55.356" type="curve" smooth="yes"/>
      <point x="225.79" y="98.18799999999999"/>
      <point x="211.374" y="115.52799999999999"/>
      <point x="171.458" y="115.52799999999999" type="curve" smooth="yes"/>
      <point x="130.39799999999997" y="115.52799999999999"/>
      <point x="116.67" y="98.18799999999999"/>
    </contour>
  </outline>
</glyph>
<glyph name="at" format="2">
  <advance width="680.8919999999999"/>
  <unicode hex="0040"/>
  <outline>
    <contour>
      <point x="341.024" y="-123.86" type="curve" smooth="yes"/>
      <point x="405.49199999999996" y="-123.86"/>
      <point x="474.696" y="-100.52"/>
      <point x="513.352" y="-72.8" type="curve"/>
      <point x="495.59200000000004" y="-29.664" type="line"/>
      <point x="455.13599999999997" y="-54.31999999999999"/>
      <point x="401.7" y="-72.43599999999999"/>
      <point x="343.60400000000004" y="-72.43599999999999" type="curve" smooth="yes"/>
      <point x="188.54800000000003" y="-72.43599999999999"/>
      <point x="87.97200000000001" y="12.235999999999999"/>
      <point x="87.97200000000001" y="266.048" type="curve" smooth="yes"/>
      <point x="87.97200000000001" y="494.456"/>
      <point x="168.11999999999998" y="661.268"/>
      <point x="349.384" y="661.268" type="curve" smooth="yes"/>
      <point x="531.232" y="661.268"/>
      <point x="597.1600000000001" y="547.6640000000001"/>
      <point x="597.1600000000001" y="341.884" type="curve" smooth="yes"/>
      <point x="597.1600000000001" y="213.70399999999998"/>
      <point x="570.58" y="117.49600000000001"/>
      <point x="527.78" y="117.49600000000001" type="curve" smooth="yes"/>
      <point x="499.156" y="117.49600000000001"/>
      <point x="475.47999999999996" y="139.944"/>
      <point x="482.108" y="248.224" type="curve" smooth="yes"/>
      <point x="499.924" y="516.896" type="line"/>
      <point x="452.972" y="535.632"/>
      <point x="408.352" y="545.784"/>
      <point x="360.964" y="545.784" type="curve" smooth="yes"/>
      <point x="231.99200000000002" y="545.784"/>
      <point x="176.432" y="417.988"/>
      <point x="176.432" y="264.268" type="curve" smooth="yes"/>
      <point x="176.432" y="112.592"/>
      <point x="222.36" y="57.524"/>
      <point x="289.024" y="57.524" type="curve" smooth="yes"/>
      <point x="350.55600000000004" y="57.524"/>
      <point x="383.776" y="104.36"/>
      <point x="409.292" y="180.604" type="curve"/>
      <point x="417.55600000000004" y="90.05999999999999"/>
      <point x="446.796" y="52.288000000000004"/>
      <point x="511.24000000000007" y="52.288000000000004" type="curve" smooth="yes"/>
      <point x="608.452" y="52.288000000000004"/>
      <point x="652.908" y="184.06799999999998"/>
      <point x="652.908" y="348.07599999999996" type="curve" smooth="yes"/>
      <point x="652.908" y="589.364"/>
      <point x="550.3960000000001" y="709.972"/>
      <point x="357.124" y="709.972" type="curve" smooth="yes"/>
      <point x="132.76000000000002" y="709.972"/>
      <point x="28.927999999999997" y="525.4399999999999"/>
      <point x="28.927999999999997" y="270.52" type="curve" smooth="yes"/>
      <point x="28.927999999999997" y="-13.868"/>
      <point x="148.59599999999998" y="-123.86"/>
    </contour>
    <contour>
      <point x="322.96000000000004" y="143.716" type="curve" smooth="yes"/>
      <point x="295.5160000000001" y="143.716"/>
      <point x="273.316" y="173.784"/>
      <point x="273.316" y="264.09600000000006" type="curve" smooth="yes"/>
      <point x="273.316" y="367.16400000000004"/>
      <point x="301.87600000000003" y="477.736"/>
      <point x="358.76" y="477.736" type="curve" smooth="yes"/>
      <point x="374.088" y="477.736"/>
      <point x="391.31600000000003" y="473.54"/>
      <point x="408.88800000000003" y="466.71999999999997" type="curve"/>
      <point x="398.44" y="337.58" type="line" smooth="yes"/>
      <point x="381.368" y="170.17600000000002"/>
      <point x="358.87199999999996" y="143.716"/>
    </contour>
  </outline>
</glyph>
<glyph name="A" format="2">
  <advance width="486.228"/>
  <unicode hex="0041"/>
  <anchor x="474.93600000000004" y="0.0" name="ogonek"/>
  <anchor x="241.76400000000004" y="0.0" name="bottom"/>
  <anchor x="243.31200000000004" y="700.0" name="top"/>
  <outline>
    <contour>
      <point x="11.464" y="0.0" type="line"/>
      <point x="113.22000000000001" y="0.0" type="line"/>
      <point x="151.272" y="165.12799999999996" type="line"/>
      <point x="331.572" y="165.12799999999996" type="line"/>
      <point x="370.05600000000004" y="0.0" type="line"/>
      <point x="474.93600000000004" y="0.0" type="line"/>
      <point x="305.008" y="705.7" type="line"/>
      <point x="180.35600000000002" y="705.7" type="line"/>
    </contour>
    <contour>
      <point x="167.28000000000003" y="259.464" type="line"/>
      <point x="241.88" y="614.936" type="line"/>
      <point x="315.592" y="259.464" type="line"/>
    </contour>
  </outline>
</glyph>
<glyph name="B" format="2">
  <advance width="485.06"/>
  <unicode hex="0042"/>
  <anchor x="236.96" y="700.0" name="top"/>
  <anchor x="236.96" y="0.0" name="bottom"/>
  <outline>
    <contour>
      <point x="49.85699999999999" y="0.11299999999999957" type="line"/>
      <point x="145.94" y="-8.299000000000001"/>
      <point x="167.23600000000002" y="-10.0"/>
      <point x="235.56799999999998" y="-10.0" type="curve" smooth="yes"/>
      <point x="397.14400000000006" y="-10.0"/>
      <point x="461.379" y="51.963"/>
      <point x="461.379" y="195.984" type="curve" smooth="yes"/>
      <point x="461.379" y="284.861"/>
      <point x="419.25800000000004" y="349.749"/>
      <point x="347.72600000000006" y="373.115" type="curve"/>
      <point x="347.72600000000006" y="374.788" type="line"/>
      <point x="402.548" y="400.434"/>
      <point x="434.201" y="460.56300000000005"/>
      <point x="434.201" y="536.748" type="curve" smooth="yes"/>
      <point x="434.201" y="657.0"/>
      <point x="375.171" y="710.0"/>
      <point x="233.26" y="710.0" type="curve" smooth="yes"/>
      <point x="184.59400000000002" y="710.0"/>
      <point x="128.113" y="706.4390000000001"/>
      <point x="49.85699999999999" y="698.803" type="curve"/>
    </contour>
    <contour>
      <point x="149.837" y="393.688" type="line"/>
      <point x="149.837" y="617.387" type="line"/>
      <point x="189.22600000000003" y="621.499"/>
      <point x="199.786" y="622.499"/>
      <point x="231.27900000000002" y="622.499" type="curve" smooth="yes"/>
      <point x="310.15099999999995" y="622.499"/>
      <point x="342.176" y="586.773"/>
      <point x="342.176" y="509.013" type="curve" smooth="yes"/>
      <point x="342.176" y="440.907"/>
      <point x="308.628" y="393.688"/>
      <point x="255.20299999999997" y="393.688" type="curve" smooth="yes"/>
    </contour>
    <contour>
      <point x="149.837" y="82.211" type="curve"/>
      <point x="149.837" y="313.703" type="line"/>
      <point x="256.305" y="313.703" type="line" smooth="yes"/>
      <point x="325.356" y="313.703"/>
      <point x="360.75399999999996" y="271.717"/>
      <point x="360.75399999999996" y="199.48" type="curve" smooth="yes"/>
      <point x="360.75399999999996" y="112.80600000000001"/>
      <point x="326.907" y="77.58499999999998"/>
      <point x="232.727" y="77.58499999999998" type="curve" smooth="yes"/>
      <point x="211.16799999999998" y="77.58499999999998"/>
      <point x="191.262" y="79.071"/>
    </contour>
  </outline>
</glyph>
<glyph name="C" format="2">
  <advance width="449.146"/>
  <unicode hex="0043"/>
  <anchor x="259.522" y="700.0" name="top"/>
  <anchor x="260.442" y="0.0" name="bottom"/>
  <outline>
    <contour>
      <point x="29.447999999999993" y="340.15599999999995" type="curve" smooth="yes"/>
      <point x="29.447999999999993" y="75.518"/>
      <point x="111.42999999999999" y="-10.0"/>
      <point x="267.61" y="-10.0" type="curve" smooth="yes"/>
      <point x="329.986" y="-10.0"/>
      <point x="385.048" y="-1.676"/>
      <point x="429.44" y="14.022" type="curve"/>
      <point x="411.796" y="99.7" type="line"/>
      <point x="375.334" y="88.5"/>
      <point x="323.346" y="80.89800000000001"/>
      <point x="284.14799999999997" y="80.89800000000001" type="curve" smooth="yes"/>
      <point x="181.508" y="80.89800000000001"/>
      <point x="130.03" y="140.67"/>
      <point x="130.03" y="339.382" type="curve" smooth="yes"/>
      <point x="130.03" y="555.614"/>
      <point x="182.934" y="618.56"/>
      <point x="287.85" y="618.56" type="curve" smooth="yes"/>
      <point x="326.646" y="618.56"/>
      <point x="360.338" y="613.7280000000001"/>
      <point x="401.378" y="602.3260000000001" type="curve"/>
      <point x="421.258" y="687.72" type="line"/>
      <point x="377.84400000000005" y="703.104"/>
      <point x="333.55400000000003" y="710.0"/>
      <point x="276.816" y="710.0" type="curve" smooth="yes"/>
      <point x="111.18599999999999" y="710.0"/>
      <point x="29.447999999999993" y="609.762"/>
    </contour>
  </outline>
</glyph>
<glyph name="D" format="2">
  <advance width="510.31"/>
  <unicode hex="0044"/>
  <anchor x="246.698" y="700.0" name="top"/>
  <outline>
    <contour>
      <point x="229.268" y="-10.0" type="curve" smooth="yes"/>
      <point x="402.404" y="-10.0"/>
      <point x="480.733" y="95.477"/>
      <point x="480.733" y="350.20599999999996" type="curve" smooth="yes"/>
      <point x="480.733" y="605.308"/>
      <point x="410.732" y="710.0"/>
      <point x="226.42700000000005" y="710.0" type="curve" smooth="yes"/>
      <point x="165.815" y="710.0"/>
      <point x="112.65400000000001" y="707.327"/>
      <point x="49.85699999999999" y="700.8779999999999" type="curve"/>
      <point x="49.85699999999999" y="-2.822" type="line"/>
      <point x="104.61599999999999" y="-7.140000000000001"/>
      <point x="165.02" y="-10.0"/>
    </contour>
    <contour>
      <point x="232.80400000000006" y="76.211" type="curve" smooth="yes"/>
      <point x="207.916" y="76.211"/>
      <point x="175.574" y="77.753"/>
      <point x="149.62200000000004" y="80.052" type="curve"/>
      <point x="149.62200000000004" y="618.9759999999999" type="line"/>
      <point x="174.78799999999998" y="621.0880000000001"/>
      <point x="207.57999999999998" y="622.602"/>
      <point x="231.075" y="622.602" type="curve" smooth="yes"/>
      <point x="335.82200000000006" y="622.602"/>
      <point x="377.38800000000003" y="558.1680000000001"/>
      <point x="377.38800000000003" y="348.944" type="curve" smooth="yes"/>
      <point x="377.38800000000003" y="146.001"/>
      <point x="333.84999999999997" y="76.211"/>
    </contour>
  </outline>
</glyph>
<glyph name="E" format="2">
  <advance width="432.09499999999997"/>
  <unicode hex="0045"/>
  <anchor x="412.82399999999996" y="0.0" name="ogonek"/>
  <anchor x="231.303" y="0.0" name="bottom"/>
  <anchor x="228.93000000000004" y="700.0" name="top"/>
  <outline>
    <contour>
      <point x="49.85699999999999" y="0.0" type="line"/>
      <point x="413.25399999999996" y="0.0" type="line"/>
      <point x="413.25399999999996" y="93.53" type="line"/>
      <point x="150.267" y="93.53" type="line"/>
      <point x="150.267" y="314.112" type="line"/>
      <point x="378.00100000000003" y="314.112" type="line"/>
      <point x="378.00100000000003" y="404.73499999999996" type="line"/>
      <point x="150.267" y="404.73499999999996" type="line"/>
      <point x="150.267" y="605.3949999999999" type="line"/>
      <point x="399.067" y="605.3949999999999" type="line"/>
      <point x="399.067" y="700.0" type="line"/>
      <point x="49.85699999999999" y="700.0" type="line"/>
    </contour>
  </outline>
</glyph>
<glyph name="F" format="2">
  <advance width="409.85200000000003"/>
  <unicode hex="0046"/>
  <outline>
    <contour>
      <point x="49.85699999999999" y="0.0" type="line"/>
      <point x="150.48200000000003" y="0.0" type="line"/>
      <point x="150.48200000000003" y="279.884" type="line"/>
      <point x="360.32" y="279.884" type="line"/>
      <point x="360.32" y="373.302" type="line"/>
      <point x="149.62200000000004" y="373.302" type="line"/>
      <point x="149.62200000000004" y="604.535" type="line"/>
      <point x="397.56200000000007" y="604.535" type="line"/>
      <point x="397.56200000000007" y="700.0" type="line"/>
      <point x="49.85699999999999" y="700.0" type="line"/>
    </contour>
  </outline>
</glyph>
<glyph name="G" format="2">
  <advance width="484.682"/>
  <unicode hex="0047"/>
  <anchor x="258.79" y="700.0" name="top"/>
  <anchor x="259.41" y="0.0" name="bottom"/>
  <outline>
    <contour>
      <point x="29.447999999999993" y="340.844" type="curve" smooth="yes"/>
      <point x="29.447999999999993" y="100.374"/>
      <point x="102.24600000000001" y="-10.0"/>
      <point x="257.566" y="-10.0" type="curve" smooth="yes"/>
      <point x="332.424" y="-10.0"/>
      <point x="397.486" y="2.188"/>
      <point x="445.94599999999997" y="27.2" type="curve"/>
      <point x="445.94599999999997" y="370.008" type="line"/>
      <point x="250.43" y="370.008" type="line"/>
      <point x="250.43" y="283.9" type="line"/>
      <point x="355.082" y="283.9" type="line"/>
      <point x="355.082" y="88.328" type="line"/>
      <point x="332.056" y="80.10799999999999"/>
      <point x="302.058" y="76.082"/>
      <point x="265.24600000000004" y="76.082" type="curve" smooth="yes"/>
      <point x="173.65800000000002" y="76.082"/>
      <point x="129.34199999999998" y="152.07399999999998"/>
      <point x="129.34199999999998" y="336.974" type="curve" smooth="yes"/>
      <point x="129.34199999999998" y="534.8979999999999"/>
      <point x="178.21" y="619.2479999999999"/>
      <point x="283.4" y="619.2479999999999" type="curve" smooth="yes"/>
      <point x="323.372" y="619.2479999999999"/>
      <point x="368.512" y="612.528"/>
      <point x="409.43199999999996" y="600.5" type="curve"/>
      <point x="427.67800000000005" y="686.354" type="line"/>
      <point x="384.686" y="701.22"/>
      <point x="329.268" y="710.0"/>
      <point x="274.086" y="710.0" type="curve" smooth="yes"/>
      <point x="107.91" y="710.0"/>
      <point x="29.447999999999993" y="594.7139999999999"/>
    </contour>
  </outline>
</glyph>
<glyph name="H" format="2">
  <advance width="524.3620000000001"/>
  <unicode hex="0048"/>
  <anchor x="262.41" y="700.0" name="top"/>
  <outline>
    <contour>
      <point x="49.81399999999999" y="0.0" type="line"/>
      <point x="148.93400000000003" y="0.0" type="line"/>
      <point x="148.93400000000003" y="262.33400000000006" type="line"/>
      <point x="375.428" y="262.33400000000006" type="line"/>
      <point x="375.428" y="0.0" type="line"/>
      <point x="474.54799999999994" y="0.0" type="line"/>
      <point x="474.54799999999994" y="700.0" type="line"/>
      <point x="375.428" y="700.0" type="line"/>
      <point x="375.428" y="357.558" type="line"/>
      <point x="148.93400000000003" y="357.558" type="line"/>
      <point x="148.93400000000003" y="700.0" type="line"/>
      <point x="49.81399999999999" y="700.0" type="line"/>
    </contour>
  </outline>
</glyph>
<glyph name="I" format="2">
  <advance width="198.748"/>
  <unicode hex="0049"/>
  <anchor x="148.93400000000003" y="0.0" name="ogonek"/>
  <anchor x="99.54599999999999" y="0.0" name="bottom"/>
  <anchor x="99.54599999999999" y="700.0" name="top"/>
  <outline>
    <contour>
      <point x="49.81399999999999" y="0.0" type="line"/>
      <point x="148.93400000000003" y="0.0" type="line"/>
      <point x="148.93400000000003" y="700.0" type="line"/>
      <point x="49.81399999999999" y="700.0" type="line"/>
    </contour>
  </outline>
</glyph>
<glyph name="J" format="2">
  <advance width="366.022"/>
  <unicode hex="004A"/>
  <anchor x="185.024" y="700.0" name="top"/>
  <outline>
    <contour>
      <point x="6.618" y="14.974" type="line"/>
      <point x="50.624" y="-0.41400000000000037"/>
      <point x="102.03" y="-10.113999999999999"/>
      <point x="151.66400000000002" y="-10.113999999999999" type="curve" smooth="yes"/>
      <point x="273.296" y="-10.113999999999999"/>
      <point x="323.19800000000004" y="56.566"/>
      <point x="323.19800000000004" y="175.13400000000001" type="curve" smooth="yes"/>
      <point x="323.19800000000004" y="700.0" type="line"/>
      <point x="41.026" y="700.0" type="line"/>
      <point x="41.026" y="606.41" type="line"/>
      <point x="224.078" y="606.41" type="line"/>
      <point x="224.078" y="201.716" type="line" smooth="yes"/>
      <point x="224.078" y="109.984"/>
      <point x="190.342" y="80.638"/>
      <point x="121.822" y="80.638" type="curve" smooth="yes"/>
      <point x="94.976" y="80.638"/>
      <point x="59.068000000000005" y="86.356"/>
      <point x="24.976000000000003" y="96.24000000000001" type="curve"/>
    </contour>
  </outline>
</glyph>
<glyph name="K" format="2">
  <advance width="488.31"/>
  <unicode hex="004B"/>
  <anchor x="245.48" y="700.0" name="top"/>
  <anchor x="252.92000000000002" y="0.0" name="bottom"/>
  <outline>
    <contour>
      <point x="455.68" y="-10.0" type="curve" smooth="yes"/>
      <point x="461.69" y="-10.0"/>
      <point x="467.97999999999996" y="-10.0"/>
      <point x="476.56" y="-8.0" type="curve"/>
      <point x="476.56" y="104.09" type="line"/>
      <point x="472.7" y="103.95"/>
      <point x="468.34000000000003" y="103.95"/>
      <point x="464.98" y="103.95" type="curve" smooth="yes"/>
      <point x="437.77" y="104.02"/>
      <point x="411.39" y="115.94"/>
      <point x="349.33" y="194.75" type="curve" smooth="yes"/>
      <point x="150.07999999999998" y="448.53" type="line"/>
      <point x="150.07999999999998" y="700.0" type="line"/>
      <point x="50.1" y="700.0" type="line"/>
      <point x="50.1" y="0.0" type="line"/>
      <point x="150.07999999999998" y="0.0" type="line"/>
      <point x="150.07999999999998" y="293.92999999999995" type="line"/>
      <point x="316.84999999999997" y="83.49" type="line" smooth="yes"/>
      <point x="368.61" y="18.05"/>
      <point x="408.29" y="-10.0"/>
    </contour>
    <contour>
      <point x="237.79" y="290.6" type="line"/>
      <point x="331.28999999999996" y="377.07"/>
      <point x="422.79999999999995" y="502.54999999999995"/>
      <point x="467.13" y="672.92" type="curve"/>
      <point x="385.42" y="703.43" type="line"/>
      <point x="339.37" y="544.3"/>
      <point x="246.12" y="426.16999999999996"/>
      <point x="179.06" y="360.27" type="curve"/>
    </contour>
  </outline>
</glyph>
<glyph name="L" format="2">
  <advance width="395.67"/>
  <unicode hex="004C"/>
  <anchor x="198.064" y="350.0" name="center"/>
  <anchor x="99.54599999999999" y="700.0" name="top"/>
  <anchor x="254.71999999999997" y="700.0" name="topright"/>
  <anchor x="216.554" y="0.0" name="bottom"/>
  <outline>
    <contour>
      <point x="49.81399999999999" y="0.0" type="line"/>
      <point x="384.09" y="0.0" type="line"/>
      <point x="384.09" y="92.816" type="line"/>
      <point x="149.278" y="92.816" type="line"/>
      <point x="149.278" y="700.0" type="line"/>
      <point x="49.81399999999999" y="700.0" type="line"/>
    </contour>
  </outline>
</glyph>
<glyph name="M" format="2">
  <advance width="594.672"/>
  <unicode hex="004D"/>
  <outline>
    <contour>
      <point x="50.013999999999996" y="0.0" type="line"/>
      <point x="140.792" y="0.0" type="line"/>
      <point x="140.792" y="531.304" type="line"/>
      <point x="271.15799999999996" y="212.06" type="line"/>
      <point x="321.396" y="212.06" type="line"/>
      <point x="453.88" y="532.766" type="line"/>
      <point x="453.88" y="0.0" type="line"/>
      <point x="544.658" y="0.0" type="line"/>
      <point x="544.658" y="700.0" type="line"/>
      <point x="443.92" y="700.0" type="line"/>
      <point x="299.212" y="351.24399999999997" type="line"/>
      <point x="154.692" y="700.0" type="line"/>
      <point x="50.013999999999996" y="700.0" type="line"/>
    </contour>
  </outline>
</glyph>
<glyph name="N" format="2">
  <advance width="521.135"/>
  <unicode hex="004E"/>
  <anchor x="260.71" y="700.0" name="top"/>
  <anchor x="260.71" y="0.0" name="bottom"/>
  <outline>
    <contour>
      <point x="49.885" y="0.0" type="line"/>
      <point x="139.115" y="0.0" type="line"/>
      <point x="139.115" y="500.21500000000003" type="line"/>
      <point x="372.91999999999996" y="-0.86" type="line"/>
      <point x="471.25" y="-0.86" type="line"/>
      <point x="471.25" y="700.0" type="line"/>
      <point x="382.02000000000004" y="700.0" type="line"/>
      <point x="382.02000000000004" y="189.32500000000002" type="line"/>
      <point x="148.36" y="701.14" type="line"/>
      <point x="49.885" y="701.14" type="line"/>
    </contour>
  </outline>
</glyph>
<glyph name="O" format="2">
  <advance width="523.895"/>
  <unicode hex="004F"/>
  <anchor x="322.73" y="3.87" name="ogonek"/>
  <anchor x="261.27" y="700.0" name="top"/>
  <anchor x="392.995" y="689.52" name="topright"/>
  <anchor x="261.48499999999996" y="0.0" name="bottom"/>
  <outline>
    <contour>
      <point x="261.27" y="76.87" type="curve" smooth="yes"/>
      <point x="183.995" y="76.87"/>
      <point x="131.305" y="129.89"/>
      <point x="131.305" y="349.215" type="curve" smooth="yes"/>
      <point x="131.305" y="571.5350000000001"/>
      <point x="183.565" y="623.99"/>
      <point x="261.27" y="623.99" type="curve" smooth="yes"/>
      <point x="340.405" y="623.99"/>
      <point x="392.305" y="571.82"/>
      <point x="392.305" y="349.86" type="curve" smooth="yes"/>
      <point x="392.305" y="129.9"/>
      <point x="340.405" y="76.87"/>
    </contour>
    <contour>
      <point x="261.48499999999996" y="-10.0" type="curve" smooth="yes"/>
      <point x="407.005" y="-10.0"/>
      <point x="493.86" y="69.67999999999999"/>
      <point x="493.86" y="351.50500000000005" type="curve" smooth="yes"/>
      <point x="493.86" y="630.32"/>
      <point x="407.945" y="710.0"/>
      <point x="261.27" y="710.0" type="curve" smooth="yes"/>
      <point x="115.02499999999998" y="710.0"/>
      <point x="30.034999999999997" y="629.39"/>
      <point x="30.034999999999997" y="349.43" type="curve" smooth="yes"/>
      <point x="30.034999999999997" y="71.03"/>
      <point x="116.95999999999998" y="-10.0"/>
    </contour>
  </outline>
</glyph>
<glyph name="P" format="2">
  <advance width="478.67"/>
  <unicode hex="0050"/>
  <outline>
    <contour>
      <point x="49.81399999999999" y="0.0" type="line"/>
      <point x="149.278" y="0.0" type="line"/>
      <point x="149.278" y="231.39" type="line"/>
      <point x="195.78400000000002" y="228.758"/>
      <point x="208.01399999999998" y="228.644"/>
      <point x="251.68999999999997" y="228.644" type="curve" smooth="yes"/>
      <point x="397.942" y="228.644"/>
      <point x="458.20400000000006" y="301.946"/>
      <point x="458.20400000000006" y="476.874" type="curve" smooth="yes"/>
      <point x="458.20400000000006" y="644.352"/>
      <point x="407.858" y="710.0"/>
      <point x="228.794" y="710.0" type="curve" smooth="yes"/>
      <point x="198.816" y="710.0"/>
      <point x="142.22400000000002" y="708.2579999999999"/>
      <point x="49.81399999999999" y="702.5120000000001" type="curve"/>
    </contour>
    <contour>
      <point x="149.622" y="619.75" type="line"/>
      <point x="193.81799999999998" y="623.4060000000001"/>
      <point x="213.794" y="624.09"/>
      <point x="235.7" y="624.09" type="curve" smooth="yes"/>
      <point x="334.166" y="624.09"/>
      <point x="358.138" y="582.068"/>
      <point x="358.138" y="479.548" type="curve" smooth="yes"/>
      <point x="358.138" y="358.886"/>
      <point x="327.36400000000003" y="314.692"/>
      <point x="228.66799999999998" y="314.692" type="curve" smooth="yes"/>
      <point x="198.966" y="314.692"/>
      <point x="180.99" y="315.12000000000006"/>
      <point x="149.622" y="316.95" type="curve"/>
    </contour>
  </outline>
</glyph>
<glyph name="Q" format="2">
  <advance width="524.0239999999999"/>
  <unicode hex="0051"/>
  <outline>
    <contour>
      <point x="332.016" y="25.532" type="curve"/>
      <point x="252.29999999999995" y="5.175999999999999" type="line"/>
      <point x="278.988" y="-134.8"/>
      <point x="315.21200000000005" y="-192.558"/>
      <point x="390.30999999999995" y="-192.558" type="curve" smooth="yes"/>
      <point x="413.782" y="-192.558"/>
      <point x="440.308" y="-186.988"/>
      <point x="465.86199999999997" y="-176.934" type="curve"/>
      <point x="453.17" y="-87.866" type="line"/>
      <point x="437.20599999999996" y="-95.35600000000001"/>
      <point x="420.99" y="-99.668"/>
      <point x="407.07000000000005" y="-99.668" type="curve" smooth="yes"/>
      <point x="370.266" y="-99.668"/>
      <point x="351.27000000000004" y="-64.718"/>
    </contour>
    <component base="O"/>
  </outline>
</glyph>
<glyph name="R" format="2">
  <advance width="503.72"/>
  <unicode hex="0052"/>
  <anchor x="245.48999999999998" y="700.0" name="top"/>
  <anchor x="251.89999999999998" y="0.0" name="bottom"/>
  <outline>
    <contour>
      <point x="463.35" y="-10.0" type="curve" smooth="yes"/>
      <point x="477.45" y="-10.0"/>
      <point x="486.82" y="-7.5"/>
      <point x="494.19" y="-6.0" type="curve"/>
      <point x="492.04999999999995" y="95.42" type="line"/>
      <point x="489.41" y="95.28"/>
      <point x="481.55" y="94.71000000000001"/>
      <point x="479.54999999999995" y="94.71000000000001" type="curve" smooth="yes"/>
      <point x="443.97" y="94.71000000000001"/>
      <point x="405.86" y="130.12"/>
      <point x="338.0" y="288.41999999999996" type="curve"/>
      <point x="413.48" y="316.31"/>
      <point x="455.05" y="384.54999999999995"/>
      <point x="455.05" y="500.95000000000005" type="curve" smooth="yes"/>
      <point x="455.05" y="652.53"/>
      <point x="387.08" y="710.0"/>
      <point x="230.45" y="710.0" type="curve" smooth="yes"/>
      <point x="173.76000000000002" y="710.0"/>
      <point x="119.11" y="707.14"/>
      <point x="50.1" y="701.78" type="curve"/>
      <point x="50.1" y="0.0" type="line"/>
      <point x="149.22" y="0.0" type="line"/>
      <point x="149.22" y="259.63" type="line"/>
      <point x="168.6" y="258.56"/>
      <point x="192.06" y="258.49"/>
      <point x="212.08" y="258.49" type="curve" smooth="yes"/>
      <point x="220.7" y="258.49"/>
      <point x="236.92000000000002" y="259.06"/>
      <point x="245.47" y="260.13" type="curve"/>
      <point x="338.76" y="33.64"/>
      <point x="392.85999999999996" y="-10.0"/>
    </contour>
    <contour>
      <point x="226.41000000000003" y="345.57" type="curve" smooth="yes"/>
      <point x="200.37" y="345.57"/>
      <point x="177.98000000000002" y="346.5"/>
      <point x="149.22" y="348.0" type="curve"/>
      <point x="149.22" y="619.49" type="line"/>
      <point x="184.20999999999998" y="622.99"/>
      <point x="201.12" y="623.56"/>
      <point x="230.59" y="623.56" type="curve" smooth="yes"/>
      <point x="324.96999999999997" y="623.56"/>
      <point x="352.92" y="585.02"/>
      <point x="352.92" y="486.48" type="curve" smooth="yes"/>
      <point x="352.92" y="386.4"/>
      <point x="312.6" y="345.57"/>
    </contour>
  </outline>
</glyph>
<glyph name="S" format="2">
  <advance width="448.07"/>
  <unicode hex="0053"/>
  <anchor x="229.315" y="700.0" name="top"/>
  <anchor x="220.81" y="0.0" name="bottom"/>
  <outline>
    <contour>
      <point x="401.11499999999995" y="682.12" type="line"/>
      <point x="365.95" y="696.415"/>
      <point x="298.895" y="710.0"/>
      <point x="239.33" y="710.0" type="curve" smooth="yes"/>
      <point x="96.17" y="710.0"/>
      <point x="29.46" y="631.575"/>
      <point x="29.46" y="530.765" type="curve" smooth="yes"/>
      <point x="29.46" y="430.95"/>
      <point x="81.48" y="370.59"/>
      <point x="172.58499999999998" y="319.06" type="curve" smooth="yes"/>
      <point x="269.23" y="267.02000000000004"/>
      <point x="326.055" y="229.51500000000001"/>
      <point x="326.055" y="165.65500000000003" type="curve" smooth="yes"/>
      <point x="326.055" y="105.96"/>
      <point x="278.40000000000003" y="76.22"/>
      <point x="203.665" y="76.22" type="curve" smooth="yes"/>
      <point x="152.71499999999997" y="76.22"/>
      <point x="87.99" y="87.72500000000001"/>
      <point x="36.295" y="106.81" type="curve"/>
      <point x="14.964999999999998" y="24.669999999999998" type="line"/>
      <point x="66.38999999999999" y="2.785"/>
      <point x="142.76500000000001" y="-10.0"/>
      <point x="202.58999999999997" y="-10.0" type="curve" smooth="yes"/>
      <point x="343.71999999999997" y="-10.0"/>
      <point x="426.10499999999996" y="58.26499999999999"/>
      <point x="426.10499999999996" y="172.45499999999998" type="curve" smooth="yes"/>
      <point x="426.10499999999996" y="276.355"/>
      <point x="369.35499999999996" y="333.78"/>
      <point x="270.44" y="384.66" type="curve" smooth="yes"/>
      <point x="177.885" y="432.53999999999996"/>
      <point x="130.37" y="469.84"/>
      <point x="130.37" y="533.13" type="curve" smooth="yes"/>
      <point x="130.37" y="590.4799999999999"/>
      <point x="173.82500000000002" y="622.2699999999999"/>
      <point x="243.845" y="622.2699999999999" type="curve" smooth="yes"/>
      <point x="289.21999999999997" y="622.2699999999999"/>
      <point x="340.53499999999997" y="614.2699999999999"/>
      <point x="380.07000000000005" y="599.545" type="curve"/>
    </contour>
  </outline>
</glyph>
<glyph name="T" format="2">
  <advance width="431.45599999999996"/>
  <unicode hex="0054"/>
  <anchor x="215.72799999999998" y="700.0" name="top"/>
  <anchor x="215.72799999999998" y="0.0" name="bottom"/>
  <outline>
    <contour>
      <point x="422.042" y="605.9219999999999" type="line"/>
      <point x="422.042" y="700.0" type="line"/>
      <point x="9.414000000000001" y="700.0" type="line"/>
      <point x="9.414000000000001" y="605.9219999999999" type="line"/>
      <point x="166.34" y="605.9219999999999" type="line"/>
      <point x="166.34" y="0.0" type="line"/>
      <point x="265.46" y="0.0" type="line"/>
      <point x="265.46" y="605.9219999999999" type="line"/>
    </contour>
  </outline>
</glyph>
<glyph name="U" format="2">
  <advance width="509.18"/>
  <unicode hex="0055"/>
  <anchor x="312.566" y="0.688" name="ogonek"/>
  <anchor x="254.98999999999998" y="700.0" name="top"/>
  <anchor x="466.356" y="700.0" name="topright"/>
  <anchor x="254.98999999999998" y="0.0" name="bottom"/>
  <outline>
    <contour>
      <point x="42.824000000000005" y="190.59199999999998" type="line"/>
      <point x="42.824000000000005" y="36.68"/>
      <point x="133.096" y="-10.0"/>
      <point x="254.30200000000002" y="-10.0" type="curve" smooth="yes"/>
      <point x="377.916" y="-10.0"/>
      <point x="466.356" y="36.68"/>
      <point x="466.356" y="190.59199999999998" type="curve" smooth="yes"/>
      <point x="466.356" y="700.0" type="line"/>
      <point x="367.236" y="700.0" type="line"/>
      <point x="367.236" y="184.744" type="line" smooth="yes"/>
      <point x="367.236" y="98.09599999999999"/>
      <point x="313.736" y="77.166"/>
      <point x="254.56000000000003" y="77.166" type="curve" smooth="yes"/>
      <point x="196.33" y="77.166"/>
      <point x="141.256" y="97.32199999999999"/>
      <point x="141.256" y="184.744" type="curve" smooth="yes"/>
      <point x="141.256" y="700.0" type="line"/>
      <point x="42.824000000000005" y="700.0" type="line"/>
    </contour>
  </outline>
</glyph>
<glyph name="V" format="2">
  <advance width="476.49800000000005"/>
  <unicode hex="0056"/>
  <outline>
    <contour>
      <point x="180.04600000000002" y="0.0" type="line"/>
      <point x="299.29" y="0.0" type="line"/>
      <point x="471.518" y="699.29" type="line"/>
      <point x="366.916" y="701.7959999999999" type="line"/>
      <point x="239.83999999999997" y="109.0" type="line"/>
      <point x="109.84" y="701.7959999999999" type="line"/>
      <point x="4.9799999999999995" y="699.29" type="line"/>
    </contour>
  </outline>
</glyph>
<glyph name="W" format="2">
  <advance width="630.4399999999999"/>
  <unicode hex="0057"/>
  <anchor x="314.96999999999997" y="700.0" name="top"/>
  <anchor x="314.96999999999997" y="0.0" name="bottom"/>
  <outline>
    <contour>
      <point x="512.572" y="0.0" type="line"/>
      <point x="625.2560000000001" y="699.618" type="line"/>
      <point x="518.122" y="701.468" type="line"/>
      <point x="458.276" y="130.178" type="line"/>
      <point x="358.08599999999996" y="673.236" type="line"/>
      <point x="276.74" y="673.236" type="line"/>
      <point x="175.08800000000002" y="129.834" type="line"/>
      <point x="111.80199999999999" y="701.468" type="line"/>
      <point x="5.184" y="699.618" type="line"/>
      <point x="116.648" y="0.0" type="line"/>
      <point x="218.66000000000003" y="0.0" type="line"/>
      <point x="312.92199999999997" y="502.01000000000005" type="line"/>
      <point x="403.81399999999996" y="0.0" type="line"/>
    </contour>
  </outline>
</glyph>
<glyph name="X" format="2">
  <advance width="482.52"/>
  <unicode hex="0058"/>
  <outline>
    <contour>
      <point x="10.38" y="1.7100000000000002" type="line"/>
      <point x="124.56" y="-2.8500000000000005" type="line"/>
      <point x="239.975" y="281.815" type="line"/>
      <point x="354.95" y="-2.8500000000000005" type="line"/>
      <point x="470.135" y="1.7100000000000002" type="line"/>
      <point x="309.02" y="359.35499999999996" type="line"/>
      <point x="460.92499999999995" y="697.935" type="line"/>
      <point x="349.395" y="702.0649999999999" type="line"/>
      <point x="245.915" y="434.31" type="line"/>
      <point x="138.85999999999999" y="702.0649999999999" type="line"/>
      <point x="23.245" y="697.935" type="line"/>
      <point x="176.57999999999998" y="358.28" type="line"/>
    </contour>
  </outline>
</glyph>
<glyph name="Y" format="2">
  <advance width="469.79999999999995"/>
  <unicode hex="0059"/>
  <anchor x="235.356" y="700.0" name="top"/>
  <anchor x="235.698" y="0.0" name="bottom"/>
  <outline>
    <contour>
      <point x="186.422" y="0.0" type="line"/>
      <point x="285.54200000000003" y="0.0" type="line"/>
      <point x="285.54200000000003" y="270.31000000000006" type="line"/>
      <point x="463.65200000000004" y="697.7199999999999" type="line"/>
      <point x="354.316" y="702.2800000000001" type="line"/>
      <point x="236.32600000000002" y="342.77599999999995" type="line"/>
      <point x="114.00399999999999" y="702.2800000000001" type="line"/>
      <point x="4.324000000000001" y="697.7199999999999" type="line"/>
      <point x="186.422" y="270.31000000000006" type="line"/>
    </contour>
  </outline>
</glyph>
<glyph name="Z" format="2">
  <advance width="448.22800000000007"/>
  <unicode hex="005A"/>
  <anchor x="228.00599999999997" y="350.0" name="center"/>
  <anchor x="228.00599999999997" y="0.0" name="bottom"/>
  <anchor x="229.128" y="700.0" name="top"/>
  <outline>
    <contour>
      <point x="18.85" y="0.0" type="line"/>
      <point x="432.9659999999999" y="0.0" type="line"/>
      <point x="432.9659999999999" y="88.688" type="line"/>
      <point x="125.60600000000001" y="88.688" type="line"/>
      <point x="125.60600000000001" y="90.258" type="line"/>
      <point x="416.752" y="612.76" type="line"/>
      <point x="416.752" y="700.0" type="line"/>
      <point x="32.876" y="700.0" type="line"/>
      <point x="32.876" y="611.742" type="line"/>
      <point x="309.99600000000004" y="611.742" type="line"/>
      <point x="309.99600000000004" y="609.742" type="line"/>
      <point x="18.85" y="87.67" type="line"/>
    </contour>
  </outline>
</glyph>
<glyph name="bracketleft" format="2">
  <advance width="256.31600000000003"/>
  <unicode hex="005B"/>
  <outline>
    <contour>
      <point x="124.80199999999999" y="-134.1" type="line"/>
      <point x="124.80199999999999" y="664.1" type="line"/>
      <point x="242.316" y="664.1" type="line"/>
      <point x="242.316" y="740.0" type="line"/>
      <point x="47.86999999999999" y="740.0" type="line"/>
      <point x="47.86999999999999" y="-210.0" type="line"/>
      <point x="242.316" y="-210.0" type="line"/>
      <point x="242.316" y="-134.1" type="line"/>
    </contour>
  </outline>
</glyph>
<glyph name="backslash" format="2">
  <advance width="326.65799999999996"/>
  <unicode hex="005C"/>
  <outline>
    <contour>
      <point x="81.59400000000001" y="740.0" type="line"/>
      <point x="-0.528" y="740.0" type="line"/>
      <point x="245.408" y="-210.0" type="line"/>
      <point x="327.186" y="-210.0" type="line"/>
    </contour>
  </outline>
</glyph>
<glyph name="bracketright" format="2">
  <advance width="256.31600000000003"/>
  <unicode hex="005D"/>
  <outline>
    <contour>
      <point x="14.0" y="-134.1" type="line"/>
      <point x="14.0" y="-210.0" type="line"/>
      <point x="208.44600000000003" y="-210.0" type="line"/>
      <point x="208.44600000000003" y="740.0" type="line"/>
      <point x="14.0" y="740.0" type="line"/>
      <point x="14.0" y="664.1" type="line"/>
      <point x="131.51399999999998" y="664.1" type="line"/>
      <point x="131.51399999999998" y="-134.1" type="line"/>
    </contour>
  </outline>
</glyph>
<glyph name="asciicircum" format="2">
  <advance width="444.29200000000003"/>
  <unicode hex="005E"/>
  <outline>
    <contour>
      <point x="42.93000000000001" y="259.30799999999994" type="line"/>
      <point x="118.33800000000001" y="259.30799999999994" type="line"/>
      <point x="222.14600000000002" y="604.438" type="line"/>
      <point x="326.384" y="259.30799999999994" type="line"/>
      <point x="401.362" y="259.30799999999994" type="line"/>
      <point x="268.78200000000004" y="705.7" type="line"/>
      <point x="175.51" y="705.7" type="line"/>
    </contour>
  </outline>
</glyph>
<glyph name="underscore" format="2">
  <advance width="696.032"/>
  <unicode hex="005F"/>
  <outline>
    <contour>
      <point x="8.6" y="-167.476" type="line"/>
      <point x="687.432" y="-167.476" type="line"/>
      <point x="687.432" y="-83.836" type="line"/>
      <point x="8.6" y="-83.836" type="line"/>
    </contour>
  </outline>
</glyph>
<glyph name="a" format="2">
  <advance width="424.28000000000003"/>
  <unicode hex="0061"/>
  <anchor x="422.92" y="7.6" name="ogonek"/>
  <anchor x="206.54999999999998" y="0.0" name="bottom"/>
  <anchor x="204.75" y="538.6" name="top"/>
  <outline>
    <contour>
      <point x="16.98" y="133.07999999999998" type="curve" smooth="yes"/>
      <point x="16.98" y="46.84"/>
      <point x="61.35" y="-10.0"/>
      <point x="138.18" y="-10.0" type="curve" smooth="yes"/>
      <point x="197.39" y="-10.0"/>
      <point x="238.79" y="13.829999999999998"/>
      <point x="276.37" y="46.97" type="curve"/>
      <point x="286.68999999999994" y="9.13"/>
      <point x="312.14" y="-10.0"/>
      <point x="355.82" y="-10.0" type="curve" smooth="yes"/>
      <point x="383.16" y="-10.0"/>
      <point x="404.12" y="-3.27"/>
      <point x="422.92" y="8.03" type="curve"/>
      <point x="413.40999999999997" y="87.81" type="line"/>
      <point x="405.34999999999997" y="83.67"/>
      <point x="396.71000000000004" y="82.53"/>
      <point x="389.43" y="82.53" type="curve" smooth="yes"/>
      <point x="375.45" y="82.53"/>
      <point x="366.09999999999997" y="91.09"/>
      <point x="366.09999999999997" y="123.14000000000001" type="curve" smooth="yes"/>
      <point x="366.09999999999997" y="383.42" type="line" smooth="yes"/>
      <point x="366.09999999999997" y="490.63"/>
      <point x="313.14000000000004" y="548.6"/>
      <point x="189.5" y="548.6" type="curve" smooth="yes"/>
      <point x="145.75" y="548.6"/>
      <point x="90.48" y="539.16"/>
      <point x="43.32000000000001" y="522.58" type="curve"/>
      <point x="62.72" y="437.93" type="line"/>
      <point x="109.81" y="453.15"/>
      <point x="151.83" y="457.21999999999997"/>
      <point x="180.97" y="457.21999999999997" type="curve" smooth="yes"/>
      <point x="236.20000000000002" y="457.21999999999997"/>
      <point x="268.34000000000003" y="430.40999999999997"/>
      <point x="268.34000000000003" y="381.27" type="curve" smooth="yes"/>
      <point x="268.34000000000003" y="309.02" type="line"/>
      <point x="105.23" y="289.32"/>
      <point x="16.98" y="257.03"/>
    </contour>
    <contour>
      <point x="114.81" y="141.95" type="curve" smooth="yes"/>
      <point x="114.81" y="216.79"/>
      <point x="178.96" y="234.75"/>
      <point x="268.34000000000003" y="245.3" type="curve"/>
      <point x="268.34000000000003" y="111.24000000000001" type="line"/>
      <point x="244.67000000000002" y="84.85000000000001"/>
      <point x="208.08" y="65.33000000000001"/>
      <point x="172.79" y="65.33000000000001" type="curve" smooth="yes"/>
      <point x="137.06" y="65.33000000000001"/>
      <point x="114.81" y="91.15"/>
    </contour>
  </outline>
</glyph>
<glyph name="b" format="2">
  <advance width="437.544"/>
  <unicode hex="0062"/>
  <outline>
    <contour>
      <point x="45.38" y="12.732" type="line"/>
      <point x="102.39" y="-1.962"/>
      <point x="156.29" y="-10.0"/>
      <point x="201.13600000000002" y="-10.0" type="curve" smooth="yes"/>
      <point x="349.634" y="-10.0"/>
      <point x="409.95" y="71.85799999999999"/>
      <point x="409.95" y="283.476" type="curve" smooth="yes"/>
      <point x="409.95" y="458.32599999999996"/>
      <point x="358.77" y="548.6"/>
      <point x="261.15999999999997" y="548.6" type="curve" smooth="yes"/>
      <point x="222.196" y="548.6"/>
      <point x="179.856" y="534.688"/>
      <point x="142.78" y="509.84000000000003" type="curve"/>
      <point x="142.78" y="740.0" type="line"/>
      <point x="45.38" y="740.0" type="line"/>
    </contour>
    <contour>
      <point x="142.78" y="74.87" type="curve"/>
      <point x="142.78" y="431.82" type="line"/>
      <point x="175.904" y="453.32599999999996"/>
      <point x="199.27600000000004" y="461.40000000000003"/>
      <point x="227.49" y="461.40000000000003" type="curve" smooth="yes"/>
      <point x="280.072" y="461.40000000000003"/>
      <point x="308.42199999999997" y="402.86800000000005"/>
      <point x="308.42199999999997" y="275.048" type="curve" smooth="yes"/>
      <point x="308.42199999999997" y="116.466"/>
      <point x="278.414" y="65.708"/>
      <point x="204.61800000000002" y="65.708" type="curve" smooth="yes"/>
      <point x="187.00799999999998" y="65.708"/>
      <point x="168.57" y="68.41999999999999"/>
    </contour>
  </outline>
</glyph>
<glyph name="c" format="2">
  <advance width="381.146"/>
  <unicode hex="0063"/>
  <anchor x="226.13000000000002" y="538.6" name="top"/>
  <anchor x="228.736" y="0.0" name="bottom"/>
  <outline>
    <contour>
      <point x="28.023999999999997" y="264.048" type="curve" smooth="yes"/>
      <point x="28.023999999999997" y="75.732"/>
      <point x="93.202" y="-10.0"/>
      <point x="226.566" y="-10.0" type="curve" smooth="yes"/>
      <point x="272.722" y="-10.0"/>
      <point x="329.36800000000005" y="-1.85"/>
      <point x="364.764" y="9.478000000000002" type="curve"/>
      <point x="346.746" y="89.02399999999999" type="line"/>
      <point x="314.646" y="81.936"/>
      <point x="277.896" y="77.054"/>
      <point x="247.662" y="77.054" type="curve" smooth="yes"/>
      <point x="170.606" y="77.054"/>
      <point x="127.83200000000001" y="122.958"/>
      <point x="127.83200000000001" y="264.322" type="curve" smooth="yes"/>
      <point x="127.83200000000001" y="414.114"/>
      <point x="169.918" y="461.20200000000006"/>
      <point x="249.51600000000005" y="461.20200000000006" type="curve" smooth="yes"/>
      <point x="279.09000000000003" y="461.20200000000006"/>
      <point x="311.716" y="457.09000000000003"/>
      <point x="341.666" y="450.12000000000006" type="curve"/>
      <point x="356.76" y="532.762" type="line"/>
      <point x="324.71999999999997" y="542.94"/>
      <point x="276.852" y="548.6"/>
      <point x="236.35" y="548.6" type="curve" smooth="yes"/>
      <point x="98.526" y="548.6"/>
      <point x="28.023999999999997" y="458.86400000000003"/>
    </contour>
  </outline>
</glyph>
<glyph name="d" format="2">
  <advance width="438.06"/>
  <unicode hex="0064"/>
  <anchor x="218.61399999999998" y="275.0" name="center"/>
  <anchor x="217.04299999999998" y="740.0" name="top"/>
  <anchor x="449.76000000000005" y="740.0" name="topright"/>
  <anchor x="218.61399999999998" y="0.0" name="bottom"/>
  <outline>
    <contour>
      <point x="306.674" y="-0.43" type="line"/>
      <point x="392.895" y="-0.43" type="line"/>
      <point x="392.895" y="740.0" type="line"/>
      <point x="294.63500000000005" y="740.0" type="line"/>
      <point x="294.63500000000005" y="540.311" type="line"/>
      <point x="269.7300000000001" y="545.974"/>
      <point x="244.11399999999998" y="548.6"/>
      <point x="221.35799999999998" y="548.6" type="curve" smooth="yes"/>
      <point x="89.02799999999999" y="548.6"/>
      <point x="27.464999999999996" y="458.486"/>
      <point x="27.464999999999996" y="258.26300000000003" type="curve" smooth="yes"/>
      <point x="27.464999999999996" y="82.77600000000001"/>
      <point x="79.74600000000001" y="-10.0"/>
      <point x="175.757" y="-10.0" type="curve" smooth="yes"/>
      <point x="217.85999999999999" y="-10.0"/>
      <point x="258.178" y="2.9999999999999996"/>
      <point x="296.14" y="29.204999999999995" type="curve"/>
    </contour>
    <contour>
      <point x="294.635" y="104.97399999999999" type="line"/>
      <point x="262.62899999999996" y="84.93"/>
      <point x="238.397" y="76.641"/>
      <point x="210.37200000000004" y="76.641" type="curve" smooth="yes"/>
      <point x="158.246" y="76.641"/>
      <point x="129.81000000000003" y="136.28"/>
      <point x="129.81000000000003" y="269.22799999999995" type="curve" smooth="yes"/>
      <point x="129.81000000000003" y="422.134"/>
      <point x="159.51700000000002" y="471.34400000000005"/>
      <point x="232.66800000000003" y="471.34400000000005" type="curve" smooth="yes"/>
      <point x="250.966" y="471.34400000000005"/>
      <point x="269.086" y="468.933"/>
      <point x="294.635" y="461.494" type="curve"/>
    </contour>
  </outline>
</glyph>
<glyph name="e" format="2">
  <advance width="423.564"/>
  <unicode hex="0065"/>
  <anchor x="355.302" y="7.954000000000001" name="ogonek"/>
  <anchor x="221.22" y="0.0" name="bottom"/>
  <anchor x="221.632" y="538.6" name="top"/>
  <outline>
    <contour>
      <point x="221.83800000000002" y="-10.0" type="curve" smooth="yes"/>
      <point x="286.06600000000003" y="-10.0"/>
      <point x="341.488" y="-0.5419999999999998"/>
      <point x="391.51" y="18.337999999999997" type="curve"/>
      <point x="378.368" y="97.02399999999999" type="line"/>
      <point x="334.768" y="84.622"/>
      <point x="286.216" y="75.678"/>
      <point x="242.16" y="75.678" type="curve" smooth="yes"/>
      <point x="163.078" y="75.678"/>
      <point x="128.09" y="115.73"/>
      <point x="128.09" y="229.292" type="curve" smooth="yes"/>
      <point x="128.09" y="235.17"/>
      <point x="128.118" y="240.702"/>
      <point x="128.576" y="246.55200000000005" type="curve"/>
      <point x="239.15" y="247.842"/>
      <point x="346.37600000000003" y="259.272"/>
      <point x="397.12600000000003" y="265.188" type="curve"/>
      <point x="397.58400000000006" y="278.16200000000003"/>
      <point x="398.55600000000004" y="302.688"/>
      <point x="398.55600000000004" y="312.53000000000003" type="curve" smooth="yes"/>
      <point x="398.55600000000004" y="480.60799999999995"/>
      <point x="344.98400000000004" y="548.6"/>
      <point x="230.08999999999997" y="548.6" type="curve" smooth="yes"/>
      <point x="109.196" y="548.6"/>
      <point x="27.679999999999996" y="476.682"/>
      <point x="27.679999999999996" y="256.422" type="curve" smooth="yes"/>
      <point x="27.679999999999996" y="67.25399999999998"/>
      <point x="93.842" y="-10.0"/>
    </contour>
    <contour>
      <point x="129.09" y="316.20799999999997" type="curve"/>
      <point x="137.21999999999997" y="444.02"/>
      <point x="177.878" y="472.92400000000004"/>
      <point x="224.07" y="472.92400000000004" type="curve" smooth="yes"/>
      <point x="275.448" y="472.92400000000004"/>
      <point x="300.268" y="435.95599999999996"/>
      <point x="301.128" y="325.53400000000005" type="curve"/>
      <point x="277.222" y="322.198"/>
      <point x="202.54799999999997" y="316.638"/>
    </contour>
  </outline>
</glyph>
<glyph name="f" format="2">
  <advance width="300.218"/>
  <unicode hex="0066"/>
  <outline>
    <contour>
      <point x="80.12599999999999" y="0.0" type="line"/>
      <point x="175.806" y="0.0" type="line"/>
      <point x="175.806" y="421.542" type="line"/>
      <point x="285.75" y="421.542" type="line"/>
      <point x="285.75" y="499.48" type="line"/>
      <point x="176.15" y="499.48" type="line"/>
      <point x="176.15" y="520.658" type="line" smooth="yes"/>
      <point x="176.15" y="624.802"/>
      <point x="204.518" y="666.844"/>
      <point x="262.36" y="666.844" type="curve" smooth="yes"/>
      <point x="282.834" y="666.844"/>
      <point x="304.202" y="663.6439999999999"/>
      <point x="329.136" y="656.018" type="curve"/>
      <point x="343.57" y="730.232" type="line"/>
      <point x="306.406" y="744.3919999999999"/>
      <point x="274.206" y="750.114"/>
      <point x="239.114" y="750.114" type="curve" smooth="yes"/>
      <point x="134.896" y="750.114"/>
      <point x="80.12599999999999" y="677.416"/>
      <point x="80.12599999999999" y="521.862" type="curve" smooth="yes"/>
      <point x="80.12599999999999" y="499.48" type="line"/>
      <point x="13.07" y="492.046" type="line"/>
      <point x="13.07" y="421.542" type="line"/>
      <point x="80.12599999999999" y="421.542" type="line"/>
    </contour>
  </outline>
</glyph>
<glyph name="g" format="2">
  <advance width="440.6859999999999"/>
  <unicode hex="0067"/>
  <anchor x="212.59200000000004" y="538.6" name="top"/>
  <anchor x="217.556" y="-212.0" name="bottom"/>
  <outline>
    <contour>
      <point x="206.282" y="-220.0" type="curve" smooth="yes"/>
      <point x="348.794" y="-220.0"/>
      <point x="426.87199999999996" y="-154.886"/>
      <point x="426.87199999999996" y="-45.574000000000005" type="curve" smooth="yes"/>
      <point x="426.87199999999996" y="45.10999999999999"/>
      <point x="377.618" y="97.19600000000001"/>
      <point x="286.036" y="97.19600000000001" type="curve" smooth="yes"/>
      <point x="177.85600000000002" y="97.19600000000001" type="line" smooth="yes"/>
      <point x="134.944" y="97.19600000000001"/>
      <point x="115.122" y="114.21199999999999"/>
      <point x="115.122" y="144.49" type="curve" smooth="yes"/>
      <point x="115.122" y="173.71200000000002"/>
      <point x="129.85" y="191.316"/>
      <point x="158.31600000000003" y="208.95000000000002" type="curve"/>
      <point x="104.092" y="230.504" type="line"/>
      <point x="63.12" y="203.168"/>
      <point x="38.044000000000004" y="168.29"/>
      <point x="38.044000000000004" y="118.46600000000001" type="curve" smooth="yes"/>
      <point x="38.044000000000004" y="51.968"/>
      <point x="85.39399999999999" y="8.938"/>
      <point x="171.752" y="8.938" type="curve" smooth="yes"/>
      <point x="260.77799999999996" y="8.938" type="line" smooth="yes"/>
      <point x="313.19599999999997" y="8.938"/>
      <point x="335.49199999999996" y="-13.264"/>
      <point x="335.49199999999996" y="-55.838" type="curve" smooth="yes"/>
      <point x="335.49199999999996" y="-109.598"/>
      <point x="293.10200000000003" y="-141.20200000000003"/>
      <point x="213.162" y="-141.20200000000003" type="curve" smooth="yes"/>
      <point x="136.746" y="-141.20200000000003"/>
      <point x="100.33800000000001" y="-113.42"/>
      <point x="100.33800000000001" y="-58.034" type="curve" smooth="yes"/>
      <point x="100.33800000000001" y="-21.486"/>
      <point x="116.852" y="2.4539999999999997"/>
      <point x="148.37199999999999" y="22.938" type="curve"/>
      <point x="88.774" y="44.1" type="line"/>
      <point x="41.466" y="16.343999999999998"/>
      <point x="17.988" y="-23.786"/>
      <point x="17.988" y="-79.13199999999999" type="curve" smooth="yes"/>
      <point x="17.988" y="-171.85999999999999"/>
      <point x="83.7" y="-220.0"/>
    </contour>
    <contour>
      <point x="213.18200000000002" y="189.314" type="curve" smooth="yes"/>
      <point x="324.68199999999996" y="189.314"/>
      <point x="382.38599999999997" y="249.904"/>
      <point x="382.38599999999997" y="368.7" type="curve" smooth="yes"/>
      <point x="382.38599999999997" y="487.926"/>
      <point x="324.68199999999996" y="548.6"/>
      <point x="213.18200000000002" y="548.6" type="curve" smooth="yes"/>
      <point x="101.252" y="548.6"/>
      <point x="43.548" y="487.926"/>
      <point x="43.548" y="368.7" type="curve" smooth="yes"/>
      <point x="43.548" y="249.904"/>
      <point x="101.252" y="189.314"/>
    </contour>
    <contour>
      <point x="213.18200000000002" y="262.9240000000001" type="curve" smooth="yes"/>
      <point x="162.272" y="262.9240000000001"/>
      <point x="137.938" y="293.042"/>
      <point x="137.938" y="368.7" type="curve" smooth="yes"/>
      <point x="137.938" y="445.33"/>
      <point x="162.272" y="475.41999999999996"/>
      <point x="213.18200000000002" y="475.41999999999996" type="curve" smooth="yes"/>
      <point x="264.092" y="475.41999999999996"/>
      <point x="287.9959999999999" y="445.33"/>
      <point x="287.9959999999999" y="368.7" type="curve" smooth="yes"/>
      <point x="287.9959999999999" y="293.042"/>
      <point x="264.092" y="262.9240000000001"/>
    </contour>
    <contour>
      <point x="348.378" y="445.328" type="line"/>
      <point x="360.938" y="471.046"/>
      <point x="377.49799999999993" y="482.494"/>
      <point x="398.53400000000005" y="482.494" type="curve" smooth="yes"/>
      <point x="408.254" y="482.494"/>
      <point x="415.722" y="481.606"/>
      <point x="422.9" y="479.69000000000005" type="curve"/>
      <point x="435.10799999999995" y="561.61" type="line"/>
      <point x="424.72400000000005" y="565.676"/>
      <point x="412.61" y="567.854"/>
      <point x="398.534" y="567.854" type="curve" smooth="yes"/>
      <point x="358.084" y="567.854"/>
      <point x="326.99000000000007" y="547.536"/>
      <point x="310.232" y="508.31000000000006" type="curve"/>
    </contour>
  </outline>
</glyph>
<glyph name="h" format="2">
  <advance width="441.02099999999996"/>
  <unicode hex="0068"/>
  <anchor x="219.613" y="395.0" name="center"/>
  <anchor x="220.473" y="0.0" name="bottom"/>
  <anchor x="224.361" y="740.0" name="top"/>
  <outline>
    <contour>
      <point x="45.165" y="0.0" type="line"/>
      <point x="143.21" y="0.0" type="line"/>
      <point x="143.21" y="431.7" type="line"/>
      <point x="172.796" y="448.53"/>
      <point x="203.017" y="459.809"/>
      <point x="233.72400000000002" y="459.809" type="curve" smooth="yes"/>
      <point x="275.82199999999995" y="459.809"/>
      <point x="298.026" y="436.438"/>
      <point x="298.026" y="389.731" type="curve" smooth="yes"/>
      <point x="298.026" y="0.0" type="line"/>
      <point x="396.28599999999994" y="0.0" type="line"/>
      <point x="396.28599999999994" y="416.39099999999996" type="line" smooth="yes"/>
      <point x="396.28599999999994" y="507.636"/>
      <point x="349.94900000000007" y="548.6"/>
      <point x="275.78799999999995" y="548.6" type="curve" smooth="yes"/>
      <point x="228.789" y="548.6"/>
      <point x="185.322" y="533.0769999999999"/>
      <point x="143.21" y="504.94500000000005" type="curve"/>
      <point x="143.21" y="740.0" type="line"/>
      <point x="45.165" y="740.0" type="line"/>
    </contour>
  </outline>
</glyph>
<glyph name="i" format="2">
  <advance width="188.16"/>
  <unicode hex="0069"/>
  <anchor x="142.66600000000003" y="0.0" name="ogonek"/>
  <anchor x="94.252" y="0.0" name="bottom"/>
  <outline>
    <contour>
      <point x="94.252" y="630.646" type="curve" smooth="yes"/>
      <point x="135.656" y="630.646"/>
      <point x="151.766" y="647.212"/>
      <point x="151.766" y="687.636" type="curve" smooth="yes"/>
      <point x="151.766" y="728.7479999999999"/>
      <point x="134.96800000000002" y="744.97"/>
      <point x="94.252" y="744.97" type="curve" smooth="yes"/>
      <point x="53.192" y="744.97"/>
      <point x="36.394" y="728.7479999999999"/>
      <point x="36.394" y="687.636" type="curve" smooth="yes"/>
      <point x="36.394" y="646.868"/>
      <point x="53.762" y="630.646"/>
    </contour>
    <contour>
      <point x="45.38" y="0.0" type="line"/>
      <point x="142.78" y="0.0" type="line"/>
      <point x="142.78" y="538.6" type="line"/>
      <point x="45.38" y="538.6" type="line"/>
    </contour>
  </outline>
</glyph>
<glyph name="j" format="2">
  <advance width="190.33999999999997"/>
  <unicode hex="006A"/>
  <outline>
    <contour>
      <point x="145.07399999999998" y="538.6" type="line"/>
      <point x="47.67400000000001" y="538.6" type="line"/>
      <point x="47.67400000000001" y="22.514" type="line" smooth="yes"/>
      <point x="47.67400000000001" y="-53.64399999999999"/>
      <point x="31.029999999999998" y="-95.57400000000001"/>
      <point x="-3.9320000000000004" y="-113.814" type="curve" smooth="yes"/>
      <point x="-11.909999999999998" y="-116.77799999999999"/>
      <point x="-19.2" y="-118.13999999999999"/>
      <point x="-28.78" y="-118.244" type="curve"/>
      <point x="-33.684" y="-206.76600000000002" type="line"/>
      <point x="-13.703999999999999" y="-208.33"/>
      <point x="6.766000000000001" y="-207.232"/>
      <point x="23.912000000000003" y="-203.81199999999998" type="curve" smooth="yes"/>
      <point x="109.228" y="-182.95"/>
      <point x="145.07399999999998" y="-111.328"/>
      <point x="145.07399999999998" y="16.408" type="curve" smooth="yes"/>
    </contour>
    <contour>
      <point x="96.31800000000001" y="630.646" type="curve" smooth="yes"/>
      <point x="137.26600000000002" y="630.646"/>
      <point x="153.832" y="647.212"/>
      <point x="153.832" y="687.636" type="curve" smooth="yes"/>
      <point x="153.832" y="728.7479999999999"/>
      <point x="136.578" y="744.97"/>
      <point x="96.31800000000001" y="744.97" type="curve" smooth="yes"/>
      <point x="55.257999999999996" y="744.97"/>
      <point x="38.46" y="728.7479999999999"/>
      <point x="38.46" y="687.636" type="curve" smooth="yes"/>
      <point x="38.46" y="646.868"/>
      <point x="55.827999999999996" y="630.646"/>
    </contour>
  </outline>
</glyph>
<glyph name="k" format="2">
  <advance width="414.42"/>
  <unicode hex="006B"/>
  <anchor x="91.93" y="740.0" name="top"/>
  <anchor x="220.8" y="0.0" name="bottom"/>
  <outline>
    <contour>
      <point x="382.84" y="-8.29" type="curve" smooth="yes"/>
      <point x="393.5" y="-8.29"/>
      <point x="402.94" y="-7.15"/>
      <point x="412.17" y="-4.79" type="curve"/>
      <point x="410.53" y="99.41999999999999" type="line"/>
      <point x="406.03" y="99.27999999999999"/>
      <point x="401.46" y="98.27999999999999"/>
      <point x="397.96000000000004" y="98.27999999999999" type="curve" smooth="yes"/>
      <point x="371.73" y="98.27999999999999"/>
      <point x="349.49999999999994" y="113.86"/>
      <point x="272.09" y="214.17" type="curve" smooth="yes"/>
      <point x="138.48" y="388.95" type="line"/>
      <point x="138.48" y="740.0" type="line"/>
      <point x="45.38" y="740.0" type="line"/>
      <point x="45.38" y="0.0" type="line"/>
      <point x="138.48" y="0.0" type="line"/>
      <point x="138.48" y="239.14" type="line"/>
      <point x="246.4" y="100.92" type="line" smooth="yes"/>
      <point x="321.13" y="4.4399999999999995"/>
      <point x="344.02" y="-8.29"/>
    </contour>
    <contour>
      <point x="219.12" y="232.9" type="line"/>
      <point x="288.57000000000005" y="314.87"/>
      <point x="369.90999999999997" y="422.28"/>
      <point x="395.88" y="539.17" type="curve"/>
      <point x="299.26" y="547.6" type="line"/>
      <point x="277.09" y="434.38000000000005"/>
      <point x="217.01999999999998" y="360.69"/>
      <point x="149.28" y="285.59000000000003" type="curve"/>
    </contour>
  </outline>
</glyph>
<glyph name="l" format="2">
  <advance width="227.998"/>
  <unicode hex="006C"/>
  <anchor x="114.37" y="395.0" name="center"/>
  <anchor x="94.252" y="740.0" name="top"/>
  <anchor x="199.86" y="740.0" name="topright"/>
  <anchor x="136.29000000000002" y="0.0" name="bottom"/>
  <outline>
    <contour>
      <point x="142.78" y="740.0" type="line"/>
      <point x="45.38" y="740.0" type="line"/>
      <point x="45.38" y="138.302" type="line" smooth="yes"/>
      <point x="45.38" y="24.77"/>
      <point x="82.958" y="-10.0"/>
      <point x="155.942" y="-10.0" type="curve" smooth="yes"/>
      <point x="183.214" y="-10.0"/>
      <point x="208.816" y="-2.27"/>
      <point x="228.002" y="6.97" type="curve"/>
      <point x="219.358" y="87.31599999999999" type="line"/>
      <point x="204.652" y="82.89200000000001"/>
      <point x="192.942" y="80.864"/>
      <point x="183.376" y="80.864" type="curve" smooth="yes"/>
      <point x="159.308" y="80.864"/>
      <point x="142.78" y="92.026"/>
      <point x="142.78" y="148.794" type="curve" smooth="yes"/>
    </contour>
  </outline>
</glyph>
<glyph name="m" format="2">
  <advance width="665.434"/>
  <unicode hex="006D"/>
  <outline>
    <contour>
      <point x="45.38" y="0.0" type="line"/>
      <point x="143.124" y="0.0" type="line"/>
      <point x="143.124" y="432.89799999999997" type="line"/>
      <point x="168.684" y="448.786"/>
      <point x="195.782" y="459.454"/>
      <point x="223.48" y="459.454" type="curve" smooth="yes"/>
      <point x="268.628" y="459.454"/>
      <point x="284.474" y="428.568"/>
      <point x="284.474" y="389.376" type="curve" smooth="yes"/>
      <point x="284.474" y="0.0" type="line"/>
      <point x="382.21799999999996" y="0.0" type="line"/>
      <point x="382.21799999999996" y="395.05199999999996" type="line" smooth="yes"/>
      <point x="382.21799999999996" y="407.94200000000006"/>
      <point x="380.622" y="420.57800000000003"/>
      <point x="377.00199999999995" y="431.53" type="curve"/>
      <point x="400.94199999999995" y="446.90599999999995"/>
      <point x="430.832" y="460.11"/>
      <point x="461.892" y="460.11" type="curve" smooth="yes"/>
      <point x="507.41" y="460.11"/>
      <point x="522.998" y="429.19599999999997"/>
      <point x="522.998" y="389.832" type="curve" smooth="yes"/>
      <point x="522.998" y="0.0" type="line"/>
      <point x="620.7420000000001" y="0.0" type="line"/>
      <point x="620.7420000000001" y="418.03999999999996" type="line" smooth="yes"/>
      <point x="620.7420000000001" y="497.50600000000003"/>
      <point x="582.95" y="548.6"/>
      <point x="505.50399999999996" y="548.6" type="curve" smooth="yes"/>
      <point x="449.9" y="548.6"/>
      <point x="403.33799999999997" y="528.48"/>
      <point x="361.434" y="499.016" type="curve"/>
      <point x="343.25600000000003" y="530.314"/>
      <point x="312.62000000000006" y="548.03"/>
      <point x="266.146" y="548.03" type="curve" smooth="yes"/>
      <point x="220.41000000000003" y="548.03"/>
      <point x="177.518" y="533.2660000000001"/>
      <point x="134.60999999999999" y="504.524" type="curve"/>
      <point x="134.60999999999999" y="538.6" type="line"/>
      <point x="45.38" y="538.6" type="line"/>
    </contour>
  </outline>
</glyph>
<glyph name="n" format="2">
  <advance width="440.978"/>
  <unicode hex="006E"/>
  <anchor x="222.48000000000002" y="538.6" name="top"/>
  <anchor x="223.62" y="0.0" name="bottom"/>
  <outline>
    <contour>
      <point x="45.38" y="0.0" type="line"/>
      <point x="143.124" y="0.0" type="line"/>
      <point x="143.124" y="431.872" type="line"/>
      <point x="172.538" y="448.616"/>
      <point x="203.146" y="460.454"/>
      <point x="234.15400000000002" y="460.454" type="curve" smooth="yes"/>
      <point x="276.25200000000007" y="460.454"/>
      <point x="298.542" y="436.782"/>
      <point x="298.542" y="389.94599999999997" type="curve" smooth="yes"/>
      <point x="298.542" y="0.0" type="line"/>
      <point x="396.28600000000006" y="0.0" type="line"/>
      <point x="396.28600000000006" y="418.15399999999994" type="line" smooth="yes"/>
      <point x="396.28600000000006" y="504.196"/>
      <point x="352.572" y="548.6"/>
      <point x="275.788" y="548.6" type="curve" smooth="yes"/>
      <point x="226.166" y="548.6"/>
      <point x="181.854" y="533.636"/>
      <point x="134.60999999999999" y="503.612" type="curve"/>
      <point x="134.60999999999999" y="538.6" type="line"/>
      <point x="45.38" y="538.6" type="line"/>
    </contour>
  </outline>
</glyph>
<glyph name="o" format="2">
  <advance width="439.784"/>
  <unicode hex="006F"/>
  <anchor x="285.788" y="3.6119999999999997" name="ogonek"/>
  <anchor x="219.892" y="538.6" name="top"/>
  <anchor x="323.024" y="529.74" name="topright"/>
  <anchor x="219.892" y="0.0" name="bottom"/>
  <outline>
    <contour>
      <point x="27.679999999999996" y="270.044" type="curve" smooth="yes"/>
      <point x="27.679999999999996" y="78.144"/>
      <point x="75.716" y="-10.0"/>
      <point x="219.892" y="-10.0" type="curve" smooth="yes"/>
      <point x="364.06800000000004" y="-10.0"/>
      <point x="412.10400000000004" y="78.144"/>
      <point x="412.10400000000004" y="270.044" type="curve" smooth="yes"/>
      <point x="412.10400000000004" y="459.344"/>
      <point x="367.46799999999996" y="548.6"/>
      <point x="219.892" y="548.6" type="curve" smooth="yes"/>
      <point x="72.144" y="548.6"/>
      <point x="27.679999999999996" y="459.344"/>
    </contour>
    <contour>
      <point x="128.51999999999998" y="270.044" type="curve" smooth="yes"/>
      <point x="128.51999999999998" y="423.392"/>
      <point x="151.88000000000002" y="464.84000000000003"/>
      <point x="219.892" y="464.84000000000003" type="curve" smooth="yes"/>
      <point x="287.56" y="464.84000000000003"/>
      <point x="311.092" y="423.392"/>
      <point x="311.092" y="270.044" type="curve" smooth="yes"/>
      <point x="311.092" y="114.868"/>
      <point x="285.192" y="74.104"/>
      <point x="219.892" y="74.104" type="curve" smooth="yes"/>
      <point x="154.24800000000002" y="74.104"/>
      <point x="128.51999999999998" y="114.868"/>
    </contour>
  </outline>
</glyph>
<glyph name="p" format="2">
  <advance width="437.88800000000003"/>
  <unicode hex="0070"/>
  <outline>
    <contour>
      <point x="45.38" y="-210.0" type="line"/>
      <point x="143.20999999999998" y="-210.0" type="line"/>
      <point x="143.20999999999998" y="-1.2959999999999998" type="line"/>
      <point x="170.356" y="-7.287999999999999"/>
      <point x="195.08800000000002" y="-10.0"/>
      <point x="216.272" y="-10.0" type="curve" smooth="yes"/>
      <point x="348.602" y="-10.0"/>
      <point x="410.29400000000004" y="80.458"/>
      <point x="410.29400000000004" y="280.72400000000005" type="curve" smooth="yes"/>
      <point x="410.29400000000004" y="454.88599999999997"/>
      <point x="358.42600000000004" y="548.6"/>
      <point x="263.568" y="548.6" type="curve" smooth="yes"/>
      <point x="220.734" y="548.6"/>
      <point x="179.42600000000002" y="535.204"/>
      <point x="138.738" y="507.94800000000004" type="curve"/>
      <point x="134.60999999999999" y="543.16" type="line"/>
      <point x="45.38" y="543.16" type="line"/>
    </contour>
    <contour>
      <point x="204.962" y="67.084" type="curve" smooth="yes"/>
      <point x="187.00799999999998" y="67.084"/>
      <point x="168.57" y="70.14"/>
      <point x="143.124" y="77.278" type="curve"/>
      <point x="143.124" y="434.22799999999995" type="line"/>
      <point x="175.56" y="455.046"/>
      <point x="199.27600000000004" y="462.776"/>
      <point x="227.14600000000002" y="462.776" type="curve" smooth="yes"/>
      <point x="280.072" y="462.776"/>
      <point x="308.42199999999997" y="403.556"/>
      <point x="308.42199999999997" y="269.544" type="curve" smooth="yes"/>
      <point x="308.42199999999997" y="117.15400000000001"/>
      <point x="278.414" y="67.084"/>
    </contour>
  </outline>
</glyph>
<glyph name="q" format="2">
  <advance width="438.232"/>
  <unicode hex="0071"/>
  <outline>
    <contour>
      <point x="392.85200000000003" y="527.7" type="line"/>
      <point x="337.226" y="541.706"/>
      <point x="284.34999999999997" y="548.6"/>
      <point x="237.096" y="548.6" type="curve" smooth="yes"/>
      <point x="92.038" y="548.6"/>
      <point x="27.593999999999998" y="464.334"/>
      <point x="27.593999999999998" y="264.756" type="curve" smooth="yes"/>
      <point x="27.593999999999998" y="82.45"/>
      <point x="78.886" y="-10.0"/>
      <point x="177.072" y="-10.0" type="curve" smooth="yes"/>
      <point x="216.724" y="-10.0"/>
      <point x="259.064" y="3.912000000000001"/>
      <point x="295.45200000000006" y="28.416" type="curve"/>
      <point x="295.45200000000006" y="-210.0" type="line"/>
      <point x="392.85200000000003" y="-210.0" type="line"/>
    </contour>
    <contour>
      <point x="295.10799999999995" y="462.586" type="curve"/>
      <point x="295.10799999999995" y="106.092" type="line"/>
      <point x="262.67199999999997" y="84.93"/>
      <point x="238.956" y="76.512"/>
      <point x="210.742" y="76.512" type="curve" smooth="yes"/>
      <point x="158.616" y="76.512"/>
      <point x="129.81" y="135.956"/>
      <point x="129.81" y="262.864" type="curve" smooth="yes"/>
      <point x="129.81" y="421.446"/>
      <point x="159.818" y="472.204"/>
      <point x="233.61400000000003" y="472.204" type="curve" smooth="yes"/>
      <point x="250.51" y="472.204"/>
      <point x="269.66200000000003" y="469.49199999999996"/>
    </contour>
  </outline>
</glyph>
<glyph name="r" format="2">
  <advance width="315.488"/>
  <unicode hex="0072"/>
  <anchor x="174.12800000000001" y="538.6" name="top"/>
  <anchor x="93.908" y="0.0" name="bottom"/>
  <outline>
    <contour>
      <point x="134.266" y="538.6" type="line"/>
      <point x="45.38" y="538.6" type="line"/>
      <point x="45.38" y="0.0" type="line"/>
      <point x="142.436" y="0.0" type="line"/>
      <point x="142.436" y="406.048" type="line"/>
      <point x="178.72" y="439.65"/>
      <point x="210.428" y="452.026"/>
      <point x="243.452" y="452.026" type="curve" smooth="yes"/>
      <point x="259.158" y="452.026"/>
      <point x="279.1" y="449.6859999999999"/>
      <point x="297.644" y="444.57199999999995" type="curve"/>
      <point x="314.484" y="539.1419999999999" type="line"/>
      <point x="294.848" y="545.888"/>
      <point x="275.056" y="548.6"/>
      <point x="256.412" y="548.6" type="curve" smooth="yes"/>
      <point x="209.75199999999998" y="548.6"/>
      <point x="174.58399999999997" y="529.548"/>
      <point x="134.266" y="486.854" type="curve"/>
    </contour>
  </outline>
</glyph>
<glyph name="s" format="2">
  <advance width="360.51"/>
  <unicode hex="0073"/>
  <anchor x="181.51999999999998" y="538.6" name="top"/>
  <anchor x="181.24" y="0.0" name="bottom"/>
  <outline>
    <contour>
      <point x="14.36" y="17.65" type="line"/>
      <point x="57.400000000000006" y="-1.0000000000000002"/>
      <point x="108.61" y="-10.0"/>
      <point x="164.14000000000001" y="-10.0" type="curve" smooth="yes"/>
      <point x="270.55" y="-10.0"/>
      <point x="344.53" y="40.019999999999996"/>
      <point x="344.53" y="146.24" type="curve" smooth="yes"/>
      <point x="344.53" y="247.44"/>
      <point x="287.66" y="282.28"/>
      <point x="212.94" y="313.53999999999996" type="curve" smooth="yes"/>
      <point x="155.73" y="337.51"/>
      <point x="117.5" y="356.31"/>
      <point x="117.5" y="402.73" type="curve" smooth="yes"/>
      <point x="117.5" y="442.52000000000004"/>
      <point x="145.08999999999997" y="464.53"/>
      <point x="196.64999999999998" y="464.53" type="curve" smooth="yes"/>
      <point x="238.67999999999998" y="464.53"/>
      <point x="273.76" y="456.6"/>
      <point x="306.71999999999997" y="445.52" type="curve"/>
      <point x="321.53" y="525.87" type="line"/>
      <point x="288.78999999999996" y="539.38"/>
      <point x="242.46999999999997" y="548.6"/>
      <point x="195.36" y="548.6" type="curve" smooth="yes"/>
      <point x="84.08000000000001" y="548.6"/>
      <point x="23.97" y="490.86"/>
      <point x="23.97" y="393.27" type="curve" smooth="yes"/>
      <point x="23.97" y="311.98"/>
      <point x="69.07000000000001" y="267.18"/>
      <point x="140.95" y="237.63000000000002" type="curve" smooth="yes"/>
      <point x="208.22" y="210.88"/>
      <point x="249.71000000000004" y="188.57"/>
      <point x="249.71000000000004" y="139.36" type="curve" smooth="yes"/>
      <point x="249.71000000000004" y="96.16000000000001"/>
      <point x="219.35" y="72.35000000000001"/>
      <point x="163.28" y="72.35000000000001" type="curve" smooth="yes"/>
      <point x="119.49" y="72.35000000000001"/>
      <point x="62.38999999999999" y="81.71"/>
      <point x="28.090000000000003" y="95.78" type="curve"/>
    </contour>
  </outline>
</glyph>
<glyph name="t" format="2">
  <advance width="313.658"/>
  <unicode hex="0074"/>
  <anchor x="154.564" y="275.0" name="center"/>
  <anchor x="129.21200000000002" y="661.216" name="top"/>
  <anchor x="252.306" y="759.17" name="topright"/>
  <anchor x="183.896" y="0.0" name="bottom"/>
  <outline>
    <contour>
      <point x="202.42399999999998" y="-10.0" type="curve" smooth="yes"/>
      <point x="233.85399999999998" y="-10.0"/>
      <point x="271.944" y="-5.456"/>
      <point x="311.688" y="9.218" type="curve"/>
      <point x="297.312" y="87.79" type="line"/>
      <point x="275.322" y="81.34"/>
      <point x="254.88" y="78.0"/>
      <point x="235.044" y="78.0" type="curve" smooth="yes"/>
      <point x="190.59400000000002" y="78.0"/>
      <point x="171.07000000000002" y="100.99199999999999"/>
      <point x="171.07000000000002" y="163.196" type="curve" smooth="yes"/>
      <point x="171.07000000000002" y="460.662" type="line"/>
      <point x="296.298" y="460.662" type="line"/>
      <point x="296.298" y="538.6" type="line"/>
      <point x="171.07000000000002" y="538.6" type="line"/>
      <point x="171.07000000000002" y="661.216" type="line"/>
      <point x="86.898" y="661.216" type="line"/>
      <point x="73.67" y="538.6" type="line"/>
      <point x="7.08" y="531.5100000000001" type="line"/>
      <point x="7.08" y="461.006" type="line"/>
      <point x="73.67" y="461.006" type="line"/>
      <point x="73.67" y="154.424" type="line" smooth="yes"/>
      <point x="73.67" y="46.986"/>
      <point x="111.6" y="-10.0"/>
    </contour>
  </outline>
</glyph>
<glyph name="u" format="2">
  <advance width="449.57199999999995"/>
  <unicode hex="0075"/>
  <anchor x="447.85800000000006" y="7.772" name="ogonek"/>
  <anchor x="218.412" y="538.6" name="top"/>
  <anchor x="390.352" y="538.6" name="topright"/>
  <anchor x="225.272" y="0.0" name="bottom"/>
  <outline>
    <contour>
      <point x="166.462" y="-10.0" type="curve" smooth="yes"/>
      <point x="217.696" y="-10.0"/>
      <point x="261.554" y="7.372000000000001"/>
      <point x="304.438" y="34.638000000000005" type="curve"/>
      <point x="316.98" y="6.494"/>
      <point x="342.25" y="-10.0"/>
      <point x="377.00399999999996" y="-10.0" type="curve" smooth="yes"/>
      <point x="404.688" y="-10.0"/>
      <point x="428.184" y="-2.812"/>
      <point x="447.85800000000006" y="7.772" type="curve"/>
      <point x="438.134" y="86.49199999999999" type="line"/>
      <point x="430.514" y="82.954"/>
      <point x="422.262" y="81.27"/>
      <point x="414.64" y="81.27" type="curve" smooth="yes"/>
      <point x="399.91200000000003" y="81.27"/>
      <point x="390.352" y="90.46000000000001"/>
      <point x="390.352" y="118.98400000000001" type="curve" smooth="yes"/>
      <point x="390.352" y="538.6" type="line"/>
      <point x="292.952" y="538.6" type="line"/>
      <point x="292.952" y="106.09799999999998" type="line"/>
      <point x="264.476" y="88.98"/>
      <point x="234.926" y="77.802"/>
      <point x="205.25799999999998" y="77.802" type="curve" smooth="yes"/>
      <point x="164.81199999999998" y="77.802"/>
      <point x="142.436" y="100.904"/>
      <point x="142.436" y="145.17" type="curve" smooth="yes"/>
      <point x="142.436" y="538.6" type="line"/>
      <point x="44.692" y="538.6" type="line"/>
      <point x="44.692" y="126.766" type="line" smooth="yes"/>
      <point x="44.692" y="29.76"/>
      <point x="95.232" y="-10.0"/>
    </contour>
  </outline>
</glyph>
<glyph name="v" format="2">
  <advance width="423.573"/>
  <unicode hex="0076"/>
  <outline>
    <contour>
      <point x="153.62800000000001" y="0.0" type="line"/>
      <point x="268.971" y="0.0" type="line"/>
      <point x="414.632" y="537.0040000000001" type="line"/>
      <point x="311.668" y="540.1959999999999" type="line"/>
      <point x="213.241" y="98.734" type="line"/>
      <point x="112.55" y="540.1959999999999" type="line"/>
      <point x="8.726" y="537.0040000000001" type="line"/>
    </contour>
  </outline>
</glyph>
<glyph name="w" format="2">
  <advance width="612.582"/>
  <unicode hex="0077"/>
  <anchor x="306.084" y="538.6" name="top"/>
  <anchor x="306.084" y="0.0" name="bottom"/>
  <outline>
    <contour>
      <point x="114.004" y="0.0" type="line"/>
      <point x="230.608" y="0.0" type="line"/>
      <point x="305.826" y="414.846" type="line"/>
      <point x="381.958" y="0.0" type="line"/>
      <point x="496.8419999999999" y="0.0" type="line"/>
      <point x="603.318" y="536.562" type="line"/>
      <point x="506.5039999999999" y="539.8259999999999" type="line"/>
      <point x="435.592" y="100.76" type="line"/>
      <point x="357.96599999999995" y="538.6" type="line"/>
      <point x="254.116" y="538.6" type="line"/>
      <point x="177.63" y="100.518" type="line"/>
      <point x="107.282" y="539.8259999999999" type="line"/>
      <point x="8.764" y="536.562" type="line"/>
    </contour>
  </outline>
</glyph>
<glyph name="x" format="2">
  <advance width="436.03"/>
  <unicode hex="0078"/>
  <outline>
    <contour>
      <point x="6.630000000000001" y="-1.71" type="line"/>
      <point x="116.36500000000001" y="-5.2" type="line"/>
      <point x="217.91" y="211.22000000000003" type="line"/>
      <point x="320.595" y="-5.2" type="line"/>
      <point x="430.185" y="-1.71" type="line"/>
      <point x="282.65500000000003" y="274.08" type="line"/>
      <point x="420.195" y="536.89" type="line"/>
      <point x="315.55" y="540.8100000000001" type="line"/>
      <point x="221.13" y="333.205" type="line"/>
      <point x="126.57" y="541.095" type="line"/>
      <point x="17.840000000000003" y="536.535" type="line"/>
      <point x="155.095" y="274.36" type="line"/>
    </contour>
  </outline>
</glyph>
<glyph name="y" format="2">
  <advance width="425.49300000000005"/>
  <unicode hex="0079"/>
  <anchor x="208.371" y="538.6" name="top"/>
  <anchor x="356.965" y="0.0" name="bottom"/>
  <outline>
    <contour>
      <point x="127.752" y="-208.604" type="line"/>
      <point x="229.594" y="-212.368" type="line"/>
      <point x="416.199" y="537.6600000000001" type="line"/>
      <point x="313.09299999999996" y="540.624" type="line"/>
      <point x="219.228" y="90.636" type="line"/>
      <point x="115.758" y="540.652" type="line"/>
      <point x="9.182" y="537.46" type="line"/>
      <point x="160.829" y="0.0" type="line"/>
      <point x="180.332" y="0.0" type="line"/>
    </contour>
  </outline>
</glyph>
<glyph name="z" format="2">
  <advance width="390.553"/>
  <unicode hex="007A"/>
  <anchor x="197.856" y="538.6" name="top"/>
  <outline>
    <contour>
      <point x="21.177" y="0.0" type="line"/>
      <point x="373.366" y="0.0" type="line"/>
      <point x="373.366" y="83.528" type="line"/>
      <point x="134.458" y="83.528" type="line"/>
      <point x="359.442" y="464.485" type="line"/>
      <point x="359.442" y="538.6" type="line"/>
      <point x="30.129" y="538.6" type="line"/>
      <point x="30.129" y="455.932" type="line"/>
      <point x="248.208" y="455.932" type="line"/>
      <point x="21.177" y="75.19" type="line"/>
    </contour>
  </outline>
</glyph>
<glyph name="braceleft" format="2">
  <advance width="266.804"/>
  <unicode hex="007B"/>
  <outline>
    <contour>
      <point x="68.626" y="-55.68800000000001" type="curve" smooth="yes"/>
      <point x="68.626" y="-152.856"/>
      <point x="113.954" y="-210.344"/>
      <point x="187.88" y="-210.344" type="curve" smooth="yes"/>
      <point x="241.176" y="-210.344" type="line"/>
      <point x="241.176" y="-134.444" type="line"/>
      <point x="210.24" y="-134.444" type="line" smooth="yes"/>
      <point x="167.14" y="-134.444"/>
      <point x="151.578" y="-94.696"/>
      <point x="151.578" y="-44.93800000000001" type="curve" smooth="yes"/>
      <point x="151.578" y="21.318000000000005"/>
      <point x="181.654" y="77.744"/>
      <point x="181.654" y="150.036" type="curve" smooth="yes"/>
      <point x="181.654" y="190.512"/>
      <point x="170.162" y="240.052"/>
      <point x="128.84199999999998" y="265.0" type="curve"/>
      <point x="170.048" y="291.824"/>
      <point x="181.654" y="338.916"/>
      <point x="181.654" y="379.392" type="curve" smooth="yes"/>
      <point x="181.654" y="448.948"/>
      <point x="151.578" y="504.804"/>
      <point x="151.578" y="574.3659999999999" type="curve" smooth="yes"/>
      <point x="151.578" y="624.124"/>
      <point x="167.14" y="664.1"/>
      <point x="210.24" y="664.1" type="curve" smooth="yes"/>
      <point x="241.176" y="664.1" type="line"/>
      <point x="241.176" y="740.0" type="line"/>
      <point x="187.88" y="740.0" type="line" smooth="yes"/>
      <point x="113.954" y="740.0"/>
      <point x="68.626" y="682.284"/>
      <point x="68.626" y="585.1159999999999" type="curve" smooth="yes"/>
      <point x="68.626" y="493.66999999999996"/>
      <point x="102.14200000000001" y="440.09399999999994"/>
      <point x="102.14200000000001" y="375.522" type="curve" smooth="yes"/>
      <point x="102.14200000000001" y="339.76"/>
      <point x="93.23400000000001" y="304.24"/>
      <point x="65.866" y="304.24" type="curve" smooth="yes"/>
      <point x="46.843999999999994" y="304.24" type="line"/>
      <point x="46.843999999999994" y="225.41600000000003" type="line"/>
      <point x="65.866" y="225.41600000000003" type="line" smooth="yes"/>
      <point x="93.23400000000001" y="225.41600000000003"/>
      <point x="102.14200000000001" y="190.124"/>
      <point x="102.14200000000001" y="153.90599999999998" type="curve" smooth="yes"/>
      <point x="102.14200000000001" y="88.194"/>
      <point x="68.626" y="32.338"/>
    </contour>
  </outline>
</glyph>
<glyph name="bar" format="2">
  <advance width="173.34400000000002"/>
  <unicode hex="007C"/>
  <outline>
    <contour>
      <point x="128.06199999999998" y="790.3439999999999" type="line"/>
      <point x="45.282000000000004" y="790.3439999999999" type="line"/>
      <point x="45.282000000000004" y="-210.0" type="line"/>
      <point x="128.06199999999998" y="-210.0" type="line"/>
    </contour>
  </outline>
</glyph>
<glyph name="braceright" format="2">
  <advance width="266.804"/>
  <unicode hex="007D"/>
  <outline>
    <contour>
      <point x="25.627999999999997" y="-134.444" type="line"/>
      <point x="25.627999999999997" y="-210.344" type="line"/>
      <point x="79.38" y="-210.344" type="line" smooth="yes"/>
      <point x="153.30599999999998" y="-210.344"/>
      <point x="198.634" y="-152.856"/>
      <point x="198.634" y="-55.68800000000001" type="curve" smooth="yes"/>
      <point x="198.634" y="32.338"/>
      <point x="165.118" y="88.194"/>
      <point x="165.118" y="153.90599999999998" type="curve" smooth="yes"/>
      <point x="165.118" y="190.124"/>
      <point x="174.026" y="225.41600000000003"/>
      <point x="201.394" y="225.41600000000003" type="curve" smooth="yes"/>
      <point x="219.95999999999998" y="225.41600000000003" type="line"/>
      <point x="219.95999999999998" y="304.24" type="line"/>
      <point x="201.394" y="304.24" type="line" smooth="yes"/>
      <point x="173.57000000000002" y="304.24"/>
      <point x="165.118" y="339.76"/>
      <point x="165.118" y="375.522" type="curve" smooth="yes"/>
      <point x="165.118" y="440.09399999999994"/>
      <point x="198.634" y="493.66999999999996"/>
      <point x="198.634" y="585.1159999999999" type="curve" smooth="yes"/>
      <point x="198.634" y="682.284"/>
      <point x="153.30599999999998" y="740.0"/>
      <point x="79.38" y="740.0" type="curve" smooth="yes"/>
      <point x="25.627999999999997" y="740.0" type="line"/>
      <point x="25.627999999999997" y="664.1" type="line"/>
      <point x="51.172000000000004" y="664.1" type="line" smooth="yes"/>
      <point x="93.816" y="664.1"/>
      <point x="109.834" y="624.124"/>
      <point x="109.834" y="574.3659999999999" type="curve" smooth="yes"/>
      <point x="109.834" y="504.804"/>
      <point x="79.75800000000001" y="448.948"/>
      <point x="79.75800000000001" y="379.392" type="curve" smooth="yes"/>
      <point x="79.75800000000001" y="338.916"/>
      <point x="90.908" y="291.824"/>
      <point x="132.57" y="265.0" type="curve"/>
      <point x="90.794" y="240.052"/>
      <point x="79.75800000000001" y="190.512"/>
      <point x="79.75800000000001" y="150.036" type="curve" smooth="yes"/>
      <point x="79.75800000000001" y="77.744"/>
      <point x="109.834" y="21.318000000000005"/>
      <point x="109.834" y="-44.93800000000001" type="curve" smooth="yes"/>
      <point x="109.834" y="-94.696"/>
      <point x="93.816" y="-134.444"/>
      <point x="51.172000000000004" y="-134.444" type="curve" smooth="yes"/>
    </contour>
  </outline>
</glyph>
<glyph name="asciitilde" format="2">
  <advance width="444.29200000000003"/>
  <unicode hex="007E"/>
  <outline>
    <contour>
      <point x="388.07000000000005" y="245.45399999999998" type="curve"/>
      <point x="388.07000000000005" y="330.97" type="line"/>
      <point x="365.658" y="306.084"/>
      <point x="343.724" y="294.12"/>
      <point x="314.998" y="294.12" type="curve" smooth="yes"/>
      <point x="241.394" y="294.12"/>
      <point x="205.428" y="390.164"/>
      <point x="132.67399999999998" y="390.164" type="curve" smooth="yes"/>
      <point x="95.494" y="390.164"/>
      <point x="69.292" y="371.94199999999995"/>
      <point x="56.764" y="356.27799999999996" type="curve"/>
      <point x="56.764" y="270.64799999999997" type="line"/>
      <point x="72.184" y="288.942"/>
      <point x="97.18400000000001" y="307.04"/>
      <point x="131.5" y="307.04" type="curve" smooth="yes"/>
      <point x="199.272" y="307.04"/>
      <point x="236.726" y="210.91"/>
      <point x="314.856" y="210.91" type="curve" smooth="yes"/>
      <point x="344.72" y="210.91"/>
      <point x="367.228" y="222.39400000000003"/>
    </contour>
  </outline>
</glyph>
<glyph name="exclamdown" format="2">
  <advance width="192.628"/>
  <unicode hex="00A1"/>
  <outline>
    <contour>
      <point x="139.596" y="276.664" type="line"/>
      <point x="54.322" y="276.664" type="line"/>
      <point x="47.098" y="-201.48600000000002" type="line"/>
      <point x="145.788" y="-201.48600000000002" type="line"/>
    </contour>
    <contour>
      <point x="150.64600000000002" y="483.15799999999996" type="curve" smooth="yes"/>
      <point x="150.64600000000002" y="525.56"/>
      <point x="137.03" y="542.9"/>
      <point x="96.314" y="542.9" type="curve" smooth="yes"/>
      <point x="56.168000000000006" y="542.9"/>
      <point x="41.982000000000006" y="525.56"/>
      <point x="41.982000000000006" y="483.15799999999996" type="curve" smooth="yes"/>
      <point x="41.982000000000006" y="440.326"/>
      <point x="55.598" y="422.98600000000005"/>
      <point x="96.314" y="422.98600000000005" type="curve" smooth="yes"/>
      <point x="137.03" y="422.98600000000005"/>
      <point x="150.64600000000002" y="440.326"/>
    </contour>
  </outline>
</glyph>
<glyph name="cent" format="2">
  <advance width="466.656"/>
  <unicode hex="00A2"/>
  <outline>
    <contour>
      <point x="259.59200000000004" y="-10.344" type="curve" smooth="yes"/>
      <point x="304.752" y="-10.344"/>
      <point x="354.164" y="-3.25"/>
      <point x="391.73199999999997" y="9.25" type="curve"/>
      <point x="374.2300000000001" y="95.22" type="line"/>
      <point x="342.41999999999996" y="87.33200000000001"/>
      <point x="310.832" y="83.504"/>
      <point x="282.036" y="83.504" type="curve" smooth="yes"/>
      <point x="212.948" y="83.504"/>
      <point x="177.76800000000003" y="140.32"/>
      <point x="177.76800000000003" y="261.39799999999997" type="curve" smooth="yes"/>
      <point x="177.76800000000003" y="394.66400000000004"/>
      <point x="215.018" y="454.322"/>
      <point x="285.31" y="454.322" type="curve" smooth="yes"/>
      <point x="315.456" y="454.322"/>
      <point x="339.97999999999996" y="450.32"/>
      <point x="368.34999999999997" y="443.266" type="curve"/>
      <point x="384.24399999999997" y="532.762" type="line"/>
      <point x="352.062" y="541.8760000000001"/>
      <point x="311.932" y="549.288"/>
      <point x="266.218" y="549.288" type="curve" smooth="yes"/>
      <point x="129.50400000000002" y="549.288"/>
      <point x="77.444" y="435.37"/>
      <point x="77.444" y="258.818" type="curve" smooth="yes"/>
      <point x="77.444" y="78.468"/>
      <point x="136.40200000000002" y="-10.344"/>
    </contour>
    <contour>
      <point x="208.972" y="-105.34400000000001" type="line"/>
      <point x="293.04200000000003" y="-105.34400000000001" type="line"/>
      <point x="293.04200000000003" y="2.768" type="line"/>
      <point x="208.972" y="7.634" type="line"/>
    </contour>
    <contour>
      <point x="208.972" y="529.278" type="line"/>
      <point x="293.04200000000003" y="537.0640000000001" type="line"/>
      <point x="293.04200000000003" y="643.256" type="line"/>
      <point x="208.972" y="643.256" type="line"/>
    </contour>
  </outline>
</glyph>
<glyph name="sterling" format="2">
  <advance width="467.17199999999997"/>
  <unicode hex="00A3"/>
  <outline>
    <contour>
      <point x="63.803999999999995" y="0.0" type="line"/>
      <point x="418.47800000000007" y="0.0" type="line"/>
      <point x="418.47800000000007" y="84.06999999999998" type="line"/>
      <point x="172.72" y="84.06999999999998" type="line"/>
      <point x="216.652" y="139.70000000000002"/>
      <point x="246.942" y="183.876"/>
      <point x="246.942" y="255.798" type="curve" smooth="yes"/>
      <point x="246.942" y="343.364"/>
      <point x="190.346" y="405.00000000000006"/>
      <point x="190.346" y="492.788" type="curve" smooth="yes"/>
      <point x="190.346" y="583.52"/>
      <point x="236.90399999999997" y="618.1899999999999"/>
      <point x="297.72200000000004" y="618.1899999999999" type="curve" smooth="yes"/>
      <point x="329.84399999999994" y="618.1899999999999"/>
      <point x="365.30999999999995" y="612.5919999999999"/>
      <point x="393.21599999999995" y="604.078" type="curve"/>
      <point x="409.05" y="684.26" type="line"/>
      <point x="374.422" y="700.794"/>
      <point x="324.104" y="710.0"/>
      <point x="280.52200000000005" y="710.0" type="curve" smooth="yes"/>
      <point x="155.39600000000002" y="710.0"/>
      <point x="88.646" y="633.9440000000001"/>
      <point x="88.646" y="521.1400000000001" type="curve" smooth="yes"/>
      <point x="88.646" y="399.104"/>
      <point x="153.412" y="350.59999999999997"/>
      <point x="153.412" y="248.00200000000004" type="curve" smooth="yes"/>
      <point x="153.412" y="182.436"/>
      <point x="126.01" y="137.62199999999999"/>
      <point x="63.803999999999995" y="66.86999999999999" type="curve"/>
    </contour>
    <contour>
      <point x="52.31" y="324.72" type="line"/>
      <point x="366.78000000000003" y="324.72" type="line"/>
      <point x="366.78000000000003" y="393.31" type="line"/>
      <point x="52.31" y="393.31" type="line"/>
    </contour>
  </outline>
</glyph>
<glyph name="currency" format="2">
  <advance width="438.90999999999997"/>
  <unicode hex="00A4"/>
  <outline>
    <contour>
      <point x="32.388" y="422.79200000000003" type="line"/>
      <point x="94.69200000000001" y="359.488" type="line"/>
      <point x="82.572" y="340.874"/>
      <point x="75.044" y="318.18399999999997"/>
      <point x="75.044" y="293.04200000000003" type="curve" smooth="yes"/>
      <point x="75.044" y="267.47"/>
      <point x="82.572" y="244.006"/>
      <point x="95.69200000000001" y="225.048" type="curve"/>
      <point x="32.388" y="161.744" type="line"/>
      <point x="89.21600000000001" y="104.916" type="line"/>
      <point x="156.648" y="172.262" type="line"/>
      <point x="173.972" y="160.002"/>
      <point x="196.06" y="153.732"/>
      <point x="219.94400000000002" y="153.732" type="curve" smooth="yes"/>
      <point x="243.31199999999998" y="153.732"/>
      <point x="265.024" y="160.088"/>
      <point x="282.17600000000004" y="172.004" type="curve"/>
      <point x="349.69399999999996" y="104.916" type="line"/>
      <point x="406.52200000000005" y="161.744" type="line"/>
      <point x="344.16400000000004" y="223.75799999999998" type="line"/>
      <point x="357.45599999999996" y="243.31799999999998"/>
      <point x="365.32800000000003" y="266.954"/>
      <point x="365.32800000000003" y="293.04200000000003" type="curve" smooth="yes"/>
      <point x="365.32800000000003" y="318.356"/>
      <point x="357.542" y="341.562"/>
      <point x="344.508" y="360.77799999999996" type="curve"/>
      <point x="406.52200000000005" y="422.79200000000003" type="line"/>
      <point x="349.69399999999996" y="479.62" type="line"/>
      <point x="283.55199999999996" y="413.47799999999995" type="line"/>
      <point x="266.056" y="425.48"/>
      <point x="244.226" y="432.75"/>
      <point x="219.94400000000002" y="432.75" type="curve" smooth="yes"/>
      <point x="194.80200000000002" y="432.75"/>
      <point x="172.714" y="425.136"/>
      <point x="154.702" y="413.22" type="curve"/>
      <point x="89.21600000000001" y="479.62" type="line"/>
    </contour>
    <contour>
      <point x="219.858" y="215.87199999999999" type="curve" smooth="yes"/>
      <point x="176.262" y="215.87199999999999"/>
      <point x="143.03199999999998" y="249.016"/>
      <point x="143.03199999999998" y="292.69800000000004" type="curve" smooth="yes"/>
      <point x="143.03199999999998" y="336.004"/>
      <point x="176.176" y="370.266"/>
      <point x="219.858" y="370.266" type="curve" smooth="yes"/>
      <point x="264.10999999999996" y="370.266"/>
      <point x="297.34" y="336.004"/>
      <point x="297.34" y="292.69800000000004" type="curve" smooth="yes"/>
      <point x="297.34" y="249.016"/>
      <point x="264.02399999999994" y="215.87199999999999"/>
    </contour>
  </outline>
</glyph>
<glyph name="yen" format="2">
  <advance width="467.20000000000005"/>
  <unicode hex="00A5"/>
  <outline>
    <contour>
      <point x="62.699999999999996" y="323.86" type="line"/>
      <point x="185.89" y="323.86" type="line"/>
      <point x="185.89" y="252.89" type="line"/>
      <point x="62.699999999999996" y="252.89" type="line"/>
      <point x="62.699999999999996" y="191.61" type="line"/>
      <point x="185.89" y="191.61" type="line"/>
      <point x="185.89" y="0.0" type="line"/>
      <point x="286.3" y="0.0" type="line"/>
      <point x="286.3" y="191.61" type="line"/>
      <point x="410.34999999999997" y="191.61" type="line"/>
      <point x="410.34999999999997" y="252.89" type="line"/>
      <point x="286.3" y="252.89" type="line"/>
      <point x="286.3" y="323.86" type="line"/>
      <point x="410.34999999999997" y="323.86" type="line"/>
      <point x="410.34999999999997" y="384.71" type="line"/>
      <point x="286.3" y="384.71" type="line"/>
      <point x="434.04" y="697.72" type="line"/>
      <point x="326.6" y="702.71" type="line"/>
      <point x="235.88" y="453.71" type="line"/>
      <point x="141.03" y="702.71" type="line"/>
      <point x="33.59" y="697.72" type="line"/>
      <point x="185.89" y="384.71" type="line"/>
      <point x="62.699999999999996" y="384.71" type="line"/>
    </contour>
  </outline>
</glyph>
<glyph name="brokenbar" format="2">
  <advance width="173.0"/>
  <unicode hex="00A6"/>
  <outline>
    <contour>
      <point x="127.71799999999999" y="391.0" type="line"/>
      <point x="127.71799999999999" y="790.3439999999999" type="line"/>
      <point x="45.282000000000004" y="790.3439999999999" type="line"/>
      <point x="45.282000000000004" y="391.0" type="line"/>
    </contour>
    <contour>
      <point x="45.282000000000004" y="190.344" type="line"/>
      <point x="45.282000000000004" y="-210.0" type="line"/>
      <point x="127.71799999999999" y="-210.0" type="line"/>
      <point x="127.71799999999999" y="190.344" type="line"/>
    </contour>
  </outline>
</glyph>
<glyph name="section" format="2">
  <advance width="445.10900000000004"/>
  <unicode hex="00A7"/>
  <outline>
    <contour>
      <point x="183.1" y="-220.64499999999998" type="curve" smooth="yes"/>
      <point x="316.86" y="-220.64499999999998"/>
      <point x="411.92" y="-103.149"/>
      <point x="411.92" y="59.132999999999996" type="curve" smooth="yes"/>
      <point x="411.92" y="140.01899999999998"/>
      <point x="391.462" y="225.76799999999997"/>
      <point x="328.333" y="380.693" type="curve" smooth="yes"/>
      <point x="277.278" y="510.09799999999996"/>
      <point x="263.57599999999996" y="544.156"/>
      <point x="263.57599999999996" y="580.6780000000001" type="curve" smooth="yes"/>
      <point x="263.57599999999996" y="624.171"/>
      <point x="286.416" y="650.151"/>
      <point x="325.237" y="650.151" type="curve" smooth="yes"/>
      <point x="339.90000000000003" y="650.151"/>
      <point x="354.507" y="647.581"/>
      <point x="373.207" y="639.413" type="curve"/>
      <point x="392.97599999999994" y="728.242" type="line"/>
      <point x="361.29299999999995" y="742.3639999999999"/>
      <point x="322.45900000000006" y="749.673"/>
      <point x="283.35400000000004" y="749.673" type="curve" smooth="yes"/>
      <point x="131.42299999999997" y="749.673"/>
      <point x="37.84" y="646.9619999999999"/>
      <point x="39.85" y="479.429" type="curve" smooth="yes"/>
      <point x="40.925" y="393.945"/>
      <point x="57.550000000000004" y="313.059"/>
      <point x="124.494" y="154.885" type="curve" smooth="yes"/>
      <point x="171.185" y="36.178999999999995"/>
      <point x="190.905" y="-9.314999999999998"/>
      <point x="190.93299999999996" y="-52.827999999999996" type="curve" smooth="yes"/>
      <point x="190.96099999999998" y="-96.424"/>
      <point x="166.373" y="-120.441"/>
      <point x="126.88799999999999" y="-120.441" type="curve" smooth="yes"/>
      <point x="102.132" y="-120.441"/>
      <point x="80.357" y="-112.264"/>
      <point x="52.01299999999999" y="-89.892" type="curve"/>
      <point x="30.609000000000005" y="-177.048" type="line"/>
      <point x="76.01100000000001" y="-207.38299999999998"/>
      <point x="123.061" y="-220.64499999999998"/>
    </contour>
    <contour>
      <point x="179.884" y="-159.962" type="curve" smooth="yes"/>
      <point x="158.71599999999998" y="-159.962"/>
      <point x="141.491" y="-156.42899999999997"/>
      <point x="125.219" y="-148.989" type="curve"/>
      <point x="153.633" y="-168.11200000000002" type="line"/>
      <point x="219.68200000000002" y="-167.495"/>
      <point x="261.63599999999997" y="-119.325"/>
      <point x="261.63599999999997" y="-51.86500000000001" type="curve" smooth="yes"/>
      <point x="261.63599999999997" y="-1.882999999999998"/>
      <point x="246.159" y="55.837999999999994"/>
      <point x="193.15000000000003" y="186.60999999999999" type="curve" smooth="yes"/>
      <point x="131.516" y="340.39700000000005"/>
      <point x="112.41300000000001" y="406.312"/>
      <point x="112.41300000000001" y="491.469" type="curve" smooth="yes"/>
      <point x="112.41300000000001" y="605.5080000000002"/>
      <point x="165.83899999999997" y="674.4639999999999"/>
      <point x="241.05699999999996" y="674.4639999999999" type="curve" smooth="yes"/>
      <point x="255.09599999999998" y="674.4639999999999"/>
      <point x="264.106" y="672.501"/>
      <point x="277.59299999999996" y="666.9580000000002" type="curve"/>
      <point x="260.33899999999994" y="687.409" type="line"/>
      <point x="217.91" y="679.456"/>
      <point x="191.57399999999998" y="633.389"/>
      <point x="191.116" y="585.137" type="curve" smooth="yes"/>
      <point x="191.116" y="535.1640000000001"/>
      <point x="204.247" y="487.443"/>
      <point x="257.84499999999997" y="356.175" type="curve" smooth="yes"/>
      <point x="323.769" y="189.58400000000003"/>
      <point x="341.40400000000005" y="122.61399999999999"/>
      <point x="341.40400000000005" y="49.243" type="curve" smooth="yes"/>
      <point x="341.432" y="-68.94699999999999"/>
      <point x="283.75200000000007" y="-159.934"/>
    </contour>
  </outline>
</glyph>
<glyph name="copyright" format="2">
  <advance width="582.148"/>
  <unicode hex="00A9"/>
  <outline>
    <contour>
      <point x="291.16" y="28.584000000000003" type="curve" smooth="yes"/>
      <point x="154.608" y="28.584000000000003"/>
      <point x="79.24" y="127.252"/>
      <point x="79.24" y="350.172" type="curve" smooth="yes"/>
      <point x="79.24" y="573.72"/>
      <point x="154.77999999999997" y="671.4159999999999"/>
      <point x="291.16" y="671.4159999999999" type="curve" smooth="yes"/>
      <point x="428.3999999999999" y="671.4159999999999"/>
      <point x="502.5639999999999" y="573.72"/>
      <point x="502.5639999999999" y="350.172" type="curve" smooth="yes"/>
      <point x="502.5639999999999" y="127.252"/>
      <point x="428.57199999999995" y="28.584000000000003"/>
    </contour>
    <contour>
      <point x="291.16" y="710.0" type="curve" smooth="yes"/>
      <point x="129.88400000000001" y="710.0"/>
      <point x="38.42" y="595.224"/>
      <point x="38.42" y="350.172" type="curve" smooth="yes"/>
      <point x="38.42" y="105.91999999999999"/>
      <point x="129.71200000000002" y="-10.0"/>
      <point x="291.16" y="-10.0" type="curve" smooth="yes"/>
      <point x="452.4359999999999" y="-10.0"/>
      <point x="543.7280000000001" y="105.91999999999999"/>
      <point x="543.7280000000001" y="350.172" type="curve" smooth="yes"/>
      <point x="543.7280000000001" y="595.224"/>
      <point x="452.436" y="710.0"/>
    </contour>
    <contour>
      <point x="169.18" y="343.3400000000001" type="curve" smooth="yes"/>
      <point x="169.18" y="210.67200000000003"/>
      <point x="216.88" y="149.508"/>
      <point x="298.504" y="149.508" type="curve" smooth="yes"/>
      <point x="330.204" y="149.508"/>
      <point x="362.93600000000004" y="154.48000000000002"/>
      <point x="388.684" y="164.76" type="curve"/>
      <point x="377.404" y="226.332" type="line"/>
      <point x="357.468" y="220.49599999999998"/>
      <point x="331.96000000000004" y="216.18"/>
      <point x="307.964" y="216.18" type="curve" smooth="yes"/>
      <point x="260.968" y="216.18"/>
      <point x="243.53199999999998" y="257.09999999999997"/>
      <point x="243.53199999999998" y="341.62" type="curve" smooth="yes"/>
      <point x="243.53199999999998" y="445.256"/>
      <point x="266.416" y="480.316"/>
      <point x="313.72799999999995" y="480.316" type="curve" smooth="yes"/>
      <point x="332.32800000000003" y="480.316"/>
      <point x="355.84399999999994" y="476.392"/>
      <point x="373.96" y="471.192" type="curve"/>
      <point x="386.61600000000004" y="532.076" type="line"/>
      <point x="362.88399999999996" y="542.78"/>
      <point x="331.86800000000005" y="547.1600000000001"/>
      <point x="303.06399999999996" y="547.1600000000001" type="curve" smooth="yes"/>
      <point x="223.33200000000002" y="547.1600000000001"/>
      <point x="169.18" y="495.05600000000004"/>
    </contour>
  </outline>
</glyph>
<glyph name="ordfeminine" format="2">
  <advance width="301.694"/>
  <unicode hex="00AA"/>
  <outline>
    <contour>
      <point x="33.284000000000006" y="264.092" type="line"/>
      <point x="275.012" y="264.092" type="line"/>
      <point x="275.012" y="316.952" type="line"/>
      <point x="33.284000000000006" y="316.952" type="line"/>
    </contour>
    <component base="a.superior" xOffset="10.622"/>
  </outline>
</glyph>
<glyph name="logicalnot" format="2">
  <advance width="444.29200000000003"/>
  <unicode hex="00AC"/>
  <outline>
    <contour>
      <point x="46.398" y="341.774" type="line"/>
      <point x="314.28000000000003" y="341.774" type="line"/>
      <point x="314.28000000000003" y="175.538" type="line"/>
      <point x="398.35" y="175.538" type="line"/>
      <point x="398.35" y="425.844" type="line"/>
      <point x="46.398" y="425.844" type="line"/>
    </contour>
  </outline>
</glyph>
<glyph name="registered" format="2">
  <advance width="557.341"/>
  <unicode hex="00AE"/>
  <outline>
    <contour>
      <point x="277.45799999999997" y="207.81299999999996" type="curve" smooth="yes"/>
      <point x="432.332" y="207.81299999999996"/>
      <point x="518.9209999999999" y="317.45400000000006"/>
      <point x="518.9209999999999" y="550.329" type="curve" smooth="yes"/>
      <point x="518.9209999999999" y="783.273"/>
      <point x="432.418" y="892.4150000000001"/>
      <point x="277.45799999999997" y="892.4150000000001" type="curve" smooth="yes"/>
      <point x="124.43299999999998" y="892.4150000000001"/>
      <point x="38.42" y="783.273"/>
      <point x="38.42" y="550.329" type="curve" smooth="yes"/>
      <point x="38.42" y="318.357"/>
      <point x="124.13199999999999" y="207.81299999999996"/>
    </contour>
    <contour>
      <point x="277.45799999999997" y="244.322" type="curve" smooth="yes"/>
      <point x="147.77" y="244.322"/>
      <point x="77.44900000000001" y="338.603"/>
      <point x="77.44900000000001" y="550.329" type="curve" smooth="yes"/>
      <point x="77.44900000000001" y="762.726"/>
      <point x="147.684" y="855.734"/>
      <point x="277.45799999999997" y="855.734" type="curve" smooth="yes"/>
      <point x="409.98400000000004" y="855.734"/>
      <point x="479.918" y="762.812"/>
      <point x="479.918" y="550.329" type="curve" smooth="yes"/>
      <point x="479.918" y="338.30199999999996"/>
      <point x="409.769" y="244.322"/>
    </contour>
    <contour>
      <point x="393.7130000000001" y="375.73299999999995" type="curve" smooth="yes"/>
      <point x="397.70200000000006" y="375.73299999999995"/>
      <point x="401.99800000000005" y="375.73299999999995"/>
      <point x="406.684" y="376.404" type="curve"/>
      <point x="405.31600000000003" y="442.41999999999996" type="line"/>
      <point x="403.61699999999996" y="441.96399999999994"/>
      <point x="401.772" y="441.96399999999994"/>
      <point x="399.77200000000005" y="441.96399999999994" type="curve" smooth="yes"/>
      <point x="377.40299999999996" y="442.09299999999996"/>
      <point x="359.693" y="470.50500000000005"/>
      <point x="338.21299999999997" y="526.085" type="curve"/>
      <point x="376.2" y="540.616"/>
      <point x="391.857" y="579.696"/>
      <point x="391.857" y="632.004" type="curve" smooth="yes"/>
      <point x="391.857" y="706.6759999999999"/>
      <point x="355.84700000000004" y="738.435"/>
      <point x="277.079" y="738.435" type="curve" smooth="yes"/>
      <point x="246.93300000000005" y="738.435"/>
      <point x="215.55800000000002" y="736.362"/>
      <point x="176.738" y="732.7769999999999" type="curve"/>
      <point x="176.738" y="379.124" type="line"/>
      <point x="241.18900000000002" y="379.124" type="line"/>
      <point x="241.18900000000002" y="506.616" type="line"/>
      <point x="250.39100000000002" y="506.132"/>
      <point x="258.386" y="505.476"/>
      <point x="266.478" y="505.476" type="curve" smooth="yes"/>
      <point x="270.532" y="505.476"/>
      <point x="274.02700000000004" y="505.476"/>
      <point x="277.86600000000004" y="505.932" type="curve"/>
      <point x="317.917" y="393.537"/>
      <point x="352.34000000000003" y="375.948"/>
    </contour>
    <contour>
      <point x="271.448" y="551.11" type="curve" smooth="yes"/>
      <point x="262.049" y="551.11"/>
      <point x="253.478" y="551.224"/>
      <point x="241.18900000000002" y="552.138" type="curve"/>
      <point x="241.18900000000002" y="679.238" type="line"/>
      <point x="257.51" y="681.352"/>
      <point x="265.0199999999999" y="681.836"/>
      <point x="277.32000000000005" y="681.836" type="curve" smooth="yes"/>
      <point x="319.43600000000004" y="681.836"/>
      <point x="325.59999999999997" y="659.781"/>
      <point x="325.59999999999997" y="622.3199999999999" type="curve" smooth="yes"/>
      <point x="325.59999999999997" y="575.5500000000001"/>
      <point x="315.96200000000005" y="551.11"/>
    </contour>
  </outline>
</glyph>
<glyph name="degree" format="2">
  <advance width="283.04"/>
  <unicode hex="00B0"/>
  <outline>
    <contour>
      <point x="141.03600000000003" y="451.2" type="curve" smooth="yes"/>
      <point x="217.25600000000003" y="451.2"/>
      <point x="255.792" y="511.47600000000006"/>
      <point x="255.792" y="585.16" type="curve" smooth="yes"/>
      <point x="255.792" y="655.92"/>
      <point x="220.00799999999998" y="720.26"/>
      <point x="141.03600000000003" y="720.26" type="curve" smooth="yes"/>
      <point x="61.892" y="720.26"/>
      <point x="27.247999999999998" y="655.92"/>
      <point x="27.247999999999998" y="585.16" type="curve" smooth="yes"/>
      <point x="27.247999999999998" y="511.47600000000006"/>
      <point x="64.816" y="451.2"/>
    </contour>
    <contour>
      <point x="141.03600000000003" y="519.7040000000001" type="curve" smooth="yes"/>
      <point x="109.7" y="519.7040000000001"/>
      <point x="93.172" y="547.588"/>
      <point x="93.172" y="584.8159999999999" type="curve" smooth="yes"/>
      <point x="93.172" y="621.0120000000001"/>
      <point x="109.18400000000001" y="650.208"/>
      <point x="141.03600000000003" y="650.208" type="curve" smooth="yes"/>
      <point x="172.716" y="650.208"/>
      <point x="190.04000000000002" y="621.0120000000001"/>
      <point x="190.04000000000002" y="584.8159999999999" type="curve" smooth="yes"/>
      <point x="190.04000000000002" y="547.588"/>
      <point x="172.372" y="519.7040000000001"/>
    </contour>
  </outline>
</glyph>
<glyph name="plusminus" format="2">
  <advance width="458.884"/>
  <unicode hex="00B1"/>
  <outline>
    <contour>
      <point x="44.574000000000005" y="40.954" type="line"/>
      <point x="414.31" y="40.954" type="line"/>
      <point x="414.31" y="125.024" type="line"/>
      <point x="273.154" y="125.024" type="line"/>
      <point x="273.154" y="279.338" type="line"/>
      <point x="414.31" y="279.338" type="line"/>
      <point x="414.31" y="363.408" type="line"/>
      <point x="273.154" y="363.408" type="line"/>
      <point x="273.154" y="512.19" type="line"/>
      <point x="185.64400000000003" y="512.19" type="line"/>
      <point x="185.64400000000003" y="363.408" type="line"/>
      <point x="44.574000000000005" y="363.408" type="line"/>
      <point x="44.574000000000005" y="279.338" type="line"/>
      <point x="185.64400000000003" y="279.338" type="line"/>
      <point x="185.64400000000003" y="125.024" type="line"/>
      <point x="44.574000000000005" y="125.024" type="line"/>
    </contour>
  </outline>
</glyph>
<glyph name="uni00B2" format="2">
  <advance width="318.924"/>
  <unicode hex="00B2"/>
  <outline>
    <contour>
      <point x="47.816" y="370.0" type="line"/>
      <point x="277.822" y="370.0" type="line"/>
      <point x="277.822" y="421.174" type="line"/>
      <point x="132.828" y="421.174" type="line"/>
      <point x="226.036" y="537.8739999999999"/>
      <point x="252.19199999999998" y="595.994"/>
      <point x="252.19199999999998" y="657.5580000000001" type="curve" smooth="yes"/>
      <point x="252.19199999999998" y="732.502"/>
      <point x="212.9" y="774.714"/>
      <point x="145.64999999999998" y="774.714" type="curve" smooth="yes"/>
      <point x="108.62" y="774.714"/>
      <point x="71.936" y="764.162"/>
      <point x="41.426" y="740.19" type="curve"/>
      <point x="63.732000000000006" y="686.224" type="line"/>
      <point x="87.854" y="704.6100000000001"/>
      <point x="108.214" y="709.61"/>
      <point x="131.292" y="709.61" type="curve" smooth="yes"/>
      <point x="163.608" y="709.61"/>
      <point x="183.05200000000002" y="682.7800000000001"/>
      <point x="183.05200000000002" y="642.5459999999999" type="curve" smooth="yes"/>
      <point x="183.05200000000002" y="593.468"/>
      <point x="141.748" y="522.278"/>
      <point x="46.106" y="415.992" type="curve"/>
    </contour>
  </outline>
</glyph>
<glyph name="uni00B3" format="2">
  <advance width="318.672"/>
  <unicode hex="00B3"/>
  <outline>
    <contour>
      <point x="32.57" y="391.348" type="line"/>
      <point x="67.944" y="370.546"/>
      <point x="101.64200000000001" y="362.322"/>
      <point x="145.94000000000003" y="362.322" type="curve" smooth="yes"/>
      <point x="229.12599999999998" y="362.322"/>
      <point x="280.67199999999997" y="406.77599999999995"/>
      <point x="280.67199999999997" y="484.44" type="curve" smooth="yes"/>
      <point x="280.67199999999997" y="532.94"/>
      <point x="258.644" y="567.5079999999999"/>
      <point x="215.53400000000002" y="580.896" type="curve"/>
      <point x="248.82000000000002" y="595.6519999999999"/>
      <point x="268.484" y="630.0219999999999"/>
      <point x="268.484" y="671.7239999999999" type="curve" smooth="yes"/>
      <point x="268.484" y="734.892"/>
      <point x="224.892" y="774.718"/>
      <point x="147.608" y="774.718" type="curve" smooth="yes"/>
      <point x="102.60400000000001" y="774.718"/>
      <point x="65.086" y="765.058"/>
      <point x="40.776" y="749.188" type="curve"/>
      <point x="59.644000000000005" y="701.184" type="line"/>
      <point x="73.116" y="708.8340000000001"/>
      <point x="94.894" y="715.464"/>
      <point x="131.704" y="715.464" type="curve" smooth="yes"/>
      <point x="175.334" y="715.464"/>
      <point x="202.81" y="692.87"/>
      <point x="202.81" y="654.8700000000001" type="curve" smooth="yes"/>
      <point x="202.81" y="622.262"/>
      <point x="186.10999999999999" y="598.102"/>
      <point x="148.088" y="598.102" type="curve" smooth="yes"/>
      <point x="95.588" y="598.102" type="line"/>
      <point x="95.588" y="550.1379999999999" type="line"/>
      <point x="146.168" y="550.1379999999999" type="line" smooth="yes"/>
      <point x="196.24600000000004" y="550.1379999999999"/>
      <point x="212.796" y="527.428"/>
      <point x="212.796" y="489.59999999999997" type="curve" smooth="yes"/>
      <point x="212.796" y="444.726"/>
      <point x="185.62199999999999" y="418.252"/>
      <point x="137.48600000000002" y="418.252" type="curve" smooth="yes"/>
      <point x="99.428" y="418.252"/>
      <point x="77.23800000000001" y="424.532"/>
      <point x="54.153999999999996" y="439.15" type="curve"/>
    </contour>
  </outline>
</glyph>
<glyph name="uni00B5" format="2">
  <advance width="450.26"/>
  <unicode hex="00B5"/>
  <outline>
    <contour>
      <point x="45.38" y="-210.0" type="line"/>
      <point x="139.684" y="-210.0" type="line"/>
      <point x="139.684" y="16.003999999999998" type="line"/>
      <point x="152.35399999999998" y="-1.5840000000000005"/>
      <point x="172.666" y="-9.312000000000001"/>
      <point x="198.88400000000001" y="-9.312000000000001" type="curve" smooth="yes"/>
      <point x="239.36800000000002" y="-9.312000000000001"/>
      <point x="275.916" y="7.372000000000001"/>
      <point x="308.90999999999997" y="30.509999999999994" type="curve"/>
      <point x="321.10800000000006" y="4.774"/>
      <point x="340.186" y="-10.0"/>
      <point x="377.692" y="-10.0" type="curve" smooth="yes"/>
      <point x="405.376" y="-10.0"/>
      <point x="428.872" y="-2.812"/>
      <point x="448.54599999999994" y="7.772" type="curve"/>
      <point x="438.822" y="82.70799999999998" type="line"/>
      <point x="431.202" y="79.16999999999999"/>
      <point x="422.95000000000005" y="77.48599999999999"/>
      <point x="415.328" y="77.48599999999999" type="curve" smooth="yes"/>
      <point x="400.6" y="77.48599999999999"/>
      <point x="391.04" y="86.676"/>
      <point x="391.04" y="115.2" type="curve" smooth="yes"/>
      <point x="391.04" y="538.6" type="line"/>
      <point x="293.64000000000004" y="538.6" type="line"/>
      <point x="293.64000000000004" y="104.378" type="line"/>
      <point x="265.164" y="87.26"/>
      <point x="235.61399999999998" y="76.08200000000001"/>
      <point x="205.94599999999997" y="76.08200000000001" type="curve" smooth="yes"/>
      <point x="165.5" y="76.08200000000001"/>
      <point x="143.124" y="99.184"/>
      <point x="143.124" y="143.45000000000002" type="curve" smooth="yes"/>
      <point x="143.124" y="538.6" type="line"/>
      <point x="45.38" y="538.6" type="line"/>
    </contour>
  </outline>
</glyph>
<glyph name="paragraph" format="2">
  <advance width="538.1460000000001"/>
  <unicode hex="00B6"/>
  <outline>
    <contour>
      <point x="409.072" y="-210.0" type="line"/>
      <point x="487.036" y="-210.0" type="line"/>
      <point x="487.036" y="740.0" type="line"/>
      <point x="409.072" y="740.0" type="line"/>
    </contour>
    <contour>
      <point x="220.52200000000002" y="271.07399999999996" type="line"/>
      <point x="153.898" y="284.14200000000005"/>
      <point x="116.92200000000001" y="356.862"/>
      <point x="116.92200000000001" y="467.26000000000005" type="curve" smooth="yes"/>
      <point x="116.92200000000001" y="577.352"/>
      <point x="160.18" y="653.532"/>
      <point x="256.00399999999996" y="656.1540000000001" type="curve"/>
      <point x="256.00399999999996" y="-210.0" type="line"/>
      <point x="333.96799999999996" y="-210.0" type="line"/>
      <point x="333.96799999999996" y="740.0" type="line"/>
      <point x="282.13" y="740.0" type="line" smooth="yes"/>
      <point x="96.408" y="740.0"/>
      <point x="30.444000000000003" y="622.4119999999999"/>
      <point x="30.444000000000003" y="471.904" type="curve" smooth="yes"/>
      <point x="30.444000000000003" y="329.572"/>
      <point x="86.234" y="229.79"/>
      <point x="210.54999999999998" y="206.612" type="curve"/>
    </contour>
  </outline>
</glyph>
<glyph name="periodcentered" format="2">
  <advance width="168.918"/>
  <unicode hex="00B7"/>
  <outline>
    <contour>
      <point x="29.753999999999998" y="303.77000000000004" type="curve" smooth="yes"/>
      <point x="29.753999999999998" y="261.10999999999996"/>
      <point x="44.541999999999994" y="243.76999999999998"/>
      <point x="84.688" y="243.76999999999998" type="curve" smooth="yes"/>
      <point x="125.404" y="243.76999999999998"/>
      <point x="139.192" y="261.10999999999996"/>
      <point x="139.192" y="303.77000000000004" type="curve" smooth="yes"/>
      <point x="139.192" y="346.86"/>
      <point x="125.404" y="364.2"/>
      <point x="84.688" y="364.2" type="curve" smooth="yes"/>
      <point x="43.541999999999994" y="364.2"/>
      <point x="29.753999999999998" y="346.86"/>
    </contour>
  </outline>
</glyph>
<glyph name="uni00B9" format="2">
  <advance width="294.18800000000005"/>
  <unicode hex="00B9"/>
  <outline>
    <contour>
      <point x="32.18" y="370.0" type="line"/>
      <point x="271.982" y="370.0" type="line"/>
      <point x="271.982" y="422.06" type="line"/>
      <point x="192.574" y="422.06" type="line"/>
      <point x="192.574" y="768.912" type="line"/>
      <point x="157.69199999999998" y="768.912" type="line"/>
      <point x="23.812" y="706.366" type="line"/>
      <point x="38.980000000000004" y="649.456" type="line"/>
      <point x="123.26400000000001" y="693.494" type="line"/>
      <point x="123.26400000000001" y="422.06" type="line"/>
      <point x="32.18" y="422.06" type="line"/>
    </contour>
  </outline>
</glyph>
<glyph name="ordmasculine" format="2">
  <advance width="314.052"/>
  <unicode hex="00BA"/>
  <outline>
    <contour>
      <point x="37.978" y="264.206" type="line"/>
      <point x="280.618" y="264.206" type="line"/>
      <point x="280.618" y="317.066" type="line"/>
      <point x="37.978" y="317.066" type="line"/>
    </contour>
    <component base="o.superior" xOffset="13.472"/>
  </outline>
</glyph>
<glyph name="questiondown" format="2">
  <advance width="375.11600000000004"/>
  <unicode hex="00BF"/>
  <outline>
    <contour>
      <point x="258.83" y="273.222" type="line"/>
      <point x="173.212" y="273.222" type="line"/>
      <point x="173.04" y="201.23399999999998" type="line"/>
      <point x="75.432" y="142.82600000000002"/>
      <point x="31.906" y="81.49"/>
      <point x="31.906" y="-24.2" type="curve" smooth="yes"/>
      <point x="31.906" y="-155.1"/>
      <point x="112.272" y="-214.926"/>
      <point x="214.398" y="-214.926" type="curve" smooth="yes"/>
      <point x="273.08" y="-214.926"/>
      <point x="334.798" y="-192.552"/>
      <point x="377.66600000000005" y="-157.386" type="curve"/>
      <point x="343.62" y="-75.532" type="line"/>
      <point x="302.966" y="-106.884"/>
      <point x="264.538" y="-118.498"/>
      <point x="228.76" y="-118.498" type="curve" smooth="yes"/>
      <point x="175.17" y="-118.498"/>
      <point x="133.202" y="-79.55199999999999"/>
      <point x="133.202" y="-10.922" type="curve" smooth="yes"/>
      <point x="133.202" y="52.92799999999999"/>
      <point x="158.31000000000003" y="100.97800000000001"/>
      <point x="260.808" y="157.12199999999999" type="curve"/>
    </contour>
    <contour>
      <point x="269.968" y="479.374" type="curve" smooth="yes"/>
      <point x="269.968" y="521.7760000000001"/>
      <point x="255.21400000000003" y="539.116"/>
      <point x="215.18" y="539.116" type="curve" smooth="yes"/>
      <point x="175.26400000000004" y="539.116"/>
      <point x="160.848" y="521.7760000000001"/>
      <point x="160.848" y="479.374" type="curve" smooth="yes"/>
      <point x="160.848" y="436.542"/>
      <point x="175.26400000000004" y="419.202"/>
      <point x="215.18" y="419.202" type="curve" smooth="yes"/>
      <point x="256.24" y="419.202"/>
      <point x="269.968" y="436.542"/>
    </contour>
  </outline>
</glyph>
<glyph name="AE" format="2">
  <advance width="739.008"/>
  <unicode hex="00C6"/>
  <anchor x="403.70300000000003" y="700.0" name="top"/>
  <outline>
    <contour>
      <point x="9.578" y="0.0" type="line"/>
      <point x="121.17699999999999" y="-0.7570000000000001" type="line"/>
      <point x="217.84900000000002" y="230.98899999999998" type="line"/>
      <point x="360.21" y="230.98899999999998" type="line"/>
      <point x="360.21" y="0.0" type="line"/>
      <point x="720.1669999999999" y="0.0" type="line"/>
      <point x="720.1669999999999" y="93.53" type="line"/>
      <point x="458.685" y="93.53" type="line"/>
      <point x="458.685" y="294.51699999999994" type="line"/>
      <point x="685.3439999999999" y="294.51699999999994" type="line"/>
      <point x="685.3439999999999" y="385.467" type="line"/>
      <point x="458.685" y="385.467" type="line"/>
      <point x="458.685" y="605.3949999999999" type="line"/>
      <point x="706.4100000000001" y="605.3949999999999" type="line"/>
      <point x="706.4100000000001" y="700.0" type="line"/>
      <point x="300.05" y="700.0" type="line"/>
    </contour>
    <contour>
      <point x="247.80700000000002" y="320.10699999999997" type="line"/>
      <point x="359.35" y="625.2310000000001" type="line"/>
      <point x="359.35" y="320.10699999999997" type="line"/>
    </contour>
  </outline>
</glyph>
<glyph name="multiply" format="2">
  <advance width="426.572"/>
  <unicode hex="00D7"/>
  <outline>
    <contour>
      <point x="106.964" y="103.68999999999998" type="line"/>
      <point x="212.944" y="247.416" type="line"/>
      <point x="319.49399999999997" y="104.488" type="line"/>
      <point x="379.264" y="162.82" type="line"/>
      <point x="272.902" y="308.812" type="line"/>
      <point x="379.036" y="456.03" type="line"/>
      <point x="319.266" y="514.362" type="line"/>
      <point x="212.944" y="370.664" type="line"/>
      <point x="106.85000000000001" y="514.59" type="line"/>
      <point x="47.08" y="456.258" type="line"/>
      <point x="153.35600000000002" y="308.812" type="line"/>
      <point x="47.194" y="162.022" type="line"/>
    </contour>
  </outline>
</glyph>
<glyph name="Oslash" format="2">
  <advance width="523.68"/>
  <unicode hex="00D8"/>
  <anchor x="261.13" y="700.0" name="top"/>
  <outline>
    <contour>
      <point x="107.01" y="-10.86" type="line"/>
      <point x="147.43" y="63.78" type="line"/>
      <point x="153.8" y="64.05" type="line"/>
      <point x="418.22" y="587.14" type="line"/>
      <point x="424.16" y="587.0500000000001" type="line"/>
      <point x="490.42" y="714.3" type="line"/>
      <point x="415.89" y="714.3" type="line"/>
      <point x="373.46" y="632.9200000000001" type="line"/>
      <point x="367.02000000000004" y="632.5799999999999" type="line"/>
      <point x="108.26" y="121.96" type="line"/>
      <point x="102.82000000000001" y="122.33000000000001" type="line"/>
      <point x="32.980000000000004" y="-10.86" type="line"/>
    </contour>
    <contour>
      <point x="261.13" y="72.57000000000001" type="curve" smooth="yes"/>
      <point x="180.63" y="72.57000000000001"/>
      <point x="127.93999999999998" y="126.45"/>
      <point x="127.93999999999998" y="349.43" type="curve" smooth="yes"/>
      <point x="127.93999999999998" y="574.76"/>
      <point x="180.63" y="627.4300000000001"/>
      <point x="261.13" y="627.4300000000001" type="curve" smooth="yes"/>
      <point x="342.20000000000005" y="627.4300000000001"/>
      <point x="395.39" y="575.26"/>
      <point x="395.39" y="349.86" type="curve" smooth="yes"/>
      <point x="395.39" y="125.6"/>
      <point x="342.20000000000005" y="72.57000000000001"/>
    </contour>
    <contour>
      <point x="261.13" y="-10.0" type="curve" smooth="yes"/>
      <point x="408.8" y="-10.0"/>
      <point x="493.72" y="69.67999999999999"/>
      <point x="493.72" y="351.29" type="curve" smooth="yes"/>
      <point x="493.72" y="630.32"/>
      <point x="409.74" y="710.0"/>
      <point x="261.13" y="710.0" type="curve" smooth="yes"/>
      <point x="112.52" y="710.0"/>
      <point x="29.680000000000003" y="629.39"/>
      <point x="29.680000000000003" y="349.43" type="curve" smooth="yes"/>
      <point x="29.680000000000003" y="71.03"/>
      <point x="114.24" y="-10.0"/>
    </contour>
  </outline>
</glyph>
<glyph name="Thorn" format="2">
  <advance width="481.44399999999996"/>
  <unicode hex="00DE"/>
  <outline>
    <contour>
      <point x="49.81399999999999" y="0.0" type="line"/>
      <point x="149.278" y="0.0" type="line"/>
      <point x="149.278" y="145.818" type="line"/>
      <point x="195.78400000000002" y="143.186"/>
      <point x="208.01399999999998" y="143.07199999999997"/>
      <point x="251.68999999999997" y="143.07199999999997" type="curve" smooth="yes"/>
      <point x="397.942" y="143.07199999999997"/>
      <point x="458.20400000000006" y="216.37400000000002"/>
      <point x="458.20400000000006" y="391.302" type="curve" smooth="yes"/>
      <point x="458.20400000000006" y="558.7800000000001"/>
      <point x="407.858" y="624.428"/>
      <point x="228.794" y="624.428" type="curve" smooth="yes"/>
      <point x="210.956" y="624.428"/>
      <point x="187.484" y="623.658"/>
      <point x="149.622" y="621.748" type="curve"/>
      <point x="149.622" y="700.0" type="line"/>
      <point x="49.81399999999999" y="700.0" type="line"/>
    </contour>
    <contour>
      <point x="228.66799999999998" y="232.55999999999997" type="curve" smooth="yes"/>
      <point x="199.654" y="232.55999999999997"/>
      <point x="182.022" y="232.98799999999997"/>
      <point x="149.622" y="234.81799999999998" type="curve"/>
      <point x="149.622" y="534.1779999999999" type="line"/>
      <point x="193.81799999999998" y="537.834"/>
      <point x="213.794" y="538.518"/>
      <point x="235.7" y="538.518" type="curve" smooth="yes"/>
      <point x="334.166" y="538.518"/>
      <point x="358.138" y="496.496"/>
      <point x="358.138" y="393.97599999999994" type="curve" smooth="yes"/>
      <point x="358.138" y="285.354"/>
      <point x="329.42799999999994" y="232.55999999999997"/>
    </contour>
  </outline>
</glyph>
<glyph name="germandbls" format="2">
  <advance width="544.1080000000001"/>
  <unicode hex="00DF"/>
  <outline>
    <contour>
      <point x="79.56800000000001" y="0.0" type="line"/>
      <point x="176.624" y="0.0" type="line"/>
      <point x="176.624" y="524.384" type="line" smooth="yes"/>
      <point x="176.624" y="620.624"/>
      <point x="217.48000000000002" y="665.468"/>
      <point x="302.44" y="665.468" type="curve" smooth="yes"/>
      <point x="367.40400000000005" y="665.468"/>
      <point x="392.88" y="644.176"/>
      <point x="392.88" y="602.312" type="curve" smooth="yes"/>
      <point x="392.88" y="569.5120000000001"/>
      <point x="380.716" y="552.548"/>
      <point x="329.004" y="522.616" type="curve" smooth="yes"/>
      <point x="269.844" y="490.836"/>
      <point x="239.248" y="451.508"/>
      <point x="239.248" y="390.656" type="curve" smooth="yes"/>
      <point x="239.248" y="310.17199999999997"/>
      <point x="270.53600000000006" y="274.404"/>
      <point x="364.34000000000003" y="233.17999999999998" type="curve" smooth="yes"/>
      <point x="429.264" y="200.54"/>
      <point x="449.636" y="181.97199999999998"/>
      <point x="449.636" y="142.22" type="curve" smooth="yes"/>
      <point x="449.636" y="97.268"/>
      <point x="413.492" y="71.40399999999998"/>
      <point x="354.68800000000005" y="71.40399999999998" type="curve" smooth="yes"/>
      <point x="307.496" y="71.40399999999998"/>
      <point x="268.96799999999996" y="81.436"/>
      <point x="229.464" y="94.404" type="curve"/>
      <point x="213.06799999999998" y="16.876" type="line"/>
      <point x="255.792" y="-1.0160000000000002"/>
      <point x="307.28000000000003" y="-10.0"/>
      <point x="359.332" y="-10.0" type="curve" smooth="yes"/>
      <point x="462.268" y="-10.0"/>
      <point x="539.9839999999999" y="42.3"/>
      <point x="539.9839999999999" y="148.412" type="curve" smooth="yes"/>
      <point x="539.9839999999999" y="228.048"/>
      <point x="502.9" y="270.95599999999996"/>
      <point x="408.25199999999995" y="310.976" type="curve" smooth="yes"/>
      <point x="345.624" y="340.584"/>
      <point x="329.94" y="362.064"/>
      <point x="329.94" y="397.02" type="curve" smooth="yes"/>
      <point x="329.94" y="429.08799999999997"/>
      <point x="349.092" y="445.42"/>
      <point x="389.85200000000003" y="468.696" type="curve" smooth="yes"/>
      <point x="460.952" y="508.41600000000005"/>
      <point x="490.452" y="541.448"/>
      <point x="490.452" y="603.86" type="curve" smooth="yes"/>
      <point x="490.452" y="699.02"/>
      <point x="424.85999999999996" y="750.0"/>
      <point x="299.156" y="750.0" type="curve" smooth="yes"/>
      <point x="155.78799999999998" y="750.0"/>
      <point x="79.552" y="673.744"/>
      <point x="79.56800000000001" y="538.808" type="curve" smooth="yes"/>
      <point x="79.56800000000001" y="499.636" type="line"/>
      <point x="13.356" y="491.744" type="line"/>
      <point x="13.356" y="421.328" type="line"/>
      <point x="79.56800000000001" y="421.328" type="line"/>
    </contour>
  </outline>
</glyph>
<glyph name="ae" format="2">
  <advance width="655.775"/>
  <unicode hex="00E6"/>
  <anchor x="331.88500000000005" y="538.6" name="top"/>
  <outline>
    <contour>
      <point x="141.69" y="-10.0" type="curve" smooth="yes"/>
      <point x="207.335" y="-10.0"/>
      <point x="259.03499999999997" y="19.755"/>
      <point x="308.76499999999993" y="68.96000000000001" type="curve"/>
      <point x="310.19499999999994" y="68.96000000000001" type="line"/>
      <point x="343.3" y="14.415000000000001"/>
      <point x="390.465" y="-10.0"/>
      <point x="465.70000000000005" y="-10.0" type="curve" smooth="yes"/>
      <point x="526.725" y="-10.0"/>
      <point x="576.5450000000001" y="-0.35000000000000026"/>
      <point x="625.0250000000001" y="17.810000000000002" type="curve"/>
      <point x="611.2800000000001" y="99.30499999999999" type="line"/>
      <point x="569.8950000000001" y="87.16"/>
      <point x="521.0049999999999" y="78.73"/>
      <point x="479.815" y="78.73" type="curve" smooth="yes"/>
      <point x="402.075" y="78.73"/>
      <point x="368.53499999999997" y="113.735"/>
      <point x="367.675" y="234.555" type="curve" smooth="yes"/>
      <point x="367.245" y="239.55"/>
      <point x="367.245" y="245.61"/>
      <point x="367.745" y="249.605" type="curve"/>
      <point x="483.245" y="251.97"/>
      <point x="582.845" y="264.89500000000004"/>
      <point x="629.58" y="270.39500000000004" type="curve"/>
      <point x="629.795" y="281.705"/>
      <point x="630.795" y="296.955"/>
      <point x="630.795" y="311.96" type="curve" smooth="yes"/>
      <point x="630.795" y="477.30999999999995"/>
      <point x="574.99" y="548.6"/>
      <point x="457.035" y="548.6" type="curve" smooth="yes"/>
      <point x="398.685" y="548.6"/>
      <point x="352.42499999999995" y="522.205"/>
      <point x="324.4" y="463.58000000000004" type="curve"/>
      <point x="323.4" y="463.58000000000004" type="line"/>
      <point x="302.90000000000003" y="519.72"/>
      <point x="261.48" y="548.6"/>
      <point x="189.78499999999997" y="548.6" type="curve" smooth="yes"/>
      <point x="145.755" y="548.6"/>
      <point x="90.2" y="538.66"/>
      <point x="43.82000000000001" y="522.58" type="curve"/>
      <point x="62.72" y="438.36" type="line"/>
      <point x="110.39" y="453.295"/>
      <point x="152.625" y="457.435"/>
      <point x="182.545" y="457.435" type="curve" smooth="yes"/>
      <point x="239.07" y="457.435"/>
      <point x="267.62000000000006" y="430.475"/>
      <point x="267.62000000000006" y="381.055" type="curve" smooth="yes"/>
      <point x="267.62000000000006" y="317.07000000000005" type="line"/>
      <point x="91.315" y="293.105"/>
      <point x="16.765" y="249.74"/>
      <point x="16.765" y="132.64999999999998" type="curve" smooth="yes"/>
      <point x="16.765" y="42.105000000000004"/>
      <point x="64.145" y="-10.0"/>
    </contour>
    <contour>
      <point x="172.575" y="64.03999999999999" type="curve" smooth="yes"/>
      <point x="137.05999999999997" y="64.03999999999999"/>
      <point x="114.165" y="91.22"/>
      <point x="114.165" y="142.165" type="curve" smooth="yes"/>
      <point x="114.165" y="212.935"/>
      <point x="168.195" y="241.61"/>
      <point x="267.765" y="257.435" type="curve"/>
      <point x="267.765" y="247.79"/>
      <point x="267.765" y="237.28500000000003"/>
      <point x="267.765" y="227.20999999999998" type="curve" smooth="yes"/>
      <point x="267.765" y="184.35000000000002"/>
      <point x="270.9" y="149.325"/>
      <point x="275.675" y="121.71" type="curve"/>
      <point x="249.87" y="89.99"/>
      <point x="208.795" y="64.03999999999999"/>
    </contour>
    <contour>
      <point x="367.38500000000005" y="310.245" type="curve"/>
      <point x="367.6" y="433.325"/>
      <point x="405.1" y="472.695"/>
      <point x="451.88" y="472.695" type="curve" smooth="yes"/>
      <point x="504.43499999999995" y="472.695"/>
      <point x="530.385" y="426.695"/>
      <point x="532.5350000000001" y="321.51" type="curve"/>
      <point x="506.69500000000005" y="317.16"/>
      <point x="436.315" y="310.245"/>
    </contour>
  </outline>
</glyph>
<glyph name="eth" format="2">
  <advance width="433.25"/>
  <unicode hex="00F0"/>
  <outline>
    <contour>
      <point x="323.42" y="439.78999999999996" type="curve"/>
      <point x="327.92999999999995" y="510.96000000000004" type="line"/>
      <point x="297.28000000000003" y="529.44"/>
      <point x="261.85999999999996" y="536.79"/>
      <point x="220.66" y="536.79" type="curve" smooth="yes"/>
      <point x="83.17" y="536.79"/>
      <point x="27.25" y="447.63"/>
      <point x="27.25" y="253.56" type="curve" smooth="yes"/>
      <point x="27.25" y="68.72999999999999"/>
      <point x="84.42999999999999" y="-10.0"/>
      <point x="208.44" y="-10.0" type="curve" smooth="yes"/>
      <point x="355.98" y="-10.0"/>
      <point x="406.71999999999997" y="75.44999999999999"/>
      <point x="406.71999999999997" y="339.12" type="curve" smooth="yes"/>
      <point x="406.71999999999997" y="610.41"/>
      <point x="332.63" y="728.9200000000001"/>
      <point x="159.91000000000003" y="728.9200000000001" type="curve" smooth="yes"/>
      <point x="115.67" y="728.9200000000001"/>
      <point x="76.27" y="721.48"/>
      <point x="32.330000000000005" y="708.83" type="curve"/>
      <point x="44.21" y="642.31" type="line"/>
      <point x="79.64" y="651.7399999999999"/>
      <point x="105.64" y="658.03"/>
      <point x="138.99" y="658.03" type="curve" smooth="yes"/>
      <point x="268.28000000000003" y="658.03"/>
      <point x="308.96000000000004" y="588.25"/>
      <point x="308.96000000000004" y="346.58" type="curve" smooth="yes"/>
      <point x="308.96000000000004" y="118.39"/>
      <point x="284.79" y="65.25999999999999"/>
      <point x="215.82" y="65.25999999999999" type="curve" smooth="yes"/>
      <point x="153.76000000000002" y="65.25999999999999"/>
      <point x="128.09" y="114.12"/>
      <point x="128.09" y="254.06" type="curve" smooth="yes"/>
      <point x="128.09" y="414.41"/>
      <point x="161.44" y="464.61"/>
      <point x="236.43" y="464.61" type="curve" smooth="yes"/>
      <point x="266.96000000000004" y="464.61"/>
      <point x="296.8" y="458.4"/>
    </contour>
    <contour>
      <point x="149.34" y="558.24" type="line"/>
      <point x="279.08" y="642.02" type="line"/>
      <point x="283.58" y="649.11" type="line"/>
      <point x="406.38" y="732.91" type="line"/>
      <point x="317.62" y="732.91" type="line"/>
      <point x="243.63" y="683.54" type="line"/>
      <point x="241.42000000000002" y="678.6" type="line"/>
      <point x="60.08" y="558.24" type="line"/>
    </contour>
  </outline>
</glyph>
<glyph name="divide" format="2">
  <advance width="444.55"/>
  <unicode hex="00F7"/>
  <outline>
    <contour>
      <point x="172.286" y="127.67200000000001" type="curve" smooth="yes"/>
      <point x="172.286" y="93.182"/>
      <point x="185.672" y="79.71199999999999"/>
      <point x="222.49" y="79.71199999999999" type="curve" smooth="yes"/>
      <point x="259.336" y="79.71199999999999"/>
      <point x="272.6940000000001" y="93.182"/>
      <point x="272.6940000000001" y="127.67200000000001" type="curve" smooth="yes"/>
      <point x="272.6940000000001" y="161.732"/>
      <point x="259.224" y="175.63199999999998"/>
      <point x="222.49" y="175.63199999999998" type="curve" smooth="yes"/>
      <point x="185.21399999999997" y="175.63199999999998"/>
      <point x="172.286" y="161.732"/>
    </contour>
    <contour>
      <point x="172.286" y="483.868" type="curve" smooth="yes"/>
      <point x="172.286" y="449.80799999999994"/>
      <point x="185.784" y="436.338"/>
      <point x="222.49" y="436.338" type="curve" smooth="yes"/>
      <point x="259.336" y="436.338"/>
      <point x="272.6940000000001" y="449.80799999999994"/>
      <point x="272.6940000000001" y="483.868" type="curve" smooth="yes"/>
      <point x="272.6940000000001" y="518.788"/>
      <point x="259.336" y="532.258"/>
      <point x="222.49" y="532.258" type="curve" smooth="yes"/>
      <point x="185.21399999999997" y="532.258"/>
      <point x="172.286" y="518.788"/>
    </contour>
    <contour>
      <point x="44.832" y="263.95" type="line"/>
      <point x="400.14799999999997" y="263.95" type="line"/>
      <point x="400.14799999999997" y="348.45" type="line"/>
      <point x="44.832" y="348.45" type="line"/>
    </contour>
  </outline>
</glyph>
<glyph name="oslash" format="2">
  <advance width="439.97"/>
  <unicode hex="00F8"/>
  <anchor x="218.66" y="538.6" name="top"/>
  <outline>
    <contour>
      <point x="218.66" y="-10.0" type="curve" smooth="yes"/>
      <point x="74.53999999999999" y="-10.0"/>
      <point x="26.82" y="78.66000000000001"/>
      <point x="26.82" y="270.23" type="curve" smooth="yes"/>
      <point x="26.82" y="459.22999999999996"/>
      <point x="70.60999999999999" y="548.6"/>
      <point x="218.66" y="548.6" type="curve" smooth="yes"/>
      <point x="366.34999999999997" y="548.6"/>
      <point x="411.0" y="459.22999999999996"/>
      <point x="411.0" y="270.23" type="curve" smooth="yes"/>
      <point x="411.0" y="78.66000000000001"/>
      <point x="362.84999999999997" y="-10.0"/>
    </contour>
    <contour>
      <point x="219.09" y="67.83999999999999" type="curve" smooth="yes"/>
      <point x="287.93" y="67.83999999999999"/>
      <point x="314.03" y="109.35000000000001"/>
      <point x="314.03" y="270.23" type="curve" smooth="yes"/>
      <point x="314.03" y="429.03999999999996"/>
      <point x="290.14" y="471.19"/>
      <point x="219.09" y="471.19" type="curve" smooth="yes"/>
      <point x="147.24999999999997" y="471.19"/>
      <point x="123.79" y="429.03999999999996"/>
      <point x="123.79" y="270.23" type="curve" smooth="yes"/>
      <point x="123.79" y="109.35000000000001"/>
      <point x="149.89" y="67.83999999999999"/>
    </contour>
    <contour>
      <point x="25.75" y="-6.5600000000000005" type="line"/>
      <point x="90.98" y="110.94" type="line"/>
      <point x="94.2" y="109.65" type="line"/>
      <point x="304.24" y="488.93" type="line"/>
      <point x="308.32" y="487.64" type="line"/>
      <point x="343.56" y="548.6" type="line"/>
      <point x="412.07" y="548.6" type="line"/>
      <point x="348.99" y="439.2" type="line"/>
      <point x="345.34000000000003" y="440.49" type="line"/>
      <point x="134.94000000000003" y="58.41" type="line"/>
      <point x="130.86" y="59.699999999999996" type="line"/>
      <point x="93.39999999999999" y="-6.5600000000000005" type="line"/>
    </contour>
  </outline>
</glyph>
<glyph name="thorn" format="2">
  <advance width="437.544"/>
  <unicode hex="00FE"/>
  <outline>
    <contour>
      <point x="45.38" y="-210.0" type="line"/>
      <point x="142.178" y="-210.0" type="line"/>
      <point x="142.178" y="-3.1299999999999994" type="line"/>
      <point x="164.632" y="-7.975999999999999"/>
      <point x="185.802" y="-10.0"/>
      <point x="205.264" y="-10.0" type="curve" smooth="yes"/>
      <point x="351.80600000000004" y="-10.0"/>
      <point x="409.95" y="70.60600000000001"/>
      <point x="409.95" y="281.196" type="curve" smooth="yes"/>
      <point x="409.95" y="458.212"/>
      <point x="355.91999999999996" y="548.6"/>
      <point x="250.78599999999997" y="548.6" type="curve" smooth="yes"/>
      <point x="216.244" y="548.6"/>
      <point x="174.98399999999998" y="537.794"/>
      <point x="142.866" y="521.982" type="curve"/>
      <point x="142.866" y="740.0" type="line"/>
      <point x="45.38" y="740.0" type="line"/>
    </contour>
    <contour>
      <point x="204.61800000000002" y="65.708" type="curve" smooth="yes"/>
      <point x="187.35199999999998" y="65.708"/>
      <point x="168.91400000000002" y="68.41999999999999"/>
      <point x="143.124" y="74.87" type="curve"/>
      <point x="143.124" y="443.90400000000005" type="line"/>
      <point x="170.662" y="456.632"/>
      <point x="192.548" y="461.514"/>
      <point x="216.318" y="461.514" type="curve" smooth="yes"/>
      <point x="277.678" y="461.514"/>
      <point x="308.42199999999997" y="403.324"/>
      <point x="308.42199999999997" y="272.768" type="curve" smooth="yes"/>
      <point x="308.42199999999997" y="114.86999999999999"/>
      <point x="279.554" y="65.708"/>
    </contour>
  </outline>
</glyph>
<glyph name="Dcroat" format="2">
  <advance width="513.889"/>
  <unicode hex="0110"/>
  <outline>
    <contour>
      <point x="3.5700000000000003" y="313.88000000000005" type="line"/>
      <point x="251.737" y="313.88000000000005" type="line"/>
      <point x="251.737" y="397.735" type="line"/>
      <point x="3.5700000000000003" y="397.735" type="line"/>
    </contour>
    <component base="D" xOffset="3.579"/>
  </outline>
</glyph>
<glyph name="dcroat" format="2">
  <advance width="441.71500000000003"/>
  <unicode hex="0111"/>
  <outline>
    <contour>
      <point x="181.60800000000003" y="610.4749999999999" type="line"/>
      <point x="447.099" y="610.4749999999999" type="line"/>
      <point x="447.099" y="670.185" type="line"/>
      <point x="181.60800000000003" y="670.185" type="line"/>
    </contour>
    <component base="d"/>
  </outline>
</glyph>
<glyph name="Hbar" format="2">
  <advance width="523.5880000000001"/>
  <unicode hex="0126"/>
  <outline>
    <contour>
      <point x="11.920000000000002" y="500.74" type="line"/>
      <point x="49.89999999999999" y="500.74" type="line"/>
      <point x="49.89999999999999" y="0.0" type="line"/>
      <point x="149.02" y="0.0" type="line"/>
      <point x="149.02" y="262.4200000000001" type="line"/>
      <point x="375.42799999999994" y="262.4200000000001" type="line"/>
      <point x="375.42799999999994" y="0.0" type="line"/>
      <point x="473.68799999999993" y="0.0" type="line"/>
      <point x="473.68799999999993" y="500.74" type="line"/>
      <point x="511.66799999999995" y="500.74" type="line"/>
      <point x="511.66799999999995" y="575.6160000000001" type="line"/>
      <point x="473.68799999999993" y="575.6160000000001" type="line"/>
      <point x="473.68799999999993" y="700.0" type="line"/>
      <point x="375.42799999999994" y="700.0" type="line"/>
      <point x="375.42799999999994" y="575.6160000000001" type="line"/>
      <point x="149.02" y="575.6160000000001" type="line"/>
      <point x="149.02" y="700.0" type="line"/>
      <point x="49.89999999999999" y="700.0" type="line"/>
      <point x="49.89999999999999" y="575.6160000000001" type="line"/>
      <point x="11.920000000000002" y="575.6160000000001" type="line"/>
    </contour>
    <contour>
      <point x="149.02" y="357.644" type="line"/>
      <point x="149.02" y="500.74" type="line"/>
      <point x="375.42799999999994" y="500.74" type="line"/>
      <point x="375.42799999999994" y="357.644" type="line"/>
    </contour>
  </outline>
</glyph>
<glyph name="hbar" format="2">
  <advance width="441.02099999999996"/>
  <unicode hex="0127"/>
  <outline>
    <contour>
      <point x="-3.766999999999999" y="610.4749999999999" type="line"/>
      <point x="261.46900000000005" y="610.4749999999999" type="line"/>
      <point x="261.46900000000005" y="670.185" type="line"/>
      <point x="-3.766999999999999" y="670.185" type="line"/>
    </contour>
    <component base="h"/>
  </outline>
</glyph>
<glyph name="Idotaccent" format="2">
  <advance width="198.748"/>
  <unicode hex="0130"/>
  <outline>
    <contour>
      <point x="99.89" y="772.6659999999999" type="curve" smooth="yes"/>
      <point x="141.29399999999998" y="772.6659999999999"/>
      <point x="157.404" y="789.232"/>
      <point x="157.404" y="829.656" type="curve" smooth="yes"/>
      <point x="157.404" y="870.768"/>
      <point x="140.606" y="886.99"/>
      <point x="99.89" y="886.99" type="curve" smooth="yes"/>
      <point x="58.83" y="886.99"/>
      <point x="42.032000000000004" y="870.768"/>
      <point x="42.032000000000004" y="829.656" type="curve" smooth="yes"/>
      <point x="42.032000000000004" y="788.888"/>
      <point x="59.400000000000006" y="772.6659999999999"/>
    </contour>
    <component base="I"/>
  </outline>
</glyph>
<glyph name="dotlessi" format="2">
  <advance width="189.192"/>
  <unicode hex="0131"/>
  <anchor x="139.74200000000002" y="4.3" name="ogonek"/>
  <anchor x="95.28399999999999" y="0.0" name="bottom"/>
  <anchor x="94.596" y="538.6" name="top"/>
  <outline>
    <contour>
      <point x="45.38" y="0.0" type="line"/>
      <point x="143.812" y="0.0" type="line"/>
      <point x="143.812" y="538.6" type="line"/>
      <point x="45.38" y="538.6" type="line"/>
    </contour>
  </outline>
</glyph>
<glyph name="kgreenlandic" format="2">
  <advance width="414.42"/>
  <unicode hex="0138"/>
  <anchor x="212.23999999999998" y="538.6" name="top"/>
  <anchor x="212.23999999999998" y="0.0" name="bottom"/>
  <outline>
    <contour>
      <point x="382.84" y="-8.29" type="curve" smooth="yes"/>
      <point x="393.5" y="-8.29"/>
      <point x="402.94" y="-7.15"/>
      <point x="412.17" y="-4.79" type="curve"/>
      <point x="410.53" y="99.41999999999999" type="line"/>
      <point x="406.03" y="99.27999999999999"/>
      <point x="401.46" y="98.27999999999999"/>
      <point x="397.96000000000004" y="98.27999999999999" type="curve" smooth="yes"/>
      <point x="371.73" y="98.27999999999999"/>
      <point x="349.93" y="113.86"/>
      <point x="272.09" y="214.17" type="curve" smooth="yes"/>
      <point x="138.48" y="386.8" type="line"/>
      <point x="138.48" y="538.6" type="line"/>
      <point x="45.38" y="538.6" type="line"/>
      <point x="45.38" y="0.0" type="line"/>
      <point x="138.48" y="0.0" type="line"/>
      <point x="138.48" y="239.14" type="line"/>
      <point x="246.4" y="100.92" type="line" smooth="yes"/>
      <point x="321.13" y="4.4399999999999995"/>
      <point x="344.02" y="-8.29"/>
    </contour>
    <contour>
      <point x="219.12" y="232.9" type="line"/>
      <point x="288.57000000000005" y="314.87"/>
      <point x="369.90999999999997" y="417.27"/>
      <point x="395.88" y="534.1600000000001" type="curve"/>
      <point x="299.26" y="542.59" type="line"/>
      <point x="277.09" y="429.37"/>
      <point x="216.95" y="360.69"/>
      <point x="149.21" y="285.59000000000003" type="curve"/>
    </contour>
  </outline>
</glyph>
<glyph name="Ldot" format="2">
  <advance width="395.67"/>
  <unicode hex="013F"/>
  <outline>
    <contour>
      <point x="253.744" y="380.38399999999996" type="curve" smooth="yes"/>
      <point x="253.744" y="347.614"/>
      <point x="264.49" y="335.09"/>
      <point x="296.38" y="335.09" type="curve" smooth="yes"/>
      <point x="329.18399999999997" y="335.09"/>
      <point x="339.36" y="347.614"/>
      <point x="339.36" y="380.38399999999996" type="curve" smooth="yes"/>
      <point x="339.36" y="413.58399999999995"/>
      <point x="329.18399999999997" y="426.10799999999995"/>
      <point x="296.38" y="426.10799999999995" type="curve" smooth="yes"/>
      <point x="263.92" y="426.10799999999995"/>
      <point x="253.744" y="413.58399999999995"/>
    </contour>
    <component base="L"/>
  </outline>
</glyph>
<glyph name="ldot" format="2">
  <advance width="274.09000000000003"/>
  <unicode hex="0140"/>
  <outline>
    <contour>
      <point x="233.13" y="326.384" type="curve" smooth="yes"/>
      <point x="259.14" y="326.384"/>
      <point x="269.402" y="337.188"/>
      <point x="269.402" y="369.442" type="curve" smooth="yes"/>
      <point x="269.402" y="402.04"/>
      <point x="259.14" y="412.844"/>
      <point x="233.13" y="412.844" type="curve" smooth="yes"/>
      <point x="207.464" y="412.844"/>
      <point x="197.202" y="402.04"/>
      <point x="197.202" y="369.442" type="curve" smooth="yes"/>
      <point x="197.202" y="337.188"/>
      <point x="208.034" y="326.384"/>
    </contour>
    <component base="l"/>
  </outline>
</glyph>
<glyph name="Lslash" format="2">
  <advance width="412.46199999999993"/>
  <unicode hex="0141"/>
  <outline>
    <contour>
      <point x="15.799999999999997" y="202.3" type="line"/>
      <point x="66.60600000000001" y="239.29" type="line"/>
      <point x="66.60600000000001" y="0.0" type="line"/>
      <point x="400.882" y="0.0" type="line"/>
      <point x="400.882" y="92.816" type="line"/>
      <point x="166.07" y="92.816" type="line"/>
      <point x="166.07" y="291.752" type="line"/>
      <point x="317.95799999999997" y="397.7" type="line"/>
      <point x="317.95799999999997" y="491.756" type="line"/>
      <point x="166.07" y="386.264" type="line"/>
      <point x="166.07" y="700.0" type="line"/>
      <point x="66.60600000000001" y="700.0" type="line"/>
      <point x="66.60600000000001" y="333.802" type="line"/>
      <point x="15.799999999999997" y="296.812" type="line"/>
    </contour>
  </outline>
</glyph>
<glyph name="lslash" format="2">
  <advance width="240.37800000000001"/>
  <unicode hex="0142"/>
  <outline>
    <contour>
      <point x="158.97400000000002" y="-10.0" type="curve" smooth="yes"/>
      <point x="187.64800000000002" y="-10.0"/>
      <point x="216.258" y="-2.1559999999999997"/>
      <point x="237.334" y="6.856" type="curve"/>
      <point x="228.69" y="94.684" type="line"/>
      <point x="212.524" y="90.488"/>
      <point x="199.498" y="88.346"/>
      <point x="188.988" y="88.346" type="curve" smooth="yes"/>
      <point x="164.95199999999997" y="88.346"/>
      <point x="148.11200000000002" y="100.27799999999999"/>
      <point x="148.11200000000002" y="169.86599999999999" type="curve" smooth="yes"/>
      <point x="148.11200000000002" y="307.52" type="line"/>
      <point x="224.62" y="374.886" type="line"/>
      <point x="224.62" y="458.82000000000005" type="line"/>
      <point x="148.11200000000002" y="391.454" type="line"/>
      <point x="148.11200000000002" y="740.0" type="line"/>
      <point x="50.712" y="740.0" type="line"/>
      <point x="50.712" y="316.044" type="line"/>
      <point x="4.848" y="275.566" type="line"/>
      <point x="4.848" y="192.088" type="line"/>
      <point x="50.884" y="232.196" type="line"/>
      <point x="51.056000000000004" y="146.38799999999998" type="line" smooth="yes"/>
      <point x="52.518" y="23.991999999999997"/>
      <point x="88.86" y="-10.0"/>
    </contour>
  </outline>
</glyph>
<glyph name="Eng" format="2">
  <advance width="520.92"/>
  <unicode hex="014A"/>
  <outline>
    <contour>
      <point x="49.885" y="0.0" type="line"/>
      <point x="138.9" y="0.0" type="line"/>
      <point x="138.9" y="498.935" type="line"/>
      <point x="375.78499999999997" y="1.4200000000000004" type="line"/>
      <point x="375.78499999999997" y="-9.559999999999999" type="line" smooth="yes"/>
      <point x="375.215" y="-62.745"/>
      <point x="343.19" y="-84.42999999999999"/>
      <point x="288.69499999999994" y="-84.42999999999999" type="curve" smooth="yes"/>
      <point x="272.41" y="-84.42999999999999"/>
      <point x="253.27" y="-82.57499999999999"/>
      <point x="234.325" y="-77.28" type="curve"/>
      <point x="218.70499999999998" y="-161.64" type="line"/>
      <point x="242.38000000000002" y="-170.875"/>
      <point x="271.48" y="-178.105"/>
      <point x="306.97" y="-178.105" type="curve" smooth="yes"/>
      <point x="417.2" y="-178.105"/>
      <point x="471.035" y="-118.37"/>
      <point x="471.035" y="-12.15" type="curve" smooth="yes"/>
      <point x="471.035" y="700.0" type="line"/>
      <point x="382.45000000000005" y="700.0" type="line"/>
      <point x="382.45000000000005" y="192.74499999999998" type="line"/>
      <point x="147.865" y="701.14" type="line"/>
      <point x="49.885" y="701.14" type="line"/>
    </contour>
  </outline>
</glyph>
<glyph name="eng" format="2">
  <advance width="440.978"/>
  <unicode hex="014B"/>
  <outline>
    <contour>
      <point x="396.28600000000006" y="18.45" type="curve"/>
      <point x="396.28600000000006" y="419.87399999999997" type="line" smooth="yes"/>
      <point x="396.28600000000006" y="503.16399999999993"/>
      <point x="352.91600000000005" y="548.6"/>
      <point x="275.788" y="548.6" type="curve" smooth="yes"/>
      <point x="223.414" y="548.6"/>
      <point x="178.758" y="531.228"/>
      <point x="134.60999999999999" y="503.612" type="curve"/>
      <point x="134.60999999999999" y="538.6" type="line"/>
      <point x="45.38" y="538.6" type="line"/>
      <point x="45.38" y="0.0" type="line"/>
      <point x="143.124" y="0.0" type="line"/>
      <point x="143.124" y="431.872" type="line"/>
      <point x="172.19400000000002" y="448.272"/>
      <point x="202.802" y="460.454"/>
      <point x="234.15400000000002" y="460.454" type="curve" smooth="yes"/>
      <point x="277.284" y="460.454"/>
      <point x="298.542" y="435.75"/>
      <point x="298.542" y="389.94599999999997" type="curve" smooth="yes"/>
      <point x="298.542" y="16.274" type="line" smooth="yes"/>
      <point x="298.542" y="-50.174"/>
      <point x="283.934" y="-89.75399999999999"/>
      <point x="256.654" y="-107.99399999999999" type="curve" smooth="yes"/>
      <point x="251.08400000000003" y="-110.958"/>
      <point x="244.13799999999998" y="-112.836"/>
      <point x="237.998" y="-114.144" type="curve"/>
      <point x="238.856" y="-210.20600000000002" type="line"/>
      <point x="253.246" y="-209.70600000000002"/>
      <point x="267.69599999999997" y="-207.232"/>
      <point x="283.466" y="-203.81199999999998" type="curve" smooth="yes"/>
      <point x="354.506" y="-182.95"/>
      <point x="396.28600000000006" y="-106.16799999999999"/>
    </contour>
  </outline>
</glyph>
<glyph name="OE" format="2">
  <advance width="742.926"/>
  <unicode hex="0152"/>
  <outline>
    <contour>
      <point x="724.0849999999999" y="0.0" type="line"/>
      <point x="724.0849999999999" y="93.53" type="line"/>
      <point x="461.09800000000007" y="93.53" type="line"/>
      <point x="461.09800000000007" y="313.78499999999997" type="line"/>
      <point x="688.832" y="313.78499999999997" type="line"/>
      <point x="688.832" y="404.73499999999996" type="line"/>
      <point x="461.09800000000007" y="404.73499999999996" type="line"/>
      <point x="461.09800000000007" y="605.8249999999999" type="line"/>
      <point x="709.8979999999999" y="605.8249999999999" type="line"/>
      <point x="709.8979999999999" y="700.0" type="line"/>
      <point x="443.683" y="700.0" type="line"/>
      <point x="389.46600000000007" y="704.9630000000001"/>
      <point x="334.334" y="707.1780000000001"/>
      <point x="280.733" y="707.1780000000001" type="curve" smooth="yes"/>
      <point x="117.47200000000001" y="707.1780000000001"/>
      <point x="29.57699999999999" y="622.6659999999999"/>
      <point x="29.57699999999999" y="352.74800000000005" type="curve" smooth="yes"/>
      <point x="29.57699999999999" y="67.002"/>
      <point x="125.679" y="-8.262"/>
      <point x="282.44300000000004" y="-8.262" type="curve" smooth="yes"/>
      <point x="337.633" y="-8.262"/>
      <point x="395.91700000000003" y="-5.9350000000000005"/>
      <point x="460.883" y="0.0" type="curve"/>
    </contour>
    <contour>
      <point x="361.118" y="82.977" type="line"/>
      <point x="341.35300000000007" y="80.977"/>
      <point x="309.43" y="78.706"/>
      <point x="279.94499999999994" y="78.706" type="curve" smooth="yes"/>
      <point x="193.85899999999998" y="78.706"/>
      <point x="132.922" y="126.83700000000002"/>
      <point x="132.922" y="351.0" type="curve" smooth="yes"/>
      <point x="132.922" y="575.4250000000001"/>
      <point x="193.97999999999996" y="620.537"/>
      <point x="278.91700000000003" y="620.537" type="curve" smooth="yes"/>
      <point x="300.553" y="620.537"/>
      <point x="340.697" y="617.7800000000001"/>
      <point x="361.118" y="615.836" type="curve"/>
    </contour>
  </outline>
</glyph>
